<svg width="91" height="91" viewBox="0 0 91 91" fill="none" xmlns="http://www.w3.org/2000/svg">
<path d="M61.216 70.335C62.866 70.335 64.616 69.035 65.166 67.485L73.866 40.685C74.366 39.135 73.466 37.835 71.816 37.885H69.916C68.266 37.885 66.516 39.235 65.966 40.785L59.716 59.985C59.216 61.535 57.416 62.835 55.766 62.835H52.366C50.716 62.835 49.366 61.485 49.366 59.835V3.33496C49.366 1.68496 48.016 0.334961 46.366 0.334961H44.866C43.216 0.334961 41.866 1.68496 41.866 3.33496V59.835C41.866 61.485 40.516 62.835 38.866 62.835H35.566C33.916 62.835 32.166 61.535 31.666 59.985L25.566 40.685C25.066 39.135 23.316 37.835 21.666 37.835H19.566C17.916 37.835 16.966 39.135 17.516 40.685L26.216 67.485C26.716 69.035 28.516 70.335 30.166 70.335H61.266H61.216Z" fill="#FF5733"/>
<path d="M86.166 65.335C84.516 65.335 83.166 66.685 83.166 68.335V79.835C83.166 81.485 81.816 82.835 80.166 82.835H11.166C9.51602 82.835 8.16602 81.485 8.16602 79.835V68.335C8.16602 66.685 6.81602 65.335 5.16602 65.335H3.66602C2.01602 65.335 0.666016 66.685 0.666016 68.335V87.335C0.666016 88.985 2.01602 90.335 3.66602 90.335H87.666C89.316 90.335 90.666 88.985 90.666 87.335V68.335C90.666 66.685 89.316 65.335 87.666 65.335H86.166Z" fill="#FF5733"/>
</svg>
