<svg width="89" height="91" viewBox="0 0 89 91" fill="none" xmlns="http://www.w3.org/2000/svg">
<path d="M58.2332 22.775C58.7332 24.325 58.0832 26.425 56.7332 27.375L46.7832 34.625C45.4332 35.5751 43.2832 35.5751 41.9332 34.625L31.9832 27.375C30.6332 26.425 29.9832 24.325 30.4832 22.775L34.2832 11.075C34.7832 9.52505 36.5832 8.22505 38.2332 8.22505H50.5832C52.2332 8.22505 53.9832 9.52505 54.5332 11.075L58.3332 22.775H58.2332ZM59.8832 3.52505C59.3832 1.97505 57.5832 0.675049 55.9332 0.675049H32.6832C31.0332 0.675049 29.2832 1.97505 28.7332 3.52505L21.5332 25.625C21.0332 27.175 21.6832 29.275 23.0332 30.225L41.8332 43.875C43.1832 44.8251 45.3332 44.8251 46.6832 43.875L65.4832 30.225C66.8332 29.275 67.4832 27.175 66.9832 25.625L59.7832 3.52505H59.8832Z" fill="#FF5733"/>
<path d="M65.6832 54.975L78.0832 63.975C79.4332 64.925 80.0832 67.025 79.5832 68.575L75.7832 80.275C75.2832 81.825 73.4832 83.125 71.8332 83.125H16.8332C15.1832 83.125 13.4332 81.825 12.8832 80.275L9.08322 68.575C8.58322 67.025 9.23322 64.925 10.5832 63.975L20.5332 56.725C21.8832 55.775 24.0332 55.775 25.3832 56.725L37.4832 65.525C38.8332 66.475 40.8832 68.025 42.1332 68.875C43.3832 69.7249 45.3332 69.775 46.5332 68.875C47.7332 67.9749 49.8332 66.475 51.1832 65.525L65.6832 54.975ZM68.1332 47.475C66.7832 46.525 64.6332 46.525 63.2832 47.475L46.7832 59.475C45.4332 60.425 43.2832 60.425 41.9332 59.475L25.4332 47.475C24.0832 46.525 21.9332 46.525 20.5832 47.475L1.78322 61.125C0.433224 62.075 -0.216776 64.175 0.283224 65.725L7.48322 87.825C7.98322 89.375 9.18322 90.675 10.1332 90.675H78.5832C79.5332 90.675 80.7332 89.375 81.2332 87.825L88.4332 65.725C88.9332 64.175 88.2832 62.075 86.9332 61.125L68.1332 47.475Z" fill="#FF5733"/>
</svg>
