<svg width="89" height="85" viewBox="0 0 89 85" fill="none" xmlns="http://www.w3.org/2000/svg">
<path d="M71.0664 46.4252C69.7164 45.4752 67.5664 45.4752 66.2164 46.4252L50.0164 58.1751C48.6664 59.1251 48.0164 61.2251 48.5164 62.7751L49.8664 66.9751C50.3664 68.5251 49.8164 68.9252 48.6164 67.7752L20.8164 41.6751C19.6164 40.5251 19.9664 39.6251 21.6164 39.6251H30.6664C32.3164 39.6251 34.0664 38.3251 34.6164 36.7751L40.8164 17.7751C41.3164 16.2251 40.6664 14.1251 39.3164 13.1751L23.1164 1.42515C21.7664 0.475146 19.6164 0.475146 18.2664 1.42515L2.06643 13.1751C0.716427 14.1251 0.066427 16.2251 0.566427 17.7751L6.76643 36.7751C7.26643 38.3251 8.66643 40.5751 9.86643 41.6751L53.4164 82.5751C54.6164 83.7251 56.9664 84.6251 58.6164 84.6251H78.6164C80.2664 84.6251 82.0164 83.3251 82.5664 81.7751L88.7664 62.7751C89.2664 61.2251 88.6164 59.1251 87.2664 58.1751L71.0664 46.4252ZM18.2664 10.7251C19.6164 9.77515 21.7664 9.77515 23.1164 10.7251L30.4664 16.0751C31.8164 17.0251 32.4664 19.1251 31.9664 20.6751L29.1664 29.3251C28.6664 30.8751 26.8664 32.1751 25.2164 32.1751H16.1164C14.4664 32.1751 12.7164 30.8751 12.1664 29.3251L9.36643 20.6751C8.86643 19.1251 9.51643 17.0251 10.8664 16.0751L18.2164 10.7251H18.2664ZM77.1164 74.3251C76.6164 75.8752 74.8164 77.1751 73.1664 77.1751H64.0664C62.4164 77.1751 60.6664 75.8752 60.1164 74.3251L57.3164 65.6752C56.8164 64.1252 57.4664 62.0251 58.8164 61.0751L66.1664 55.7252C67.5164 54.7752 69.6664 54.7752 71.0164 55.7252L78.3664 61.0751C79.7164 62.0251 80.3664 64.1252 79.8664 65.6752L77.0664 74.3251H77.1164Z" fill="#FF5733"/>
</svg>
