<svg width="109" height="131" viewBox="0 0 109 131" fill="none" xmlns="http://www.w3.org/2000/svg">
<path d="M107.379 48.5722L78.9398 27.9087C76.9902 26.4925 74.3694 28.3961 75.1142 30.6859L87.5933 69.0978C88.5083 71.9118 84.6276 73.682 83.101 71.1531L41.3142 1.87466C40.5601 0.623995 38.9002 0.288339 37.7231 1.14817L17.0596 16.1607C16.1859 16.7953 15.8227 17.9172 16.1538 18.9425L44.5788 106.425C45.4984 109.257 41.5762 111.018 40.0727 108.448L0.929688 41.574V56.5222C0.929688 54.214 4.22187 53.0277 5.57369 55.3267L49.2503 129.438C49.6964 130.196 50.5102 130.661 51.393 130.661H76.604C78.2915 130.661 79.4916 129.01 78.9674 127.405L45.1995 23.4762C44.2891 20.6714 48.1468 18.8966 49.6872 21.4117L91.4694 89.8119C92.5775 91.6235 95.2996 91.3063 95.9571 89.2831L108.28 51.3494C108.615 50.3287 108.248 49.2067 107.379 48.5722Z" fill="#FF5733"/>
</svg>
