<svg width="131" height="129" viewBox="0 0 131 129" fill="none" xmlns="http://www.w3.org/2000/svg">
<path d="M65.5001 1.29767C101.106 1.29767 129.97 6.01357 129.97 11.8312C129.97 17.6488 101.106 22.3647 65.5001 22.3647M65.5001 22.3647C29.894 22.3647 1.03027 27.0806 1.03027 32.8982C1.03027 38.7158 29.894 43.4317 65.5001 43.4317M65.5001 22.3647C101.106 22.3647 129.97 27.0806 129.97 32.8982C129.97 38.7158 101.106 43.4317 65.5001 43.4317M65.5001 43.4317C29.894 43.4317 1.03027 48.1476 1.03027 53.9652C1.03027 59.7829 29.894 64.5013 65.5001 64.5013M65.5001 43.4317C101.106 43.4317 129.97 48.1476 129.97 53.9652C129.97 59.7829 101.106 64.4988 65.5001 64.4988M65.5001 64.5013C29.894 64.5013 1.03027 69.2172 1.03027 75.0348C1.03027 80.8524 29.894 85.5683 65.5001 85.5683M65.5001 64.5013C101.106 64.5013 129.97 69.2172 129.97 75.0348C129.97 80.8524 101.106 85.5683 65.5001 85.5683M65.5001 85.5683C29.894 85.5683 1.03027 90.2842 1.03027 96.1018C1.03027 101.919 29.894 106.635 65.5001 106.635M65.5001 85.5683C101.106 85.5683 129.97 90.2842 129.97 96.1018C129.97 101.919 101.106 106.635 65.5001 106.635M65.5001 106.635C29.894 106.635 1.03027 111.351 1.03027 117.169C1.03027 122.986 29.894 127.702 65.5001 127.702" stroke="#FF5733" stroke-width="1.5" stroke-miterlimit="10"/>
</svg>
