<svg width="175" height="80" viewBox="0 0 175 80" fill="none" xmlns="http://www.w3.org/2000/svg">
<path d="M49.1213 56.1549H41.4322C41.164 56.1549 40.9151 56.0124 40.7798 55.7828L27.4604 33.1819C27.0013 32.4014 25.8051 32.9403 26.0854 33.8005L33.0278 55.1642C33.1873 55.6547 32.8224 56.1574 32.3077 56.1574H25.4934C25.1648 56.1574 24.8748 55.9447 24.7733 55.633L17.0842 31.9689C16.9827 31.6571 17.0939 31.314 17.3597 31.1207L23.6521 26.5488C24.0145 26.2854 24.5244 26.3917 24.7516 26.7784L37.9815 49.3817C38.4407 50.1646 39.6368 49.6282 39.3565 48.7655L30.6863 22.0856C30.5848 21.7739 30.696 21.4308 30.9618 21.2375L37.2638 16.6583C37.6239 16.3974 38.1289 16.4989 38.3585 16.8806L51.1028 38.0075C51.5691 38.7784 52.7508 38.2395 52.4729 37.3817L48.667 25.6668C48.4398 24.9685 49.2397 24.3885 49.8341 24.8186L58.5067 31.1207C58.7725 31.314 58.8837 31.6571 58.7822 31.9689L55.0246 43.5387C54.8241 44.1549 53.9952 44.2516 53.6569 43.7006L40.9127 22.8396C40.4439 22.0736 39.2671 22.6148 39.545 23.4703L49.8438 55.1666C50.0033 55.6572 49.6384 56.1598 49.1237 56.1598L49.1213 56.1549Z" fill="#191919"/>
<path d="M130.739 41.6588C130.739 34.9822 127.034 31.9181 119.353 31.9181H115.909C115.513 31.9181 115.191 32.2395 115.191 32.6358V35.4534C115.191 35.8496 115.513 36.171 115.909 36.171H119.307C123.789 36.171 126.121 37.8625 126.121 40.9266V40.9411C126.121 41.3374 125.8 41.6588 125.403 41.6588H121.549C114.553 41.6588 110.528 44.5391 110.528 49.7079C110.528 54.0986 113.408 56.6141 118.758 56.6141C122.822 56.6141 124.884 55.1425 125.367 51.658C125.415 51.3027 125.717 51.0345 126.077 51.0345H126.09C126.486 51.0345 126.807 51.3559 126.807 51.7522V55.4373C126.807 55.8336 127.129 56.1549 127.525 56.1549H134.136C134.533 56.1549 134.854 55.8336 134.854 55.4373V52.6197C134.854 52.2234 134.533 51.902 134.136 51.902H131.456C131.06 51.902 130.739 51.5806 130.739 51.1843V41.6588ZM126.121 46.8251C126.121 50.3458 123.378 52.7236 119.49 52.7236C116.656 52.7236 115.145 51.4888 115.145 49.3865C115.145 46.7333 117.431 45.5444 122.646 45.5444H125.403C125.8 45.5444 126.121 45.8658 126.121 46.2621V46.8251Z" fill="#191919"/>
<path d="M139.919 40.9266C139.919 37.8625 142.251 36.171 146.733 36.171H153.12C153.516 36.171 153.837 35.8496 153.837 35.4534V32.6358C153.837 32.2395 153.516 31.9181 153.12 31.9181H146.687C139.278 31.9181 135.301 34.7985 135.301 40.9725V47.1006C135.301 53.2746 139.278 56.1549 146.687 56.1549H153.395C153.792 56.1549 154.113 55.8336 154.113 55.4373V52.6197C154.113 52.2234 153.792 51.902 153.395 51.902H146.733C142.251 51.902 139.919 50.2105 139.919 47.1465V40.9266Z" fill="#191919"/>
<path d="M107.507 36.171H111.864C112.26 36.171 112.582 35.8496 112.582 35.4534V32.6358C112.582 32.2395 112.26 31.9181 111.864 31.9181H107.507C104.301 31.9181 102.367 33.8078 101.94 37.5073C101.899 37.8674 101.592 38.138 101.229 38.138C100.833 38.138 100.512 37.8166 100.512 37.4203V32.6382C100.512 32.2419 100.19 31.9205 99.7939 31.9205H92.8152C92.4189 31.9205 92.0975 32.2419 92.0975 32.6382V35.4558C92.0975 35.8521 92.4189 36.1735 92.8152 36.1735H95.8599C96.2562 36.1735 96.5776 36.4948 96.5776 36.8911V51.1868C96.5776 51.583 96.2562 51.9044 95.8599 51.9044H91.8994C91.5031 51.9044 91.1817 52.2258 91.1817 52.6221V55.4397C91.1817 55.836 91.5031 56.1574 91.8994 56.1574H106.606C107.002 56.1574 107.323 55.836 107.323 55.4397V52.6221C107.323 52.2258 107.002 51.9044 106.606 51.9044H102.143C101.746 51.9044 101.425 51.583 101.425 51.1868V45.7304C101.425 41.0667 101.882 36.1735 107.507 36.1735V36.171Z" fill="#191919"/>
<path d="M89.4902 32.6358C89.4902 32.2395 89.1688 31.9181 88.7725 31.9181H78.8217C78.4254 31.9181 78.104 31.5967 78.104 31.2004V25.3889C78.104 24.9926 77.7826 24.6712 77.3863 24.6712H73.9743C73.578 24.6712 73.2566 24.9926 73.2566 25.3889V31.2004C73.2566 31.5967 72.9352 31.9181 72.5389 31.9181H67.8921C67.4958 31.9181 67.1745 32.2395 67.1745 32.6358V35.4534C67.1745 35.8496 67.4958 36.171 67.8921 36.171H72.5389C72.9352 36.171 73.2566 36.4924 73.2566 36.8887V47.0087C73.2566 53.5935 76.2747 56.1549 83.6835 56.1549H88.7725C89.1688 56.1549 89.4902 55.8336 89.4902 55.4373V52.6197C89.4902 52.2234 89.1688 51.902 88.7725 51.902H84.1402C79.7037 51.902 78.104 50.5295 78.104 46.7816V36.8911C78.104 36.4948 78.4254 36.1735 78.8217 36.1735H88.7725C89.1688 36.1735 89.4902 35.8521 89.4902 35.4558V32.6358Z" fill="#191919"/>
</svg>
