<svg width="167" height="176" viewBox="0 0 167 176" fill="none" xmlns="http://www.w3.org/2000/svg">
<path d="M89.4424 92.2177C89.0002 92.2177 88.5894 91.9833 88.3646 91.6015L66.3844 54.3056C65.6256 53.0176 63.6538 53.9045 64.1177 55.3278L75.5718 90.5817C75.8352 91.3912 75.2311 92.2201 74.3829 92.2201H63.1391C62.5978 92.2201 62.1169 91.8721 61.9502 91.355L49.2612 52.3072C49.0945 51.7925 49.2782 51.227 49.7155 50.908L60.1015 43.3614C60.7008 42.9264 61.5442 43.1028 61.9163 43.7408L83.7492 81.0415C84.5055 82.3343 86.4822 81.4474 86.0182 80.0217L71.7127 35.9936C71.546 35.4789 71.7296 34.9134 72.167 34.5944L82.5675 27.0381C83.1595 26.608 83.9957 26.7771 84.375 27.403L105.406 62.2679C106.174 63.5414 108.127 62.6497 107.667 61.236L101.387 41.9043C101.012 40.7516 102.332 39.7923 103.313 40.5051L117.626 50.9056C118.063 51.2246 118.247 51.7901 118.08 52.3048L111.877 71.3949C111.546 72.4122 110.176 72.5717 109.62 71.6607L88.5918 37.238C87.8185 35.9718 85.8757 36.8659 86.3348 38.2771L103.33 90.5793C103.593 91.3888 102.989 92.2177 102.141 92.2177H89.4424Z" fill="#191919"/>
<path d="M109.161 117.661C109.161 109.191 104.461 105.303 94.7151 105.303H90.3461C89.8435 105.303 89.4351 105.711 89.4351 106.214V109.788C89.4351 110.29 89.8435 110.699 90.3461 110.699H94.6571C100.343 110.699 103.301 112.845 103.301 116.733V116.75C103.301 117.252 102.892 117.661 102.39 117.661H97.4989C88.6232 117.661 83.5172 121.317 83.5172 127.873C83.5172 133.443 87.1733 136.632 93.9612 136.632C99.1179 136.632 101.733 134.765 102.346 130.345C102.409 129.893 102.791 129.555 103.248 129.555H103.262C103.765 129.555 104.173 129.963 104.173 130.466V135.141C104.173 135.644 104.582 136.053 105.084 136.053H113.474C113.977 136.053 114.385 135.644 114.385 135.141V131.568C114.385 131.065 113.977 130.657 113.474 130.657H110.074C109.572 130.657 109.163 130.248 109.163 129.746V117.661H109.161ZM103.301 124.217C103.301 128.685 99.8187 131.7 94.8891 131.7C91.291 131.7 89.3771 130.135 89.3771 127.464C89.3771 124.098 92.2769 122.59 98.8908 122.59H102.39C102.892 122.59 103.301 122.999 103.301 123.501V124.217Z" fill="#191919"/>
<path d="M120.808 116.73C120.808 112.842 123.766 110.696 129.452 110.696H137.557C138.059 110.696 138.468 110.288 138.468 109.785V106.211C138.468 105.709 138.059 105.3 137.557 105.3H129.394C119.996 105.3 114.948 108.957 114.948 116.788V124.562C114.948 132.394 119.996 136.05 129.394 136.05H137.905C138.407 136.05 138.816 135.642 138.816 135.139V131.565C138.816 131.062 138.407 130.654 137.905 130.654H129.452C123.766 130.654 120.808 128.508 120.808 124.62V116.73Z" fill="#191919"/>
<path d="M79.6895 110.699H85.2184C85.721 110.699 86.1294 110.29 86.1294 109.788V106.214C86.1294 105.711 85.721 105.303 85.2184 105.303H79.6895C75.6201 105.303 73.1674 107.7 72.6261 112.393C72.573 112.85 72.1839 113.193 71.7248 113.193C71.2222 113.193 70.8138 112.784 70.8138 112.282V106.214C70.8138 105.711 70.4054 105.303 69.9028 105.303H61.0488C60.5462 105.303 60.1378 105.711 60.1378 106.214V109.788C60.1378 110.29 60.5462 110.699 61.0488 110.699H64.9128C65.4154 110.699 65.8238 111.107 65.8238 111.61V129.746C65.8238 130.248 65.4154 130.657 64.9128 130.657H59.8889C59.3863 130.657 58.9779 131.065 58.9779 131.568V135.141C58.9779 135.644 59.3863 136.053 59.8889 136.053H78.5465C79.0491 136.053 79.4575 135.644 79.4575 135.141V131.568C79.4575 131.065 79.0491 130.657 78.5465 130.657H72.8847C72.3821 130.657 71.9737 130.248 71.9737 129.746V122.825C71.9737 116.907 72.5536 110.699 79.6895 110.699Z" fill="#191919"/>
<path d="M56.8296 109.788V106.214C56.8296 105.711 56.4213 105.303 55.9186 105.303H43.295C42.7923 105.303 42.384 104.894 42.384 104.392V97.0168C42.384 96.5142 41.9756 96.1058 41.4729 96.1058H37.145C36.6424 96.1058 36.234 96.5142 36.234 97.0168V104.392C36.234 104.894 35.8257 105.303 35.323 105.303H29.4292C28.9266 105.303 28.5182 105.711 28.5182 106.214V109.788C28.5182 110.29 28.9266 110.699 29.4292 110.699H35.323C35.8257 110.699 36.234 111.107 36.234 111.61V124.449C36.234 132.802 40.0617 136.053 49.4618 136.053H55.9186C56.4213 136.053 56.8296 135.644 56.8296 135.141V131.568C56.8296 131.065 56.4213 130.657 55.9186 130.657H50.0418C44.4138 130.657 42.384 128.917 42.384 124.159V111.61C42.384 111.107 42.7923 110.699 43.295 110.699H55.9186C56.4213 110.699 56.8296 110.29 56.8296 109.788Z" fill="#191919"/>
</svg>
