<svg width="166" height="176" viewBox="0 0 166 176" fill="none" xmlns="http://www.w3.org/2000/svg">
<path d="M88.7754 92.2177C88.3332 92.2177 87.9224 91.9833 87.6976 91.6015L65.7174 54.3056C64.9586 53.0176 62.9868 53.9045 63.4507 55.3278L74.9048 90.5817C75.1682 91.3912 74.5641 92.2201 73.7159 92.2201H62.4721C61.9308 92.2201 61.4499 91.8721 61.2832 91.355L48.5943 52.3072C48.4275 51.7925 48.6112 51.227 49.0486 50.908L59.4346 43.3614C60.0338 42.9264 60.8772 43.1028 61.2493 43.7408L83.0822 81.0415C83.8385 82.3343 85.8152 81.4474 85.3512 80.0217L71.0457 35.9936C70.879 35.4789 71.0626 34.9134 71.5 34.5944L81.9005 27.0381C82.4926 26.608 83.3287 26.7771 83.708 27.403L104.739 62.2679C105.507 63.5414 107.46 62.6497 107 61.236L100.72 41.9043C100.345 40.7516 101.665 39.7923 102.646 40.5051L116.959 50.9056C117.396 51.2246 117.58 51.7901 117.413 52.3048L111.21 71.3949C110.879 72.4122 109.509 72.5717 108.953 71.6607L87.9248 37.238C87.1515 35.9718 85.2087 36.8659 85.6678 38.2771L102.663 90.5793C102.926 91.3888 102.322 92.2177 101.474 92.2177H88.7754Z" fill="#FF5733"/>
<path d="M108.494 117.661C108.494 109.191 103.794 105.303 94.0481 105.303H89.6791C89.1765 105.303 88.7681 105.711 88.7681 106.214V109.788C88.7681 110.29 89.1765 110.699 89.6791 110.699H93.9901C99.6761 110.699 102.634 112.845 102.634 116.733V116.75C102.634 117.252 102.225 117.661 101.723 117.661H96.8319C87.9562 117.661 82.8502 121.317 82.8502 127.873C82.8502 133.443 86.5063 136.632 93.2942 136.632C98.4509 136.632 101.066 134.765 101.679 130.345C101.742 129.893 102.124 129.555 102.581 129.555H102.595C103.098 129.555 103.506 129.963 103.506 130.466V135.141C103.506 135.644 103.915 136.053 104.417 136.053H112.807C113.31 136.053 113.718 135.644 113.718 135.141V131.568C113.718 131.065 113.31 130.657 112.807 130.657H109.407C108.905 130.657 108.496 130.248 108.496 129.746V117.661H108.494ZM102.634 124.217C102.634 128.685 99.1517 131.7 94.2221 131.7C90.624 131.7 88.7101 130.135 88.7101 127.464C88.7101 124.098 91.6099 122.59 98.2238 122.59H101.723C102.225 122.59 102.634 122.999 102.634 123.501V124.217Z" fill="#191919"/>
<path d="M120.141 116.73C120.141 112.842 123.099 110.696 128.785 110.696H136.89C137.392 110.696 137.801 110.288 137.801 109.785V106.211C137.801 105.709 137.392 105.3 136.89 105.3H128.727C119.329 105.3 114.281 108.957 114.281 116.788V124.562C114.281 132.394 119.329 136.05 128.727 136.05H137.238C137.74 136.05 138.149 135.642 138.149 135.139V131.565C138.149 131.062 137.74 130.654 137.238 130.654H128.785C123.099 130.654 120.141 128.508 120.141 124.62V116.73Z" fill="#191919"/>
<path d="M79.0225 110.699H84.5514C85.054 110.699 85.4624 110.29 85.4624 109.788V106.214C85.4624 105.711 85.054 105.303 84.5514 105.303H79.0225C74.9532 105.303 72.5004 107.7 71.9591 112.393C71.906 112.85 71.5169 113.193 71.0578 113.193C70.5552 113.193 70.1468 112.784 70.1468 112.282V106.214C70.1468 105.711 69.7384 105.303 69.2358 105.303H60.3818C59.8792 105.303 59.4708 105.711 59.4708 106.214V109.788C59.4708 110.29 59.8792 110.699 60.3818 110.699H64.2458C64.7484 110.699 65.1568 111.107 65.1568 111.61V129.746C65.1568 130.248 64.7484 130.657 64.2458 130.657H59.2219C58.7193 130.657 58.3109 131.065 58.3109 131.568V135.141C58.3109 135.644 58.7193 136.053 59.2219 136.053H77.8795C78.3821 136.053 78.7905 135.644 78.7905 135.141V131.568C78.7905 131.065 78.3821 130.657 77.8795 130.657H72.2177C71.7151 130.657 71.3067 130.248 71.3067 129.746V122.825C71.3067 116.907 71.8867 110.699 79.0225 110.699Z" fill="#191919"/>
<path d="M56.1627 109.788V106.214C56.1627 105.711 55.7543 105.303 55.2516 105.303H42.628C42.1254 105.303 41.717 104.894 41.717 104.392V97.0168C41.717 96.5142 41.3086 96.1058 40.806 96.1058H36.4781C35.9754 96.1058 35.567 96.5142 35.567 97.0168V104.392C35.567 104.894 35.1587 105.303 34.656 105.303H28.7623C28.2596 105.303 27.8512 105.711 27.8512 106.214V109.788C27.8512 110.29 28.2596 110.699 28.7623 110.699H34.656C35.1587 110.699 35.567 111.107 35.567 111.61V124.449C35.567 132.802 39.3947 136.053 48.7948 136.053H55.2516C55.7543 136.053 56.1627 135.644 56.1627 135.141V131.568C56.1627 131.065 55.7543 130.657 55.2516 130.657H49.3748C43.7468 130.657 41.717 128.917 41.717 124.159V111.61C41.717 111.107 42.1254 110.699 42.628 110.699H55.2516C55.7543 110.699 56.1627 110.29 56.1627 109.788Z" fill="#191919"/>
</svg>
