<svg width="100" height="79" viewBox="0 0 100 79" fill="none" xmlns="http://www.w3.org/2000/svg">
<path d="M75.0002 8.58506L88.8002 18.5851C90.1502 19.5351 90.8002 21.6351 90.3002 23.1851L84.9502 39.5851C84.4502 41.1351 82.9502 43.2851 81.7002 44.3351L52.3502 67.8351C51.0502 68.8851 48.9502 68.8851 47.6502 67.8351L18.2502 44.3351C16.9502 43.2851 15.5002 41.1851 15.0002 39.5851L9.70022 23.1851C9.20022 21.6351 9.85021 19.5351 11.2002 18.5851L22.5502 10.3351C23.9002 9.38506 26.0502 9.38506 27.4002 10.3351L43.1502 21.7851C44.5002 22.7351 46.5502 24.2851 47.8002 25.1351C49.0502 25.9851 51.0002 26.0351 52.2002 25.1351C53.4002 24.2351 55.5002 22.7351 56.8502 21.7851L75.0502 8.58506M77.4502 1.08506C76.1002 0.135059 73.9502 0.135059 72.6002 1.08506L52.4502 15.7351C51.1002 16.6851 48.9502 16.6851 47.6002 15.7351L27.4502 1.08506C26.1002 0.135059 23.9502 0.135059 22.6002 1.08506L2.45022 15.7351C1.10022 16.6851 0.450216 18.7851 0.950216 20.3351L8.65022 44.0351C9.15022 45.5851 10.6502 47.7351 11.9002 48.7851L47.7502 77.4351C49.0502 78.4851 51.1502 78.4851 52.4502 77.4351L88.2002 48.7851C89.5002 47.7351 90.9502 45.6351 91.4502 44.0351L99.1502 20.3351C99.6502 18.7851 99.0002 16.6851 97.6502 15.7351L77.5002 1.08506H77.4502Z" fill="#FF5733"/>
</svg>
