<svg width="860" height="698" viewBox="0 0 860 698" fill="none" xmlns="http://www.w3.org/2000/svg">
<rect width="860" height="697" transform="translate(0 0.359985)" fill="#131314"/>
<path d="M68.176 64.44H69.976L100.648 117.36H99.136L69.256 65.736H69.472V117.36H68.176V64.44ZM68.968 99.216H89.704L90.208 100.44H68.968V99.216ZM97.3428 64.44H98.9268L128.879 116.136L128.519 116.064V64.44H129.815V117.36H128.015L97.3428 64.44ZM136.734 64.44H138.534L169.206 117.36H167.694L137.814 65.736H138.03V117.36H136.734V64.44ZM137.526 99.216H158.262L158.766 100.44H137.526V99.216ZM171.012 64.44H172.308L202.692 114.768V64.44H203.988V117.36H202.692L172.308 66.816V117.36H171.012V64.44ZM223.876 64.44H225.172V117.36H223.876V64.44ZM209.188 64.44H239.788V65.664H209.188V64.44ZM244.984 64.44H246.28V117.36H244.984V64.44ZM277.153 118.512C272.545 118.512 268.225 117.36 264.193 115.056C260.209 112.752 257.017 109.512 254.617 105.336C252.217 101.112 251.017 96.288 251.017 90.864C251.017 85.44 252.217 80.64 254.617 76.464C257.017 72.288 260.209 69.048 264.193 66.744C268.225 64.44 272.545 63.288 277.153 63.288C281.761 63.288 286.057 64.44 290.041 66.744C294.025 69.048 297.217 72.288 299.617 76.464C302.017 80.64 303.217 85.44 303.217 90.864C303.217 96.288 302.017 101.112 299.617 105.336C297.217 109.512 294.025 112.752 290.041 115.056C286.057 117.36 281.761 118.512 277.153 118.512ZM281.473 98.856L282.409 98.064L300.409 119.448L299.473 120.24L281.473 98.856ZM277.153 117.072C281.521 117.12 285.577 116.064 289.321 113.904C293.113 111.696 296.137 108.6 298.393 104.616C300.649 100.632 301.777 96.048 301.777 90.864C301.777 85.728 300.649 81.168 298.393 77.184C296.137 73.2 293.113 70.128 289.321 67.968C285.577 65.76 281.521 64.68 277.153 64.728C272.833 64.68 268.777 65.76 264.985 67.968C261.193 70.128 258.145 73.2 255.841 77.184C253.585 81.168 252.457 85.728 252.457 90.864C252.457 96 253.585 100.584 255.841 104.616C258.145 108.6 261.193 111.696 264.985 113.904C268.777 116.064 272.833 117.12 277.153 117.072ZM325.123 118.512C321.283 118.512 318.067 117.888 315.475 116.64C312.883 115.392 310.939 113.664 309.643 111.456C308.395 109.248 307.771 106.656 307.771 103.68V64.44H309.067V103.32C309.067 107.64 310.411 111.024 313.099 113.472C315.835 115.92 319.819 117.144 325.051 117.144C330.235 117.144 334.171 115.92 336.859 113.472C339.547 111.024 340.891 107.64 340.891 103.32V64.44H342.187V103.68C342.187 106.656 341.563 109.248 340.315 111.456C339.115 113.664 337.243 115.392 334.699 116.64C332.155 117.888 328.963 118.512 325.123 118.512ZM348.875 64.44H350.171V117.36H348.875V64.44ZM349.523 116.136H377.603V117.36H349.523V116.136ZM349.523 89.136H376.883V90.36H349.523V89.136ZM349.523 64.44H377.243V65.664H349.523V64.44ZM409.299 64.44H410.595V117.36H409.299V64.44ZM394.611 64.44H425.211V65.664H394.611V64.44ZM465.686 64.44H466.982V117.36H465.686V64.44ZM430.406 64.44H431.702V117.36H430.406V64.44ZM431.054 89.136H466.334V90.36H431.054V89.136ZM473.896 64.44H475.192V117.36H473.896V64.44ZM482.089 64.44H483.385L513.769 114.768V64.44H515.065V117.36H513.769L483.385 66.816V117.36H482.089V64.44ZM68.032 150.44H71.848L103.096 203.36H99.352L70.048 153.176L71.128 154.04V203.36H68.032V150.44ZM69.112 184.64H90.568L92.08 187.592H69.112V184.64ZM95.9365 150.44H99.8245L129.417 200.696L127.905 199.76V150.44H131.001V203.36H127.113L95.9365 150.44ZM137.574 150.44H141.39L172.638 203.36H168.894L139.59 153.176L140.67 154.04V203.36H137.574V150.44ZM138.654 184.64H160.11L161.622 187.592H138.654V184.64ZM174.384 150.44H177.408L205.92 197.456V150.44H208.944V203.36H205.848L177.336 156.056V203.36H174.384V150.44ZM228.153 150.44H231.249V203.36H228.153V150.44ZM213.969 150.44H245.361V153.392H213.969V150.44ZM250.465 150.44H253.561V203.36H250.465V150.44ZM284.398 204.512C279.79 204.512 275.47 203.36 271.438 201.056C267.454 198.752 264.262 195.512 261.862 191.336C259.462 187.112 258.262 182.288 258.262 176.864C258.262 171.44 259.462 166.64 261.862 162.464C264.262 158.288 267.454 155.048 271.438 152.744C275.47 150.44 279.79 149.288 284.398 149.288C289.006 149.288 293.302 150.44 297.286 152.744C301.27 155.048 304.462 158.288 306.862 162.464C309.262 166.64 310.462 171.44 310.462 176.864C310.462 182.288 309.262 187.112 306.862 191.336C304.462 195.512 301.27 198.752 297.286 201.056C293.302 203.36 289.006 204.512 284.398 204.512ZM287.566 185.072L289.87 183.128L307.87 204.512L305.494 206.456L287.566 185.072ZM284.398 201.2C288.43 201.248 292.198 200.264 295.702 198.248C299.206 196.184 301.99 193.304 304.054 189.608C306.166 185.912 307.222 181.664 307.222 176.864C307.222 172.112 306.166 167.888 304.054 164.192C301.99 160.496 299.206 157.64 295.702 155.624C292.198 153.608 288.43 152.624 284.398 152.672C280.366 152.624 276.598 153.608 273.094 155.624C269.59 157.64 266.782 160.496 264.67 164.192C262.558 167.888 261.502 172.112 261.502 176.864C261.502 181.616 262.558 185.864 264.67 189.608C266.782 193.304 269.59 196.184 273.094 198.248C276.598 200.264 280.366 201.248 284.398 201.2ZM333.083 204.512C329.339 204.512 326.099 203.888 323.363 202.64C320.627 201.344 318.539 199.544 317.099 197.24C315.659 194.936 314.939 192.224 314.939 189.104V150.44H318.035V188.24C318.035 192.272 319.307 195.44 321.851 197.744C324.443 200.048 328.163 201.2 333.011 201.2C337.859 201.2 341.555 200.072 344.099 197.816C346.643 195.512 347.915 192.32 347.915 188.24V150.44H351.083V189.104C351.083 192.224 350.363 194.936 348.923 197.24C347.531 199.544 345.491 201.344 342.803 202.64C340.115 203.888 336.875 204.512 333.083 204.512ZM357.45 150.44H360.546V203.36H357.45V150.44ZM358.962 200.408H386.682V203.36H358.962V200.408ZM358.962 174.272H385.962V177.224H358.962V174.272ZM358.962 150.44H386.322V153.392H358.962V150.44ZM405.195 150.44H408.291V203.36H405.195V150.44ZM406.707 200.408H434.427V203.36H406.707V200.408ZM406.707 174.272H433.707V177.224H406.707V174.272ZM406.707 150.44H434.067V153.392H406.707V150.44ZM453.789 175.928V175.784L438.741 150.44H442.125L456.237 173.984H456.093L470.133 150.44H473.517L458.469 175.784V175.928L473.877 203.36H470.493L456.093 177.656H456.237L441.765 203.36H438.381L453.789 175.928ZM491.485 150.44H494.581V203.36H491.485V150.44ZM477.301 150.44H508.693V153.392H477.301V150.44ZM515.164 177.224H531.22C535.732 177.224 539.14 176.24 541.444 174.272C543.748 172.304 544.9 169.52 544.9 165.92C544.9 162.08 543.676 159.056 541.228 156.848C538.828 154.64 535.684 153.536 531.796 153.536H515.308V150.44H531.58C534.892 150.44 537.796 151.064 540.292 152.312C542.788 153.56 544.708 155.336 546.052 157.64C547.444 159.944 548.14 162.656 548.14 165.776C548.14 168.8 547.492 171.416 546.196 173.624C544.9 175.784 543.004 177.464 540.508 178.664C538.06 179.816 535.108 180.392 531.652 180.392H515.164V177.224ZM513.796 150.44H516.892V203.36H513.796V150.44ZM530.644 178.808H534.172L549.652 203.36H546.196L530.644 178.808ZM554.192 150.44H558.008L589.256 203.36H585.512L556.208 153.176L557.288 154.04V203.36H554.192V150.44ZM555.272 184.64H576.728L578.24 187.592H555.272V184.64ZM591.002 150.44H594.098V203.36H591.002V150.44ZM592.514 200.408H620.378V203.36H592.514V200.408ZM625.211 150.44H628.307V203.36H625.211V150.44ZM657.632 204.512C653.168 204.512 649.04 203.36 645.248 201.056C641.504 198.752 638.528 195.512 636.32 191.336C634.112 187.16 633.008 182.336 633.008 176.864C633.008 171.44 634.088 166.64 636.248 162.464C638.456 158.24 641.408 155 645.104 152.744C648.848 150.44 652.904 149.288 657.272 149.288C660.92 149.288 664.352 150.08 667.568 151.664C670.832 153.248 673.448 155.48 675.416 158.36L673.04 160.736C671.264 158.144 669.008 156.152 666.272 154.76C663.536 153.32 660.536 152.6 657.272 152.6C653.528 152.6 650.024 153.608 646.76 155.624C643.544 157.592 640.976 160.424 639.056 164.12C637.184 167.768 636.248 171.968 636.248 176.72C636.248 181.52 637.208 185.792 639.128 189.536C641.096 193.232 643.712 196.112 646.976 198.176C650.24 200.192 653.768 201.2 657.56 201.2C660.872 201.2 663.944 200.504 666.776 199.112C669.608 197.72 671.912 195.464 673.688 192.344C675.512 189.224 676.472 185.24 676.568 180.392H651.8V177.512H679.736V179.24C679.736 185.432 678.608 190.4 676.352 194.144C674.144 197.888 671.36 200.552 668 202.136C664.688 203.72 661.232 204.512 657.632 204.512ZM719.837 150.44H722.933V203.36H719.837V150.44ZM684.557 150.44H687.653V203.36H684.557V150.44ZM686.069 174.272H721.349V177.224H686.069V174.272ZM742.124 150.44H745.22V203.36H742.124V150.44ZM727.94 150.44H759.332V153.392H727.94V150.44ZM67.888 236.44H73.792L105.544 289.36H99.568L70.84 240.616L72.784 242.344V289.36H67.888V236.44ZM69.256 270.136H91.504L93.952 274.744H69.256V270.136ZM94.3879 236.44H100.652L129.884 285.184L127.148 283.456V236.44H132.044V289.36H126.14L94.3879 236.44ZM138.414 236.44H144.318L176.07 289.36H170.094L141.366 240.616L143.31 242.344V289.36H138.414V236.44ZM139.782 270.136H162.03L164.478 274.744H139.782V270.136ZM177.756 236.44H182.508L209.148 280.216V236.44H213.828V289.36H209.076L182.364 245.224V289.36H177.756V236.44ZM232.36 236.44H237.256V289.36H232.36V236.44ZM218.752 236.44H250.864V241.12H218.752V236.44ZM255.805 236.44H260.701V289.36H255.805V236.44ZM291.501 290.512C286.893 290.512 282.573 289.36 278.541 287.056C274.557 284.752 271.365 281.512 268.965 277.336C266.565 273.112 265.365 268.288 265.365 262.864C265.365 257.44 266.565 252.64 268.965 248.464C271.365 244.288 274.557 241.048 278.541 238.744C282.573 236.44 286.893 235.288 291.501 235.288C296.109 235.288 300.405 236.44 304.389 238.744C308.373 241.048 311.565 244.288 313.965 248.464C316.365 252.64 317.565 257.44 317.565 262.864C317.565 268.288 316.365 273.112 313.965 277.336C311.565 281.512 308.373 284.752 304.389 287.056C300.405 289.36 296.109 290.512 291.501 290.512ZM293.589 271.288L297.261 268.192L315.189 289.504L311.445 292.6L293.589 271.288ZM291.501 285.328C295.245 285.376 298.725 284.464 301.941 282.592C305.205 280.672 307.797 278.008 309.717 274.6C311.685 271.192 312.669 267.28 312.669 262.864C312.669 258.496 311.685 254.608 309.717 251.2C307.797 247.792 305.205 245.176 301.941 243.352C298.725 241.48 295.245 240.544 291.501 240.544C287.805 240.544 284.325 241.48 281.061 243.352C277.845 245.176 275.253 247.792 273.285 251.2C271.365 254.608 270.405 258.496 270.405 262.864C270.405 267.232 271.365 271.144 273.285 274.6C275.253 278.008 277.845 280.672 281.061 282.592C284.325 284.464 287.805 285.376 291.501 285.328ZM340.973 290.512C337.277 290.512 333.989 289.864 331.109 288.568C328.277 287.224 326.045 285.376 324.413 283.024C322.829 280.624 322.037 277.792 322.037 274.528V236.44H326.933V273.232C326.933 276.976 328.133 279.928 330.533 282.088C332.981 284.2 336.437 285.256 340.901 285.256C345.413 285.256 348.869 284.2 351.269 282.088C353.717 279.928 354.941 276.976 354.941 273.232V236.44H359.837V274.528C359.837 277.792 359.045 280.624 357.461 283.024C355.877 285.424 353.669 287.272 350.837 288.568C348.005 289.864 344.717 290.512 340.973 290.512ZM365.954 236.44H370.85V289.36H365.954V236.44ZM368.402 284.68H395.762V289.36H368.402V284.68ZM368.402 259.408H395.042V264.088H368.402V259.408ZM368.258 236.44H395.402V241.12H368.258V236.44ZM413.98 236.44H418.876V289.36H413.98V236.44ZM416.428 284.68H444.004V289.36H416.428V284.68ZM448.681 236.44H453.577V289.36H448.681V236.44ZM483.081 290.512C478.569 290.512 474.417 289.36 470.625 287.056C466.833 284.752 463.809 281.512 461.553 277.336C459.345 273.16 458.241 268.336 458.241 262.864C458.241 257.44 459.345 252.64 461.553 248.464C463.809 244.24 466.809 241 470.553 238.744C474.297 236.44 478.353 235.288 482.721 235.288C486.417 235.288 489.897 236.104 493.161 237.736C496.473 239.32 499.113 241.576 501.081 244.504L497.409 248.176C495.729 245.776 493.617 243.904 491.073 242.56C488.529 241.216 485.745 240.544 482.721 240.544C479.265 240.544 476.049 241.48 473.073 243.352C470.097 245.176 467.721 247.768 465.945 251.128C464.169 254.488 463.281 258.352 463.281 262.72C463.281 267.184 464.193 271.12 466.017 274.528C467.841 277.936 470.265 280.6 473.289 282.52C476.361 284.392 479.649 285.328 483.153 285.328C486.177 285.328 488.985 284.704 491.577 283.456C494.169 282.208 496.281 280.24 497.913 277.552C499.545 274.816 500.433 271.36 500.577 267.184H477.465V262.792H505.545V265.024C505.545 271.216 504.417 276.232 502.161 280.072C499.905 283.864 497.073 286.552 493.665 288.136C490.257 289.72 486.729 290.512 483.081 290.512ZM545.487 236.44H550.383V289.36H545.487V236.44ZM510.207 236.44H515.103V289.36H510.207V236.44ZM512.655 259.408H547.935V264.088H512.655V259.408ZM568.89 236.44H573.786V289.36H568.89V236.44ZM555.282 236.44H587.394V241.12H555.282V236.44ZM67.744 322.44H75.664L107.992 375.36H99.784L71.632 328.056L74.44 330.648V375.36H67.744V322.44ZM69.4 355.56H92.368L95.896 361.896H69.4V355.56ZM92.9817 322.44H101.55L130.422 369.744L126.534 367.08V322.44H133.23V375.36H125.31L92.9817 322.44ZM139.255 322.44H147.175L179.503 375.36H171.295L143.143 328.056L145.951 330.648V375.36H139.255V322.44ZM140.911 355.56H163.879L167.407 361.896H140.911V355.56ZM181.127 322.44H187.607L212.447 362.904V322.44H218.783V375.36H212.303L187.463 334.392V375.36H181.127V322.44ZM236.709 322.44H243.405V375.36H236.709V322.44ZM223.533 322.44H256.509V328.776H223.533V322.44ZM261.286 322.44H267.982V375.36H261.286V322.44ZM298.747 376.512C294.139 376.512 289.819 375.36 285.787 373.056C281.803 370.752 278.611 367.512 276.211 363.336C273.811 359.112 272.611 354.288 272.611 348.864C272.611 343.44 273.811 338.64 276.211 334.464C278.611 330.288 281.803 327.048 285.787 324.744C289.819 322.44 294.139 321.288 298.747 321.288C303.355 321.288 307.651 322.44 311.635 324.744C315.619 327.048 318.811 330.288 321.211 334.464C323.611 338.64 324.811 343.44 324.811 348.864C324.811 354.288 323.611 359.112 321.211 363.336C318.811 367.512 315.619 370.752 311.635 373.056C307.651 375.36 303.355 376.512 298.747 376.512ZM299.683 357.504L304.723 353.184L322.651 374.568L317.539 378.816L299.683 357.504ZM298.747 369.456C302.155 369.456 305.347 368.592 308.323 366.864C311.299 365.136 313.675 362.712 315.451 359.592C317.227 356.472 318.115 352.896 318.115 348.864C318.115 344.88 317.227 341.328 315.451 338.208C313.675 335.088 311.299 332.688 308.323 331.008C305.347 329.28 302.155 328.44 298.747 328.488C295.387 328.44 292.219 329.28 289.243 331.008C286.267 332.688 283.891 335.088 282.115 338.208C280.339 341.328 279.451 344.88 279.451 348.864C279.451 352.848 280.339 356.424 282.115 359.592C283.891 362.712 286.267 365.136 289.243 366.864C292.219 368.592 295.387 369.456 298.747 369.456ZM348.934 376.512C345.334 376.512 342.022 375.84 338.998 374.496C336.022 373.152 333.646 371.232 331.87 368.736C330.142 366.24 329.278 363.312 329.278 359.952V322.44H335.974V358.152C335.974 361.608 337.102 364.344 339.358 366.36C341.614 368.328 344.806 369.312 348.934 369.312C353.062 369.312 356.278 368.328 358.582 366.36C360.886 364.392 362.038 361.656 362.038 358.152V322.44H368.734V359.952C368.734 363.36 367.846 366.312 366.07 368.808C364.342 371.256 361.966 373.152 358.942 374.496C355.966 375.84 352.63 376.512 348.934 376.512ZM374.599 322.44H381.295V375.36H374.599V322.44ZM377.911 368.952H404.911V375.36H377.911V368.952ZM377.911 344.544H404.191V350.952H377.911V344.544ZM377.767 322.44H404.551V328.776H377.767V322.44ZM425.931 347.352H442.419C445.827 347.352 448.443 346.56 450.267 344.976C452.091 343.392 453.003 341.256 453.003 338.568C453.003 335.64 452.043 333.312 450.123 331.584C448.203 329.808 445.755 328.92 442.779 328.92H426.291V322.44H442.779C446.235 322.44 449.235 323.112 451.779 324.456C454.371 325.8 456.363 327.672 457.755 330.072C459.147 332.472 459.843 335.256 459.843 338.424C459.843 341.496 459.171 344.208 457.827 346.56C456.483 348.864 454.539 350.664 451.995 351.96C449.451 353.208 446.403 353.832 442.851 353.832H425.931V347.352ZM422.907 322.44H429.603V375.36H422.907V322.44ZM438.747 350.664H446.307L462.003 375.36H454.515L438.747 350.664ZM465.974 322.44H472.67V375.36H465.974V322.44ZM469.286 368.952H496.286V375.36H469.286V368.952ZM469.286 344.544H495.566V350.952H469.286V344.544ZM469.142 322.44H495.926V328.776H469.142V322.44ZM524.996 376.512C520.436 376.512 516.236 375.36 512.396 373.056C508.604 370.752 505.58 367.512 503.324 363.336C501.068 359.16 499.94 354.36 499.94 348.936C499.94 343.464 501.068 338.64 503.324 334.464C505.58 330.24 508.604 327 512.396 324.744C516.188 322.44 520.268 321.288 524.636 321.288C528.38 321.288 531.908 322.104 535.22 323.736C538.58 325.368 541.244 327.672 543.212 330.648L538.244 335.616C536.66 333.408 534.692 331.656 532.34 330.36C529.988 329.064 527.42 328.416 524.636 328.416C521.468 328.416 518.516 329.28 515.78 331.008C513.044 332.688 510.86 335.064 509.228 338.136C507.596 341.208 506.78 344.736 506.78 348.72C506.78 352.8 507.62 356.4 509.3 359.52C510.98 362.64 513.236 365.064 516.068 366.792C518.9 368.52 521.948 369.384 525.212 369.384C527.948 369.384 530.468 368.832 532.772 367.728C535.124 366.624 537.02 364.92 538.46 362.616C539.948 360.312 540.788 357.432 540.98 353.976H519.524V348H547.82V350.736C547.82 357.024 546.668 362.088 544.364 365.928C542.06 369.768 539.18 372.504 535.724 374.136C532.268 375.72 528.692 376.512 524.996 376.512ZM571.692 376.512C568.092 376.512 564.78 375.84 561.756 374.496C558.78 373.152 556.404 371.232 554.628 368.736C552.9 366.24 552.036 363.312 552.036 359.952V322.44H558.732V358.152C558.732 361.608 559.86 364.344 562.116 366.36C564.372 368.328 567.564 369.312 571.692 369.312C575.82 369.312 579.036 368.328 581.34 366.36C583.644 364.392 584.796 361.656 584.796 358.152V322.44H591.492V359.952C591.492 363.36 590.604 366.312 588.828 368.808C587.1 371.256 584.724 373.152 581.7 374.496C578.724 375.84 575.388 376.512 571.692 376.512ZM597.357 322.44H604.053V375.36H597.357V322.44ZM600.669 368.952H628.029V375.36H600.669V368.952ZM632.48 322.44H640.4L672.728 375.36H664.52L636.368 328.056L639.176 330.648V375.36H632.48V322.44ZM634.136 355.56H657.104L660.632 361.896H634.136V355.56ZM677.376 347.352H693.864C697.272 347.352 699.888 346.56 701.712 344.976C703.536 343.392 704.448 341.256 704.448 338.568C704.448 335.64 703.488 333.312 701.568 331.584C699.648 329.808 697.2 328.92 694.224 328.92H677.736V322.44H694.224C697.68 322.44 700.68 323.112 703.224 324.456C705.816 325.8 707.808 327.672 709.2 330.072C710.592 332.472 711.288 335.256 711.288 338.424C711.288 341.496 710.616 344.208 709.272 346.56C707.928 348.864 705.984 350.664 703.44 351.96C700.896 353.208 697.848 353.832 694.296 353.832H677.376V347.352ZM674.352 322.44H681.048V375.36H674.352V322.44ZM690.192 350.664H697.752L713.448 375.36H705.96L690.192 350.664ZM67.528 408.44H77.536L110.368 461.36H99.928L72.352 415.568L76.024 419.024V461.36H67.528V408.44ZM69.544 440.984H93.232L97.768 449.12H69.544V440.984ZM91.5754 408.44H102.375L130.959 454.304L125.919 450.776V408.44H134.415V461.36H124.407L91.5754 408.44ZM140.023 408.44H150.031L182.863 461.36H172.423L144.847 415.568L148.519 419.024V461.36H140.023V408.44ZM142.039 440.984H165.727L170.263 449.12H142.039V440.984ZM184.427 408.44H192.635L215.675 445.664V408.44H223.667V461.36H215.459L192.491 423.632V461.36H184.427V408.44ZM240.987 408.44H249.483V461.36H240.987V408.44ZM228.315 408.44H262.083V416.504H228.315V408.44ZM266.695 408.44H275.191V461.36H266.695V408.44ZM305.921 462.512C301.313 462.512 296.993 461.36 292.961 459.056C288.977 456.752 285.785 453.512 283.385 449.336C281.033 445.112 279.857 440.288 279.857 434.864C279.857 429.488 281.057 424.712 283.457 420.536C285.857 416.312 289.049 413.048 293.033 410.744C297.017 408.44 301.313 407.288 305.921 407.288C310.529 407.288 314.825 408.44 318.809 410.744C322.793 413.048 325.985 416.312 328.385 420.536C330.785 424.712 331.985 429.488 331.985 434.864C331.985 440.288 330.785 445.112 328.385 449.336C325.985 453.512 322.793 456.752 318.809 459.056C314.825 461.36 310.529 462.512 305.921 462.512ZM305.705 443.792L312.185 438.248L330.041 459.632L323.561 465.032L305.705 443.792ZM305.921 453.584C308.993 453.584 311.873 452.816 314.561 451.28C317.297 449.696 319.481 447.488 321.113 444.656C322.745 441.776 323.561 438.512 323.561 434.864C323.561 431.264 322.745 428.072 321.113 425.288C319.529 422.456 317.369 420.272 314.633 418.736C311.897 417.152 308.993 416.384 305.921 416.432C302.897 416.384 300.041 417.152 297.353 418.736C294.665 420.272 292.505 422.456 290.873 425.288C289.289 428.072 288.497 431.264 288.497 434.864C288.497 438.512 289.289 441.776 290.873 444.656C292.505 447.488 294.665 449.696 297.353 451.28C300.041 452.816 302.897 453.584 305.921 453.584ZM356.965 462.512C353.413 462.512 350.053 461.84 346.885 460.496C343.765 459.104 341.245 457.112 339.325 454.52C337.453 451.928 336.517 448.904 336.517 445.448V408.44H345.013V443.144C345.013 446.312 346.045 448.832 348.109 450.704C350.221 452.528 353.173 453.44 356.965 453.44C360.757 453.44 363.733 452.528 365.893 450.704C368.053 448.88 369.133 446.36 369.133 443.144V408.44H377.629V445.448C377.629 448.952 376.669 452 374.749 454.592C372.829 457.136 370.285 459.104 367.117 460.496C363.949 461.84 360.565 462.512 356.965 462.512ZM383.172 408.44H391.668V461.36H383.172V408.44ZM387.42 453.296H414.06V461.36H387.42V453.296ZM387.42 429.752H413.34V437.816H387.42V429.752ZM387.204 408.44H413.7V416.504H387.204V408.44ZM460.993 408.44H469.561V451.784L463.513 456.464L484.897 408.44H494.905V461.36H486.409L486.265 422.048L487.345 422.48L469.921 461.36H461.569V419.888L464.449 420.032L439.105 461.36H428.161L460.993 408.44ZM500.493 408.44H508.989V461.36H500.493V408.44ZM504.741 453.296H531.381V461.36H504.741V453.296ZM504.741 429.752H530.661V437.816H504.741V429.752ZM504.525 408.44H531.021V416.504H504.525V408.44ZM542.299 452.216H555.331C558.931 452.216 562.027 451.52 564.619 450.128C567.259 448.688 569.275 446.672 570.667 444.08C572.059 441.44 572.755 438.368 572.755 434.864C572.755 431.408 572.059 428.384 570.667 425.792C569.275 423.152 567.259 421.136 564.619 419.744C562.027 418.304 558.931 417.584 555.331 417.584H542.803V408.44H555.475C560.563 408.44 565.075 409.544 569.011 411.752C572.947 413.912 575.995 417.008 578.155 421.04C580.315 425.024 581.395 429.632 581.395 434.864C581.395 440.144 580.315 444.776 578.155 448.76C575.995 452.744 572.947 455.84 569.011 458.048C565.075 460.256 560.563 461.36 555.475 461.36H542.299V452.216ZM536.107 408.44H544.603V461.36H536.107V408.44ZM585.996 408.44H594.492V461.36H585.996V408.44ZM620.541 462.512C616.989 462.512 613.629 461.84 610.461 460.496C607.341 459.104 604.821 457.112 602.901 454.52C601.029 451.928 600.093 448.904 600.093 445.448V408.44H608.589V443.144C608.589 446.312 609.621 448.832 611.685 450.704C613.797 452.528 616.749 453.44 620.541 453.44C624.333 453.44 627.309 452.528 629.469 450.704C631.629 448.88 632.709 446.36 632.709 443.144V408.44H641.205V445.448C641.205 448.952 640.245 452 638.325 454.592C636.405 457.136 633.861 459.104 630.693 460.496C627.525 461.84 624.141 462.512 620.541 462.512ZM673.098 408.44H681.666V451.784L675.618 456.464L697.002 408.44H707.01V461.36H698.514L698.37 422.048L699.45 422.48L682.026 461.36H673.674V419.888L676.554 420.032L651.21 461.36H640.266L673.098 408.44ZM67.384 494.44H79.48L112.816 547.36H100.144L73.144 503.008L77.68 507.328V547.36H67.384V494.44ZM69.688 526.48H94.168L99.64 536.272H69.688V526.48ZM90.0269 494.44H103.203L131.427 538.792L125.163 534.472V494.44H135.459V547.36H123.435L90.0269 494.44ZM140.793 494.44H152.889L186.225 547.36H173.553L146.553 503.008L151.089 507.328V547.36H140.793V494.44ZM143.097 526.48H167.577L173.049 536.272H143.097V526.48ZM187.728 494.44H197.664L218.832 528.424V494.44H228.48V547.36H218.616L197.448 512.8V547.36H187.728V494.44ZM245.194 494.44H255.49V547.36H245.194V494.44ZM233.098 494.44H267.586V504.232H233.098V494.44ZM272.106 494.44H282.402V547.36H272.106V494.44ZM313.024 548.512C308.416 548.512 304.12 547.36 300.136 545.056C296.152 542.752 292.96 539.512 290.56 535.336C288.16 531.112 286.96 526.288 286.96 520.864C286.96 515.488 288.16 510.712 290.56 506.536C292.96 502.312 296.152 499.048 300.136 496.744C304.168 494.44 308.488 493.288 313.096 493.288C317.656 493.288 321.928 494.44 325.912 496.744C329.896 499.048 333.088 502.312 335.488 506.536C337.888 510.712 339.088 515.488 339.088 520.864C339.088 526.288 337.888 531.112 335.488 535.336C333.088 539.512 329.896 542.752 325.912 545.056C321.928 547.36 317.632 548.512 313.024 548.512ZM311.728 530.008L319.576 523.312L337.36 544.624L329.512 551.176L311.728 530.008ZM313.024 537.712C315.808 537.712 318.424 537.016 320.872 535.624C323.32 534.184 325.288 532.192 326.776 529.648C328.264 527.056 329.008 524.128 329.008 520.864C329.008 517.648 328.264 514.792 326.776 512.296C325.288 509.752 323.32 507.784 320.872 506.392C318.424 505 315.808 504.304 313.024 504.304C310.336 504.304 307.792 505 305.392 506.392C302.992 507.784 301.048 509.752 299.56 512.296C298.12 514.792 297.4 517.648 297.4 520.864C297.4 524.128 298.12 527.056 299.56 529.648C301 532.192 302.92 534.184 305.32 535.624C307.768 537.016 310.336 537.712 313.024 537.712ZM364.855 548.512C361.351 548.512 357.967 547.816 354.703 546.424C351.439 544.984 348.775 542.944 346.711 540.304C344.647 537.616 343.615 534.472 343.615 530.872V494.44H353.911V528.136C353.911 531.016 354.871 533.296 356.791 534.976C358.759 536.656 361.447 537.496 364.855 537.496C368.311 537.496 371.047 536.656 373.063 534.976C375.127 533.296 376.159 531.016 376.159 528.136V494.44H386.383V530.872C386.383 534.52 385.327 537.688 383.215 540.376C381.151 543.016 378.463 545.032 375.151 546.424C371.839 547.816 368.407 548.512 364.855 548.512ZM391.677 494.44H401.973V547.36H391.677V494.44ZM396.861 537.568H423.141V547.36H396.861V537.568ZM396.861 514.888H422.421V524.68H396.861V514.888ZM396.501 494.44H422.781V504.232H396.501V494.44ZM458.691 548.512C454.419 548.512 450.603 547.72 447.243 546.136C443.931 544.504 441.267 542.344 439.251 539.656L446.091 532.096C446.763 532.912 447.819 533.8 449.259 534.76C450.747 535.672 452.403 536.44 454.227 537.064C456.051 537.688 457.851 538 459.627 538C461.067 538 462.411 537.784 463.659 537.352C464.907 536.92 465.867 536.296 466.539 535.48C467.259 534.616 467.619 533.632 467.619 532.528C467.619 531.376 467.211 530.392 466.395 529.576C465.627 528.712 464.619 528.016 463.371 527.488C462.171 526.912 460.467 526.216 458.259 525.4C454.947 524.152 452.211 522.952 450.051 521.8C447.939 520.6 446.091 518.968 444.507 516.904C442.923 514.792 442.131 512.152 442.131 508.984C442.131 505.768 442.947 502.96 444.579 500.56C446.259 498.16 448.419 496.36 451.059 495.16C453.747 493.912 456.555 493.288 459.483 493.288C463.083 493.288 466.587 494.176 469.995 495.952C473.403 497.728 476.115 500.08 478.131 503.008L470.715 509.344C469.563 507.856 467.931 506.56 465.819 505.456C463.707 504.352 461.499 503.8 459.195 503.8C457.803 503.8 456.627 504.016 455.667 504.448C454.707 504.88 453.963 505.456 453.435 506.176C452.955 506.896 452.715 507.664 452.715 508.48C452.715 509.44 453.075 510.304 453.795 511.072C454.563 511.84 455.499 512.488 456.603 513.016C457.707 513.544 459.315 514.264 461.427 515.176C464.835 516.568 467.619 517.888 469.779 519.136C471.987 520.336 473.883 522.04 475.467 524.248C477.051 526.408 477.843 529.096 477.843 532.312C477.843 535.336 477.099 538.096 475.611 540.592C474.123 543.04 471.915 544.984 468.987 546.424C466.107 547.816 462.675 548.512 458.691 548.512ZM482.419 494.44H492.715V547.36H482.419V494.44ZM487.603 537.568H513.883V547.36H487.603V537.568ZM487.603 514.888H513.163V524.68H487.603V514.888ZM487.243 494.44H513.523V504.232H487.243V494.44ZM548.483 494.44H558.707V535.624L551.363 541.456L572.243 494.44H584.339V547.36H574.043L573.971 510.928L575.195 511.432L559.067 547.36H548.987V508.48L552.515 508.696L528.395 547.36H515.075L548.483 494.44ZM589.719 494.44H600.015V547.36H589.719V494.44ZM614.149 537.568H626.317C629.245 537.568 631.453 537.088 632.941 536.128C634.477 535.12 635.245 533.536 635.245 531.376C635.245 529.312 634.525 527.776 633.085 526.768C631.645 525.712 629.653 525.184 627.109 525.184H612.349V515.176H626.749C628.909 515.176 630.469 514.768 631.429 513.952C632.437 513.088 632.941 511.816 632.941 510.136C632.941 508.168 632.269 506.704 630.925 505.744C629.629 504.736 627.829 504.232 625.525 504.232H612.349V494.44H626.101C629.557 494.44 632.581 495.04 635.173 496.24C637.765 497.392 639.757 499.024 641.149 501.136C642.589 503.248 643.309 505.696 643.309 508.48C643.309 510.832 642.805 512.896 641.797 514.672C640.837 516.4 639.637 517.72 638.197 518.632C636.805 519.544 635.557 520 634.453 520L634.309 519.352C636.133 519.352 637.909 519.88 639.637 520.936C641.365 521.944 642.781 523.456 643.885 525.472C645.037 527.488 645.613 529.888 645.613 532.672C645.613 535.36 645.037 537.808 643.885 540.016C642.733 542.224 641.005 544 638.701 545.344C636.397 546.688 633.565 547.36 630.205 547.36H614.149V537.568ZM605.365 494.44H615.661V547.36H605.365V494.44ZM675.462 548.512C670.854 548.512 666.558 547.36 662.574 545.056C658.59 542.752 655.398 539.512 652.998 535.336C650.598 531.112 649.398 526.288 649.398 520.864C649.398 515.488 650.598 510.712 652.998 506.536C655.398 502.312 658.59 499.048 662.574 496.744C666.606 494.44 670.926 493.288 675.534 493.288C680.094 493.288 684.366 494.44 688.35 496.744C692.334 499.048 695.526 502.312 697.926 506.536C700.326 510.712 701.526 515.488 701.526 520.864C701.526 526.288 700.326 531.112 697.926 535.336C695.526 539.512 692.334 542.752 688.35 545.056C684.366 547.36 680.07 548.512 675.462 548.512ZM675.462 537.424C678.246 537.424 680.838 536.752 683.238 535.408C685.638 534.016 687.558 532.072 688.998 529.576C690.438 527.032 691.158 524.128 691.158 520.864C691.158 517.6 690.438 514.72 688.998 512.224C687.558 509.728 685.638 507.784 683.238 506.392C680.838 505 678.246 504.304 675.462 504.304C672.774 504.304 670.23 505 667.83 506.392C665.43 507.784 663.486 509.752 661.998 512.296C660.558 514.792 659.838 517.648 659.838 520.864C659.838 524.128 660.558 527.008 661.998 529.504C663.438 532 665.358 533.944 667.758 535.336C670.206 536.728 672.774 537.424 675.462 537.424ZM706.125 494.44H716.421V547.36H706.125V494.44ZM711.309 537.568H738.165V547.36H711.309V537.568ZM749.722 536.272H762.97C766.138 536.272 768.898 535.624 771.25 534.328C773.65 533.032 775.474 531.232 776.722 528.928C777.97 526.576 778.594 523.888 778.594 520.864C778.594 517.84 777.97 515.176 776.722 512.872C775.474 510.52 773.65 508.696 771.25 507.4C768.898 506.104 766.138 505.456 762.97 505.456H750.298V494.44H763.042C768.082 494.44 772.57 495.568 776.506 497.824C780.442 500.032 783.514 503.128 785.722 507.112C787.93 511.096 789.034 515.68 789.034 520.864C789.034 526.096 787.93 530.704 785.722 534.688C783.514 538.672 780.442 541.792 776.506 544.048C772.57 546.256 768.082 547.36 763.042 547.36H749.722V536.272ZM742.162 494.44H752.458V547.36H742.162V494.44ZM67.24 580.44H81.352L115.264 633.36H100.36L73.936 590.448L79.336 595.632V633.36H67.24V580.44ZM69.832 611.904H95.032L101.512 623.424H69.832V611.904ZM88.6206 580.44H104.101L131.965 623.352L124.549 618.168V580.44H136.645V633.36H122.533L88.6206 580.44ZM141.704 580.44H155.816L189.728 633.36H174.824L148.4 590.448L153.8 595.632V633.36H141.704V580.44ZM144.296 611.904H169.496L175.976 623.424H144.296V611.904ZM191.17 580.44H202.834L222.13 611.112V580.44H233.506V633.36H221.842L202.546 602.04V633.36H191.17V580.44ZM249.471 580.44H261.567V633.36H249.471V580.44ZM237.879 580.44H273.159V591.96H237.879V580.44ZM277.517 580.44H289.613V633.36H277.517V580.44ZM320.199 634.512C315.591 634.512 311.295 633.36 307.311 631.056C303.327 628.752 300.135 625.512 297.735 621.336C295.335 617.112 294.135 612.288 294.135 606.864C294.135 601.488 295.335 596.712 297.735 592.536C300.135 588.312 303.327 585.048 307.311 582.744C311.295 580.44 315.591 579.288 320.199 579.288C324.807 579.288 329.103 580.44 333.087 582.744C337.071 585.048 340.263 588.312 342.663 592.536C345.063 596.712 346.263 601.512 346.263 606.936C346.263 612.312 345.063 617.112 342.663 621.336C340.263 625.512 337.071 628.752 333.087 631.056C329.103 633.36 324.807 634.512 320.199 634.512ZM317.751 616.224L326.967 608.376L344.751 629.688L335.463 637.392L317.751 616.224ZM320.199 621.84C322.647 621.84 324.951 621.216 327.111 619.968C329.319 618.672 331.071 616.896 332.367 614.64C333.711 612.336 334.383 609.744 334.383 606.864C334.383 604.032 333.711 601.512 332.367 599.304C331.071 597.048 329.319 595.32 327.111 594.12C324.951 592.872 322.647 592.248 320.199 592.248C317.799 592.248 315.519 592.872 313.359 594.12C311.247 595.32 309.543 597.048 308.247 599.304C306.999 601.512 306.375 604.032 306.375 606.864C306.375 609.744 306.999 612.336 308.247 614.64C309.543 616.896 311.247 618.672 313.359 619.968C315.519 621.216 317.799 621.84 320.199 621.84ZM372.745 634.512C369.337 634.512 365.929 633.792 362.521 632.352C359.113 630.912 356.281 628.824 354.025 626.088C351.817 623.304 350.713 620.04 350.713 616.296V580.44H362.809V613.056C362.809 615.648 363.697 617.712 365.473 619.248C367.297 620.784 369.721 621.552 372.745 621.552C375.865 621.552 378.361 620.808 380.233 619.32C382.153 617.784 383.113 615.696 383.113 613.056V580.44H395.209V616.296C395.209 620.088 394.057 623.376 391.753 626.16C389.497 628.896 386.641 630.984 383.185 632.424C379.729 633.816 376.249 634.512 372.745 634.512ZM400.181 580.44H412.277V633.36H400.181V580.44ZM406.229 621.84H432.149V633.36H406.229V621.84ZM406.229 600.024H431.429V611.544H406.229V600.024ZM405.869 580.44H431.789V591.96H405.869V580.44ZM459.7 621.84H470.5C473.092 621.84 475.06 621.48 476.404 620.76C477.796 619.992 478.492 618.768 478.492 617.088C478.492 615.6 477.916 614.448 476.764 613.632C475.66 612.816 474.052 612.408 471.94 612.408H457.54V600.672H471.436C473.212 600.672 474.46 600.336 475.18 599.664C475.948 598.944 476.332 598.008 476.332 596.856C476.332 595.32 475.756 594.12 474.604 593.256C473.452 592.392 471.916 591.96 469.996 591.96H457.54V580.44H470.572C474.172 580.44 477.316 581.064 480.004 582.312C482.74 583.56 484.828 585.288 486.268 587.496C487.756 589.656 488.5 592.104 488.5 594.84C488.5 597.144 487.996 599.184 486.988 600.96C486.028 602.688 484.876 604.008 483.532 604.92C482.188 605.832 481.06 606.288 480.148 606.288V605.568C481.78 605.568 483.412 606.096 485.044 607.152C486.676 608.208 488.02 609.72 489.076 611.688C490.132 613.656 490.66 615.936 490.66 618.528C490.66 621.168 490.084 623.616 488.932 625.872C487.78 628.08 486.004 629.88 483.604 631.272C481.252 632.664 478.348 633.36 474.892 633.36H459.7V621.84ZM449.332 580.44H461.428V633.36H449.332V580.44ZM520.562 634.512C515.954 634.512 511.658 633.36 507.674 631.056C503.69 628.752 500.498 625.512 498.098 621.336C495.698 617.112 494.498 612.288 494.498 606.864C494.498 601.488 495.698 596.712 498.098 592.536C500.498 588.312 503.69 585.048 507.674 582.744C511.658 580.44 515.954 579.288 520.562 579.288C525.17 579.288 529.466 580.44 533.45 582.744C537.434 585.048 540.626 588.312 543.026 592.536C545.426 596.712 546.626 601.512 546.626 606.936C546.626 612.312 545.426 617.112 543.026 621.336C540.626 625.512 537.434 628.752 533.45 631.056C529.466 633.36 525.17 634.512 520.562 634.512ZM520.562 621.48C523.01 621.48 525.29 620.88 527.402 619.68C529.514 618.48 531.194 616.776 532.442 614.568C533.738 612.312 534.386 609.744 534.386 606.864C534.386 603.984 533.738 601.44 532.442 599.232C531.194 597.024 529.514 595.32 527.402 594.12C525.29 592.872 523.01 592.248 520.562 592.248C518.162 592.248 515.882 592.872 513.722 594.12C511.61 595.32 509.906 597.048 508.61 599.304C507.362 601.512 506.738 604.032 506.738 606.864C506.738 609.744 507.362 612.288 508.61 614.496C509.906 616.704 511.61 618.432 513.722 619.68C515.882 620.88 518.162 621.48 520.562 621.48ZM551.148 580.44H563.244V633.36H551.148V580.44ZM557.196 621.84H583.836V633.36H557.196V621.84ZM596.604 620.328H610.068C612.804 620.328 615.228 619.752 617.34 618.6C619.452 617.448 621.06 615.864 622.164 613.848C623.316 611.784 623.892 609.456 623.892 606.864C623.892 604.32 623.316 602.016 622.164 599.952C621.06 597.888 619.452 596.28 617.34 595.128C615.228 593.976 612.804 593.4 610.068 593.4H597.324V580.44H610.068C615.012 580.44 619.452 581.568 623.388 583.824C627.372 586.08 630.492 589.224 632.748 593.256C635.004 597.24 636.132 601.776 636.132 606.864C636.132 612 635.004 616.584 632.748 620.616C630.492 624.6 627.372 627.72 623.388 629.976C619.452 632.232 615.012 633.36 610.068 633.36H596.604V620.328ZM587.676 580.44H599.772V633.36H587.676V580.44Z" fill="white"/>
</svg>
