<svg width="860" height="327" viewBox="0 0 860 327" fill="none" xmlns="http://www.w3.org/2000/svg">
<rect width="860" height="326.29" transform="translate(0 0.359985)" fill="white"/>
<path d="M707.373 114.608H677.71L693.239 189.229H722.901L707.373 114.608Z" fill="#0B6AF4"/>
<path d="M693.239 189.229H654.999L653.84 212.402H690.225L693.239 189.229Z" fill="#0B6AF4"/>
<path d="M641.791 114.608L638.316 137.781H677.017L677.71 114.608H641.791Z" fill="#0B6AF4"/>
<path d="M638.316 137.781H608.653L624.178 212.402H653.84L638.316 137.781Z" fill="#0B6AF4"/>
<path d="M573.892 114.608H600.079L604.945 137.781H570.413L573.892 114.608Z" fill="#0B6AF4"/>
<path d="M565.547 114.608H535.884L556.511 212.402H586.174L565.547 114.608Z" fill="#0B6AF4"/>
<path d="M507.38 189.229H542.141L547.008 212.402H503.905L507.38 189.229Z" fill="#0B6AF4"/>
<path d="M491.623 114.608H517.81L522.676 137.781H488.148L491.623 114.608Z" fill="#0B6AF4"/>
<path d="M478.415 91.4354H448.749L474.242 212.402H503.905L478.415 91.4354Z" fill="#0B6AF4"/>
<path d="M409.819 114.608L404.488 137.781H448.52L443.65 114.608H409.819Z" fill="#0B6AF4"/>
<path d="M409.587 189.229H365.554L370.42 212.402H404.255L409.587 189.229Z" fill="#0B6AF4"/>
<path d="M386.181 114.608H350.029L427.893 212.402H464.278L386.181 114.608Z" fill="#0B6AF4"/>
<path d="M208.567 137.781H186.785L181.918 114.608H211.813L208.567 137.781Z" fill="#0B6AF4"/>
<path d="M241.708 114.608H212.042L232.669 212.402H262.332L241.708 114.608Z" fill="#0B6AF4"/>
<path d="M151.094 114.608H114.248L195.82 212.402H232.669L151.094 114.608Z" fill="#0B6AF4"/>
<path d="M302.424 152.384H340.66L345.527 174.63H299.41L302.424 152.384Z" fill="#0B6AF4"/>
<path d="M310.766 189.229H357.809L362.675 212.402H307.29L310.766 189.229Z" fill="#0B6AF4"/>
<path d="M295.008 114.608H342.051L346.918 137.781H291.529L295.008 114.608Z" fill="#0B6AF4"/>
<path d="M286.663 114.608H257.001L277.628 212.402H307.29L286.663 114.608Z" fill="#0B6AF4"/>
</svg>
