<svg width="442" height="419" viewBox="0 0 442 419" fill="none" xmlns="http://www.w3.org/2000/svg">
<g clip-path="url(#clip0_73_951)">
<path d="M226.133 205.441H199.633C198.709 205.441 197.851 204.952 197.382 204.155L151.477 126.372C149.892 123.686 145.774 125.536 146.743 128.504L170.665 202.029C171.215 203.717 169.953 205.446 168.182 205.446H144.699C143.569 205.446 142.564 204.72 142.216 203.641L115.716 122.204C115.368 121.131 115.751 119.952 116.665 119.286L138.356 103.547C139.607 102.64 141.368 103.008 142.146 104.339L187.743 182.132C189.322 184.828 193.45 182.978 192.481 180.005L162.605 88.1812C162.257 87.1077 162.64 85.9284 163.554 85.2632L185.275 69.504C186.511 68.6069 188.257 68.9597 189.05 70.265L232.971 142.978C234.576 145.634 238.654 143.774 237.695 140.826L224.579 100.508C223.796 98.1044 226.552 96.1036 228.601 97.5903L258.492 119.281C259.406 119.947 259.789 121.126 259.441 122.199L246.486 162.013C245.795 164.135 242.933 164.468 241.773 162.568L197.856 90.7766C196.241 88.1358 192.184 90.0005 193.143 92.9437L228.636 202.024C229.186 203.712 227.924 205.441 226.153 205.441H226.133Z" fill="#FF5733"/>
<path d="M240.819 258.499C240.819 240.835 231.003 232.726 210.65 232.726H201.525C200.475 232.726 199.623 233.577 199.623 234.626V242.079C199.623 243.128 200.475 243.979 201.525 243.979H210.529C222.403 243.979 228.581 248.455 228.581 256.564V256.599C228.581 257.647 227.728 258.499 226.678 258.499H216.463C197.927 258.499 187.263 266.124 187.263 279.797C187.263 291.413 194.899 298.066 209.075 298.066C219.845 298.066 225.305 294.17 226.587 284.952C226.718 284.01 227.516 283.304 228.47 283.304H228.5C229.55 283.304 230.402 284.156 230.402 285.204V294.956C230.402 296.004 231.255 296.856 232.305 296.856H249.827C250.877 296.856 251.73 296.004 251.73 294.956V287.502C251.73 286.454 250.877 285.602 249.827 285.602H242.726C241.677 285.602 240.824 284.751 240.824 283.702V258.499H240.819ZM228.581 272.172C228.581 281.49 221.308 287.78 211.013 287.78C203.498 287.78 199.501 284.514 199.501 278.945C199.501 271.925 205.557 268.78 219.37 268.78H226.678C227.728 268.78 228.581 269.632 228.581 270.68V272.166V272.172Z" fill="#F9F9F9"/>
<path d="M265.139 256.564C265.139 248.455 271.316 243.979 283.191 243.979H300.117C301.167 243.979 302.02 243.128 302.02 242.079V234.626C302.02 233.577 301.167 232.726 300.117 232.726H283.07C263.443 232.726 252.9 240.351 252.9 256.684V272.897C252.9 289.231 263.443 296.856 283.07 296.856H300.844C301.894 296.856 302.747 296.004 302.747 294.956V287.502C302.747 286.454 301.894 285.602 300.844 285.602H283.191C271.316 285.602 265.139 281.127 265.139 273.018V256.564Z" fill="#F9F9F9"/>
<path d="M179.264 243.979H190.811C191.861 243.979 192.714 243.128 192.714 242.079V234.626C192.714 233.577 191.861 232.726 190.811 232.726H179.264C170.765 232.726 165.643 237.725 164.513 247.512C164.402 248.465 163.589 249.18 162.63 249.18C161.58 249.18 160.728 248.329 160.728 247.28V234.626C160.728 233.577 159.875 232.726 158.825 232.726H140.334C139.284 232.726 138.431 233.577 138.431 234.626V242.079C138.431 243.128 139.284 243.979 140.334 243.979H148.403C149.453 243.979 150.306 244.831 150.306 245.879V283.702C150.306 284.751 149.453 285.602 148.403 285.602H137.911C136.862 285.602 136.009 286.454 136.009 287.502V294.956C136.009 296.004 136.862 296.856 137.911 296.856H176.877C177.927 296.856 178.78 296.004 178.78 294.956V287.502C178.78 286.454 177.927 285.602 176.877 285.602H165.053C164.003 285.602 163.15 284.751 163.15 283.702V269.269C163.15 256.926 164.361 243.979 179.264 243.979Z" fill="#F9F9F9"/>
<path d="M131.527 242.079V234.626C131.527 233.577 130.674 232.726 129.625 232.726H103.261C102.211 232.726 101.358 231.874 101.358 230.826V215.444C101.358 214.396 100.505 213.544 99.4553 213.544H90.4166C89.3669 213.544 88.514 214.396 88.514 215.444V230.826C88.514 231.874 87.6611 232.726 86.6114 232.726H74.3025C73.2528 232.726 72.3999 233.577 72.3999 234.626V242.079C72.3999 243.128 73.2528 243.979 74.3025 243.979H86.6114C87.6611 243.979 88.514 244.831 88.514 245.879V272.655C88.514 290.078 96.508 296.856 116.14 296.856H129.625C130.674 296.856 131.527 296.004 131.527 294.956V287.502C131.527 286.454 130.674 285.602 129.625 285.602H117.351C105.597 285.602 101.358 281.974 101.358 272.051V245.879C101.358 244.831 102.211 243.979 103.261 243.979H129.625C130.674 243.979 131.527 243.128 131.527 242.079Z" fill="#F9F9F9"/>
<path opacity="0.5" d="M72.4 14.4346H43.6035V378.721H72.4V14.4346Z" stroke="#F9F9F9" stroke-width="0.5" stroke-miterlimit="10"/>
<path opacity="0.5" d="M43.6031 14.4346H14.8066V378.721H43.6031V14.4346Z" stroke="#F9F9F9" stroke-width="0.5" stroke-miterlimit="10"/>
<path opacity="0.5" d="M331.543 14.4346H302.747V378.721H331.543V14.4346Z" stroke="#F9F9F9" stroke-width="0.5" stroke-miterlimit="10"/>
<path opacity="0.5" d="M360.339 14.4346H331.543V378.721H360.339V14.4346Z" stroke="#F9F9F9" stroke-width="0.5" stroke-miterlimit="10"/>
<path opacity="0.5" d="M360.334 41.7197H14.8066V69.0048H360.334V41.7197Z" stroke="#F9F9F9" stroke-width="0.5" stroke-miterlimit="10"/>
<path opacity="0.5" d="M360.334 14.4346H14.8066V41.7197H360.334V14.4346Z" stroke="#F9F9F9" stroke-width="0.5" stroke-miterlimit="10"/>
<path opacity="0.5" d="M360.334 296.856H14.8066V324.141H360.334V296.856Z" stroke="#F9F9F9" stroke-width="0.5" stroke-miterlimit="10"/>
<path opacity="0.5" d="M360.334 324.146H14.8066V351.431H360.334V324.146Z" stroke="#F9F9F9" stroke-width="0.5" stroke-miterlimit="10"/>
<path opacity="0.5" d="M360.334 351.431H14.8066V378.716H360.334V351.431Z" stroke="#F9F9F9" stroke-width="0.5" stroke-miterlimit="10"/>
<path d="M115.589 69.0098H393.774" stroke="#FF5733" stroke-width="0.47" stroke-miterlimit="10"/>
<path d="M115.589 205.44H393.774" stroke="#FF5733" stroke-width="0.47" stroke-miterlimit="10"/>
<path d="M382.52 69.0098V205.44" stroke="#FF5733" stroke-width="0.5" stroke-miterlimit="10"/>
<path d="M395.969 161.746H396.968L399.184 167.401H398.281L397.771 166.08H395.162L394.662 167.401H393.759L395.974 161.746H395.969ZM397.493 165.36L396.469 162.704L395.444 165.36H397.498H397.493Z" fill="#FF5733"/>
<path d="M399.886 161.746H400.734V167.401H399.886V161.746Z" fill="#FF5733"/>
<path d="M401.97 163.949H401.354V163.394L401.97 163.303L402.212 162.23H402.828V163.303H403.701V163.964H402.828V166.181C402.828 166.514 402.939 166.796 403.363 166.796C403.494 166.796 403.63 166.781 403.857 166.725V167.426C403.67 167.466 403.443 167.481 403.267 167.481C402.353 167.481 401.975 166.877 401.975 166.206V163.949H401.97Z" fill="#FF5733"/>
<path d="M407.173 167.401C407.118 167.224 407.082 167.048 407.062 166.866C406.754 167.219 406.31 167.471 405.811 167.471C404.948 167.471 404.382 166.856 404.382 165.939V163.303H405.24V165.868C405.24 166.418 405.538 166.766 406.017 166.766C406.623 166.766 407.042 166.347 407.042 165.687V163.308H407.9V166.211C407.9 166.806 407.91 167.093 407.955 167.406H407.178L407.173 167.401Z" fill="#FF5733"/>
<path d="M409.575 163.303C409.626 163.48 409.666 163.656 409.686 163.838C409.969 163.485 410.332 163.233 410.812 163.233L410.893 163.969C410.176 163.903 409.707 164.382 409.707 165.128V167.401H408.859V164.498C408.859 163.903 408.844 163.621 408.803 163.303H409.58H409.575Z" fill="#FF5733"/>
<path d="M413.991 167.4C413.961 167.269 413.9 166.997 413.885 166.866C413.592 167.229 413.169 167.471 412.664 167.471C411.806 167.471 411.241 166.962 411.241 166.206C411.241 165.495 411.887 165.047 412.962 164.926L413.84 164.82V164.644C413.84 164.225 413.532 163.933 413.103 163.933C412.674 163.933 412.366 164.135 412.27 164.482L411.448 164.346C411.619 163.671 412.255 163.228 413.113 163.228C414.052 163.228 414.698 163.832 414.698 164.76V166.211C414.698 166.806 414.708 167.093 414.748 167.405H413.991V167.4ZM413.845 165.732V165.41L412.987 165.505C412.437 165.571 412.099 165.803 412.099 166.176C412.099 166.549 412.391 166.781 412.825 166.781C413.456 166.781 413.845 166.362 413.845 165.732Z" fill="#FF5733"/>
<path d="M419.482 161.746H420.395L418.271 168.968H417.367L419.482 161.746Z" fill="#FF5733"/>
<path d="M427.137 165.475C427.137 166.554 426.386 167.486 425.134 167.486C424.069 167.486 423.221 166.841 422.979 165.904L423.761 165.632C423.953 166.307 424.473 166.76 425.119 166.76C425.856 166.76 426.249 166.171 426.249 165.495C426.249 164.82 425.876 164.276 425.134 164.276C424.609 164.276 424.236 164.508 423.872 164.911L423.211 164.669L423.711 161.751H426.845V162.462H424.448L424.18 163.903C424.463 163.701 424.796 163.555 425.26 163.555C426.446 163.555 427.132 164.427 427.132 165.475H427.137Z" fill="#FF5733"/>
<path d="M430.085 163.581H433.85V164.251H430.085V163.581ZM430.085 164.982H433.85V165.652H430.085V164.982Z" fill="#FF5733"/>
<path d="M436.696 161.746H437.705L439.154 163.797L440.592 161.746H441.586L439.613 164.457L441.753 167.401H440.743L439.144 165.108L437.534 167.401H436.54L438.674 164.463L436.696 161.746Z" fill="#FF5733"/>
<path d="M0.398472 25.25H1.40781L2.85622 27.3012L4.29453 25.25H5.28873L3.31547 27.9614L5.45527 30.9046H4.44593L2.84612 28.6115L1.23622 30.9046H0.24707L2.38183 27.9664L0.403518 25.25H0.398472Z" fill="#F9F9F9"/>
<path d="M0.398472 307.671H1.40781L2.85622 309.723L4.29453 307.671H5.28873L3.31547 310.383L5.45527 313.326H4.44593L2.84612 311.033L1.23622 313.326H0.24707L2.38183 310.388L0.403518 307.671H0.398472Z" fill="#F9F9F9"/>
<path d="M0.398472 334.961H1.40781L2.85622 337.013L4.29453 334.961H5.28873L3.31547 337.673L5.45527 340.616H4.44593L2.84612 338.323L1.23622 340.616H0.24707L2.38183 337.678L0.403518 334.961H0.398472Z" fill="#F9F9F9"/>
<path d="M0.398472 362.246H1.40781L2.85622 364.297L4.29453 362.246H5.28873L3.31547 364.957L5.45527 367.901H4.44593L2.84612 365.608L1.23622 367.901H0.24707L2.38183 364.963L0.403518 362.246H0.398472Z" fill="#F9F9F9"/>
<path d="M0.398472 52.5352H1.40781L2.85622 54.5863L4.29453 52.5352H5.28873L3.31547 55.2465L5.45527 58.1897H4.44593L2.84612 55.8967L1.23622 58.1897H0.24707L2.38183 55.2516L0.403518 52.5352H0.398472Z" fill="#F9F9F9"/>
<path d="M26.7021 0.303223H27.6812L29.2104 2.99948L30.7345 0.303223H31.7135L29.6545 3.80583V5.9578H28.7713V3.80583L26.7021 0.303223Z" fill="#F9F9F9"/>
<path d="M55.4932 0.303223H56.4722L58.0014 2.99948L59.5255 0.303223H60.5045L58.4455 3.80583V5.9578H57.5623V3.80583L55.4932 0.303223Z" fill="#F9F9F9"/>
<path d="M314.642 0.303223H315.621L317.15 2.99948L318.674 0.303223H319.653L317.594 3.80583V5.9578H316.711V3.80583L314.642 0.303223Z" fill="#F9F9F9"/>
<path d="M343.433 0.303223H344.412L345.941 2.99948L347.465 0.303223H348.444L346.385 3.80583V5.9578H345.502V3.80583L343.433 0.303223Z" fill="#F9F9F9"/>
<path d="M259.542 68.9946V410.895" stroke="#FF5733" stroke-width="0.5" stroke-miterlimit="10"/>
<path d="M115.584 68.9946V410.895" stroke="#FF5733" stroke-width="0.5" stroke-miterlimit="10"/>
<path d="M259.547 399.667H115.69" stroke="#FF5733" stroke-width="0.5" stroke-miterlimit="10"/>
<path d="M161.081 410.88H161.959V415.819H164.85V416.534H161.081V410.88Z" fill="#FF5733"/>
<path d="M168.227 416.535C168.196 416.404 168.136 416.132 168.121 416.001C167.828 416.363 167.404 416.605 166.899 416.605C166.041 416.605 165.476 416.096 165.476 415.34C165.476 414.63 166.122 414.181 167.197 414.06L168.075 413.954V413.778C168.075 413.36 167.767 413.067 167.338 413.067C166.909 413.067 166.601 413.269 166.506 413.617L165.683 413.481C165.855 412.805 166.49 412.362 167.348 412.362C168.287 412.362 168.933 412.967 168.933 413.894V415.345C168.933 415.94 168.943 416.227 168.984 416.54H168.227V416.535ZM168.085 414.867V414.544L167.227 414.64C166.677 414.705 166.339 414.937 166.339 415.31C166.339 415.683 166.632 415.915 167.066 415.915C167.697 415.915 168.085 415.497 168.085 414.867Z" fill="#FF5733"/>
<path d="M170.599 412.437C170.649 412.614 170.69 412.79 170.71 412.971C170.992 412.619 171.356 412.367 171.835 412.367L171.916 413.103C171.199 413.037 170.73 413.516 170.73 414.262V416.535H169.882V413.632C169.882 413.037 169.867 412.755 169.827 412.437H170.604H170.599Z" fill="#FF5733"/>
<path d="M175.267 415.985C174.984 416.358 174.51 416.6 174.005 416.6C172.986 416.6 172.269 415.723 172.269 414.488C172.269 413.254 172.986 412.367 174.005 412.367C174.545 412.367 175.05 412.639 175.312 413.037C175.337 412.825 175.378 412.583 175.408 412.442H176.175C176.135 412.714 176.12 413.118 176.12 413.627V416.464C176.12 417.593 175.423 418.303 174.252 418.303C173.309 418.303 172.587 417.835 172.36 417.084L173.183 416.907C173.344 417.351 173.723 417.603 174.247 417.603C174.903 417.603 175.257 417.175 175.257 416.464V415.99L175.267 415.985ZM174.237 415.889C174.883 415.889 175.262 415.335 175.262 414.624V414.367C175.262 413.627 174.868 413.052 174.237 413.052C173.551 413.052 173.122 413.606 173.122 414.488C173.122 415.37 173.551 415.895 174.237 415.895V415.889Z" fill="#FF5733"/>
<path d="M179.814 416.534C179.758 416.358 179.723 416.182 179.703 416C179.395 416.353 178.951 416.605 178.451 416.605C177.588 416.605 177.023 415.99 177.023 415.073V412.437H177.881V415.002C177.881 415.552 178.179 415.899 178.658 415.899C179.264 415.899 179.683 415.481 179.683 414.821V412.442H180.541V415.345C180.541 415.94 180.551 416.227 180.596 416.539H179.819L179.814 416.534Z" fill="#FF5733"/>
<path d="M182.216 412.437C182.267 412.614 182.307 412.79 182.327 412.971C182.61 412.619 182.973 412.367 183.448 412.367L183.528 413.103C182.812 413.037 182.342 413.516 182.342 414.262V416.535H181.494V413.632C181.494 413.037 181.479 412.755 181.439 412.437H182.216Z" fill="#FF5733"/>
<path d="M186.632 416.535C186.602 416.404 186.541 416.132 186.526 416.001C186.233 416.363 185.809 416.605 185.305 416.605C184.447 416.605 183.881 416.096 183.881 415.34C183.881 414.63 184.527 414.181 185.602 414.06L186.48 413.954V413.778C186.48 413.36 186.173 413.067 185.744 413.067C185.315 413.067 185.007 413.269 184.911 413.617L184.088 413.481C184.26 412.805 184.896 412.362 185.754 412.362C186.692 412.362 187.338 412.967 187.338 413.894V415.345C187.338 415.94 187.348 416.227 187.389 416.54H186.632V416.535ZM186.485 414.867V414.544L185.628 414.64C185.077 414.705 184.739 414.937 184.739 415.31C184.739 415.683 185.032 415.915 185.466 415.915C186.097 415.915 186.485 415.497 186.485 414.867Z" fill="#FF5733"/>
<path d="M192.123 410.88H193.036L190.912 418.102H190.008L192.123 410.88Z" fill="#FF5733"/>
<path d="M199.779 414.604C199.779 415.683 199.027 416.615 197.775 416.615C196.71 416.615 195.862 415.97 195.62 415.033L196.402 414.76C196.594 415.436 197.114 415.889 197.76 415.889C198.497 415.889 198.89 415.3 198.89 414.624C198.89 413.949 198.517 413.405 197.775 413.405C197.25 413.405 196.877 413.637 196.513 414.04L195.852 413.798L196.352 410.88H199.486V411.591H197.089L196.821 413.032C197.104 412.83 197.437 412.684 197.901 412.684C199.087 412.684 199.774 413.556 199.774 414.604H199.779Z" fill="#FF5733"/>
<path d="M202.726 412.709H206.491V413.38H202.726V412.709ZM202.726 414.116H206.491V414.786H202.726V414.116Z" fill="#FF5733"/>
<path d="M209.15 410.88H210.129L211.659 413.576L213.183 410.88H214.162L212.103 414.382V416.534H211.22V414.382L209.15 410.88Z" fill="#FF5733"/>
</g>
<defs>
<clipPath id="clip0_73_951">
<rect width="441.506" height="418" fill="white" transform="translate(0.24707 0.303223)"/>
</clipPath>
</defs>
</svg>
