<svg width="287" height="57" viewBox="0 0 287 57" fill="none" xmlns="http://www.w3.org/2000/svg">
<path d="M279.678 10.9188H265.691L273.013 46.0794H287L279.678 10.9188Z" fill="#0B6AF4"/>
<path d="M273.013 46.0794H254.982L254.435 57H271.592L273.013 46.0794Z" fill="#0B6AF4"/>
<path d="M248.754 10.9188L247.115 21.8394H265.364L265.691 10.9188H248.754Z" fill="#0B6AF4"/>
<path d="M247.115 21.8394H233.128L240.449 57H254.435L247.115 21.8394Z" fill="#0B6AF4"/>
<path d="M216.737 10.9188H229.085L231.38 21.8394H215.097L216.737 10.9188Z" fill="#0B6AF4"/>
<path d="M212.802 10.9188H198.815L208.542 57H222.528L212.802 10.9188Z" fill="#0B6AF4"/>
<path d="M185.375 46.0794H201.766L204.06 57H183.736L185.375 46.0794Z" fill="#0B6AF4"/>
<path d="M177.945 10.9188H190.293L192.587 21.8394H176.306L177.945 10.9188Z" fill="#0B6AF4"/>
<path d="M171.715 0H157.728L169.749 57H183.736L171.715 0Z" fill="#0B6AF4"/>
<path d="M139.371 10.9188L136.857 21.8394H157.62L155.324 10.9188H139.371Z" fill="#0B6AF4"/>
<path d="M139.262 46.0794H118.499L120.794 57H136.748L139.262 46.0794Z" fill="#0B6AF4"/>
<path d="M128.225 10.9188H111.178L147.894 57H165.05L128.225 10.9188Z" fill="#0B6AF4"/>
<path d="M44.4742 21.8394H34.2033L31.9087 10.9188H46.0034L44.4742 21.8394Z" fill="#0B6AF4"/>
<path d="M60.0998 10.9188H46.113L55.8394 57H69.8262L60.0998 10.9188Z" fill="#0B6AF4"/>
<path d="M17.3739 10.9188H0L38.4637 57H55.8394L17.3739 10.9188Z" fill="#0B6AF4"/>
<path d="M88.731 28.7182H106.761L109.055 39.2006H87.3097L88.731 28.7182Z" fill="#0B6AF4"/>
<path d="M92.6644 46.0794H114.847L117.141 57H91.0256L92.6644 46.0794Z" fill="#0B6AF4"/>
<path d="M85.2343 10.9188H107.417L109.711 21.8394H83.5938L85.2343 10.9188Z" fill="#0B6AF4"/>
<path d="M81.2992 10.9188H67.3124L77.0388 57H91.0256L81.2992 10.9188Z" fill="#0B6AF4"/>
</svg>
