<svg width="470" height="419" viewBox="0 0 470 419" fill="none" xmlns="http://www.w3.org/2000/svg">
<g clip-path="url(#clip0_73_828)">
<path d="M303.783 163.536L262.208 133.31C259.356 131.239 255.526 134.023 256.613 137.371L270.117 178.954C270.471 178.949 270.835 178.939 271.204 178.939C270.835 178.939 270.471 178.944 270.117 178.954L272.765 187.127L274.855 193.559C276.191 197.67 270.521 200.265 268.287 196.557L263.4 188.454L258.877 180.95L207.198 95.2294C206.101 93.3983 203.678 92.9093 201.947 94.1617L171.737 116.126C170.465 117.054 169.927 118.695 170.42 120.187L189.989 180.441C190.188 180.316 190.393 180.197 190.602 180.087C190.393 180.197 190.188 180.311 189.989 180.441L192.288 187.531L211.976 248.159C213.322 252.301 207.577 254.88 205.383 251.118L190.452 225.602L185.665 217.419L184.119 214.774L174.794 198.833L167.952 187.132L166.172 184.093L141.965 142.71C140.878 140.854 138.43 140.345 136.689 141.607L106.519 163.541C105.247 164.469 104.709 166.111 105.202 167.603L142.06 281.1C142.544 282.602 143.94 283.615 145.516 283.615H178.18C180.653 283.615 182.404 281.205 181.636 278.855L151.849 187.137L149.186 178.954L148.359 176.4C147.022 172.263 152.742 169.679 154.946 173.426L158.198 178.954L161.155 183.974L174.794 207.125L185.685 225.616L218.798 281.829C219.451 282.936 220.648 283.625 221.929 283.625H258.787C261.261 283.62 263.011 281.21 262.243 278.865L244.954 225.616L242.291 217.434L240.52 211.985L230.392 180.785L212.873 126.843C211.542 122.742 217.187 120.142 219.436 123.825L255.451 182.816L260.223 190.63L276.59 217.434L280.525 223.875C281.243 225.053 282.435 225.616 283.612 225.616C284.036 225.616 284.464 225.542 284.863 225.397C284.868 225.397 284.878 225.392 284.888 225.382C285.871 225.038 286.709 224.259 287.078 223.102L305.1 167.613C305.584 166.121 305.055 164.479 303.774 163.551L303.783 163.536ZM204.216 178.949H195.828C195.11 178.949 194.432 179.004 193.784 179.099C194.432 178.999 195.115 178.949 195.828 178.949H204.216ZM159.783 225.602C160.447 225.602 161.005 225.128 161.135 224.494C161.005 225.128 160.452 225.602 159.783 225.602Z" fill="#FF5733"/>
<path d="M247.063 217.418H241.907C241.149 217.418 240.531 216.8 240.531 216.031V197.695C240.531 188.923 237.209 183.39 230.402 180.765C227.236 179.533 223.311 178.944 218.619 178.944H211.996C211.228 178.944 210.61 179.563 210.61 180.321V185.74C210.61 186.508 211.228 187.127 211.996 187.127H218.529C227.151 187.127 231.644 190.38 231.644 196.283V196.307C231.644 197.076 231.026 197.695 230.258 197.695H222.842C209.378 197.695 201.633 203.238 201.633 213.182C201.633 221.634 207.179 226.479 217.472 226.479C225.296 226.479 229.26 223.64 230.188 216.934C230.283 216.251 230.861 215.737 231.554 215.737H231.574C232.342 215.737 232.961 216.356 232.961 217.114V224.209C232.961 224.977 233.579 225.596 234.337 225.596H247.063C247.831 225.596 248.45 224.977 248.45 224.209V218.79C248.45 218.032 247.831 217.413 247.063 217.413V217.418ZM231.644 207.644C231.644 214.425 226.363 218.995 218.888 218.995C213.427 218.995 210.525 216.62 210.525 212.573C210.525 207.464 214.928 205.174 224.957 205.174H230.263C231.031 205.174 231.649 205.793 231.649 206.561V207.644H231.644Z" fill="#F9F9F9"/>
<path d="M284.968 180.326V185.745C284.968 186.513 284.35 187.132 283.592 187.132H271.304C268.093 187.132 265.454 187.581 263.405 188.459L258.882 180.955C261.934 179.713 265.689 179.054 270.122 178.964C270.476 178.959 270.84 178.949 271.209 178.949H283.592C284.35 178.949 284.968 179.568 284.968 180.326Z" fill="#F9F9F9"/>
<path d="M283.617 225.601H271.209C256.957 225.601 249.302 220.053 249.302 208.168V196.372C249.302 190.145 251.407 185.66 255.461 182.801L260.233 190.614C258.877 192.076 258.189 193.977 258.189 196.283V208.252C258.189 214.15 262.677 217.413 271.304 217.413H276.6L280.535 223.855C281.253 225.032 282.445 225.596 283.622 225.596L283.617 225.601Z" fill="#F9F9F9"/>
<path d="M185.69 225.602H165.797C165.03 225.602 164.411 224.983 164.411 224.214V218.796C164.411 218.037 165.03 217.419 165.797 217.419H173.412C174.18 217.419 174.799 216.8 174.799 216.032V207.115L185.69 225.607V225.602Z" fill="#F9F9F9"/>
<path d="M195.48 218.796V224.214C195.48 224.983 194.861 225.601 194.093 225.601H190.458L185.67 217.418H194.093C194.861 217.418 195.48 218.037 195.48 218.796Z" fill="#F9F9F9"/>
<path d="M205.593 180.326V185.745C205.593 186.513 204.975 187.132 204.217 187.132H195.829C194.502 187.132 193.335 187.271 192.293 187.536C184.803 189.427 184.125 197.645 184.125 205.533V214.774L174.799 198.832V188.509C174.799 187.75 174.181 187.132 173.413 187.132H167.952L166.172 184.093V180.326C166.172 179.568 166.79 178.949 167.558 178.949H180.983C181.751 178.949 182.369 179.568 182.369 180.326V189.532C182.369 189.916 182.524 190.265 182.773 190.515C183.022 190.764 183.371 190.919 183.746 190.919C184.444 190.919 185.037 190.395 185.117 189.701C185.636 185.221 187.296 182.127 189.989 180.446C191.575 179.443 193.53 178.944 195.824 178.944H204.212C204.97 178.944 205.588 179.563 205.588 180.321L205.593 180.326Z" fill="#F9F9F9"/>
<path d="M139.253 188.509V207.554C139.253 214.769 142.33 217.414 150.867 217.414H159.779C160.537 217.414 161.155 218.032 161.155 218.791V224.209C161.155 224.978 160.537 225.596 159.779 225.596H149.984C135.727 225.596 129.917 220.667 129.917 207.988V188.504C129.917 187.746 129.299 187.127 128.541 187.127H119.6C118.842 187.127 118.223 186.508 118.223 185.74V180.321C118.223 179.563 118.842 178.944 119.6 178.944H128.541C129.299 178.944 129.917 178.325 129.917 177.557V166.365C129.917 165.607 130.536 164.988 131.304 164.988H137.866C138.634 164.988 139.253 165.607 139.253 166.365V177.557C139.253 178.325 139.871 178.944 140.629 178.944H158.203L161.16 183.964V185.745C161.16 186.513 160.541 187.132 159.783 187.132H140.634C139.876 187.132 139.258 187.751 139.258 188.509H139.253Z" fill="#F9F9F9"/>
<path opacity="0.5" d="M105.028 17.4126H64.9785V378.686H105.028V17.4126Z" stroke="#F9F9F9" stroke-width="0.5" stroke-miterlimit="10"/>
<path opacity="0.5" d="M64.9737 17.4126H24.9243V378.686H64.9737V17.4126Z" stroke="#F9F9F9" stroke-width="0.5" stroke-miterlimit="10"/>
<path opacity="0.5" d="M345.334 17.4126H305.285V378.686H345.334V17.4126Z" stroke="#F9F9F9" stroke-width="0.5" stroke-miterlimit="10"/>
<path opacity="0.5" d="M385.383 17.4126H345.334V378.686H385.383V17.4126Z" stroke="#F9F9F9" stroke-width="0.5" stroke-miterlimit="10"/>
<path opacity="0.5" d="M385.388 55.438H24.9243V93.4684H385.388V55.438Z" stroke="#F9F9F9" stroke-width="0.5" stroke-miterlimit="10"/>
<path opacity="0.5" d="M385.388 17.4126H24.9243V55.443H385.388V17.4126Z" stroke="#F9F9F9" stroke-width="0.5" stroke-miterlimit="10"/>
<path opacity="0.5" d="M385.388 283.61H24.9243V321.641H385.388V283.61Z" stroke="#F9F9F9" stroke-width="0.5" stroke-miterlimit="10"/>
<path opacity="0.5" d="M385.388 321.641H24.9243V359.671H385.388V321.641Z" stroke="#F9F9F9" stroke-width="0.5" stroke-miterlimit="10"/>
<path opacity="0.5" d="M385.388 359.671H24.9243V378.686H385.388V359.671Z" stroke="#F9F9F9" stroke-width="0.5" stroke-miterlimit="10"/>
<path d="M105.028 93.4683H422.595" stroke="#FF5733" stroke-width="0.5" stroke-miterlimit="10"/>
<path d="M105.028 283.61H422.595" stroke="#FF5733" stroke-width="0.5" stroke-miterlimit="10"/>
<path d="M411.469 93.4683V283.61" stroke="#FF5733" stroke-width="0.5" stroke-miterlimit="10"/>
<path d="M305.285 93.458V410.913" stroke="#FF5733" stroke-width="0.5" stroke-miterlimit="10"/>
<path d="M105.028 93.458V410.913" stroke="#FF5733" stroke-width="0.5" stroke-miterlimit="10"/>
<path d="M305.284 399.792H105.028" stroke="#FF5733" stroke-width="0.5" stroke-miterlimit="10"/>
<path d="M424.759 185.286H425.747L427.936 190.884H427.043L426.54 189.577H423.962L423.468 190.884H422.575L424.764 185.286H424.759ZM426.27 188.864L425.258 186.234L424.246 188.864H426.275H426.27Z" fill="#FF5733"/>
<path d="M428.634 185.286H429.472V190.884H428.634V185.286Z" fill="#FF5733"/>
<path d="M430.689 187.467H430.081V186.918L430.689 186.828L430.928 185.765H431.537V186.828H432.399V187.482H431.537V189.677C431.537 190.006 431.646 190.286 432.065 190.286C432.195 190.286 432.33 190.271 432.554 190.216V190.909C432.37 190.949 432.145 190.964 431.971 190.964C431.068 190.964 430.694 190.365 430.694 189.702V187.467H430.689Z" fill="#FF5733"/>
<path d="M435.835 190.885C435.78 190.71 435.746 190.535 435.726 190.356C435.421 190.705 434.983 190.954 434.489 190.954C433.636 190.954 433.078 190.346 433.078 189.438V186.828H433.925V189.368C433.925 189.912 434.22 190.256 434.693 190.256C435.292 190.256 435.706 189.842 435.706 189.188V186.833H436.553V189.707C436.553 190.296 436.563 190.58 436.608 190.89H435.84L435.835 190.885Z" fill="#FF5733"/>
<path d="M438.209 186.828C438.259 187.002 438.299 187.177 438.318 187.357C438.598 187.007 438.957 186.758 439.431 186.758L439.51 187.486C438.802 187.421 438.338 187.895 438.338 188.634V190.884H437.501V188.01C437.501 187.421 437.486 187.142 437.446 186.828H438.214H438.209Z" fill="#FF5733"/>
<path d="M442.572 190.884C442.542 190.755 442.483 190.485 442.468 190.355C442.178 190.715 441.759 190.954 441.261 190.954C440.413 190.954 439.854 190.45 439.854 189.702C439.854 188.998 440.493 188.554 441.555 188.434L442.423 188.33V188.155C442.423 187.741 442.118 187.451 441.695 187.451C441.271 187.451 440.967 187.651 440.872 187.995L440.059 187.861C440.228 187.192 440.857 186.753 441.705 186.753C442.632 186.753 443.27 187.352 443.27 188.27V189.707C443.27 190.296 443.28 190.58 443.32 190.889H442.572V190.884ZM442.428 189.228V188.908L441.58 189.003C441.036 189.068 440.702 189.298 440.702 189.667C440.702 190.036 440.991 190.266 441.42 190.266C442.044 190.266 442.428 189.851 442.428 189.228Z" fill="#FF5733"/>
<path d="M447.998 185.286H448.901L446.801 192.436H445.909L447.998 185.286Z" fill="#FF5733"/>
<path d="M455.563 188.973C455.563 190.041 454.82 190.964 453.583 190.964C452.531 190.964 451.693 190.326 451.454 189.398L452.227 189.128C452.417 189.797 452.93 190.246 453.569 190.246C454.297 190.246 454.686 189.662 454.686 188.993C454.686 188.325 454.317 187.786 453.583 187.786C453.065 187.786 452.696 188.015 452.337 188.415L451.684 188.175L452.177 185.286H455.274V185.99H452.905L452.641 187.417C452.92 187.217 453.249 187.072 453.708 187.072C454.88 187.072 455.558 187.936 455.558 188.973H455.563Z" fill="#FF5733"/>
<path d="M458.471 187.097H462.191V187.761H458.471V187.097ZM458.471 188.489H462.191V189.153H458.471V188.489Z" fill="#FF5733"/>
<path d="M465.003 185.286H466.001L467.432 187.317L468.853 185.286H469.835L467.886 187.971L470 190.884H469.003L467.422 188.614L465.831 190.884H464.849L466.958 187.976L465.003 185.286Z" fill="#FF5733"/>
<path d="M4.18877 32.4609H5.18614L6.61736 34.4917L8.03862 32.4609H9.02102L7.07117 35.1453L9.18559 38.0592H8.18822L6.60739 35.789L5.01659 38.0592H4.03418L6.14361 35.1503L4.18877 32.4609Z" fill="#F9F9F9"/>
<path d="M4.18877 70.4863H5.18614L6.61736 72.5171L8.03862 70.4863H9.02102L7.07117 73.1707L9.18559 76.0846H8.18822L6.60739 73.8144L5.01659 76.0846H4.03418L6.14361 73.1757L4.18877 70.4863Z" fill="#F9F9F9"/>
<path d="M4.18877 298.659H5.18614L6.61736 300.689L8.03862 298.659H9.02102L7.07117 301.343L9.18559 304.257H8.18822L6.60739 301.987L5.01659 304.257H4.03418L6.14361 301.348L4.18877 298.659Z" fill="#F9F9F9"/>
<path d="M4.18877 336.689H5.18614L6.61736 338.72L8.03862 336.689H9.02102L7.07117 339.373L9.18559 342.287H8.18822L6.60739 340.017L5.01659 342.287H4.03418L6.14361 339.378L4.18877 336.689Z" fill="#F9F9F9"/>
<path d="M0.149605 365.209H1.14697L2.5782 367.235L3.99945 365.209H4.98186L3.032 367.894L5.14642 370.808H4.14905L2.56822 368.537L0.977421 370.808H0L2.10943 367.899L0.154592 365.209H0.149605Z" fill="#F9F9F9"/>
<path d="M7.58509 365.209H8.48771L6.38825 372.359H5.49561L7.58509 365.209Z" fill="#F9F9F9"/>
<path d="M9.14571 370.154L11.1504 368.178C11.5992 367.734 12.0181 367.31 12.0181 366.711C12.0181 366.192 11.6591 365.878 11.1006 365.878C10.4722 365.878 10.0234 366.262 9.84885 366.891L9.06592 366.612C9.29033 365.743 10.0882 365.14 11.1155 365.14C12.1428 365.14 12.9058 365.793 12.9058 366.721C12.9058 367.599 12.2425 368.173 11.7538 368.662L10.3076 370.094H12.9806V370.808H9.14072V370.154H9.14571Z" fill="#F9F9F9"/>
<path d="M41.1562 0.303223H42.1237L43.6347 2.97263L45.1407 0.303223H46.1082L44.0736 3.77096V5.9015H43.2009V3.77096L41.1562 0.303223Z" fill="#F9F9F9"/>
<path d="M81.4849 0.303223H82.4523L83.9633 2.97263L85.4694 0.303223H86.4368L84.4022 3.77096V5.9015H83.5295V3.77096L81.4849 0.303223Z" fill="#F9F9F9"/>
<path d="M323.457 0.303223H324.424L325.935 2.97263L327.441 0.303223H328.408L326.374 3.77096V5.9015H325.501V3.77096L323.457 0.303223Z" fill="#F9F9F9"/>
<path d="M363.785 0.303223H364.753L366.264 2.97263L367.77 0.303223H368.737L366.702 3.77096V5.9015H365.83V3.77096L363.785 0.303223Z" fill="#F9F9F9"/>
<path d="M179.137 410.958H180.005V415.848H182.862V416.557H179.137V410.958Z" fill="#FF5733"/>
<path d="M186.204 416.557C186.174 416.427 186.114 416.157 186.099 416.028C185.81 416.387 185.391 416.627 184.892 416.627C184.044 416.627 183.486 416.123 183.486 415.374C183.486 414.671 184.124 414.227 185.186 414.107L186.054 414.002V413.827C186.054 413.413 185.75 413.124 185.326 413.124C184.902 413.124 184.598 413.323 184.503 413.668L183.69 413.533C183.86 412.864 184.488 412.425 185.336 412.425C186.264 412.425 186.902 413.024 186.902 413.942V415.379C186.902 415.968 186.912 416.252 186.952 416.562H186.204V416.557ZM186.059 414.9V414.581L185.211 414.676C184.668 414.74 184.334 414.97 184.334 415.339C184.334 415.708 184.623 415.938 185.052 415.938C185.675 415.938 186.059 415.524 186.059 414.9Z" fill="#FF5733"/>
<path d="M188.547 412.5C188.597 412.675 188.637 412.849 188.657 413.029C188.936 412.68 189.295 412.43 189.769 412.43L189.849 413.159C189.141 413.094 188.677 413.568 188.677 414.306V416.557H187.839V413.683C187.839 413.094 187.824 412.814 187.784 412.5H188.552H188.547Z" fill="#FF5733"/>
<path d="M193.155 416.013C192.876 416.382 192.407 416.621 191.908 416.621C190.901 416.621 190.193 415.753 190.193 414.531C190.193 413.308 190.901 412.43 191.908 412.43C192.442 412.43 192.941 412.7 193.2 413.094C193.225 412.884 193.265 412.645 193.295 412.505H194.053C194.013 412.774 193.998 413.174 193.998 413.678V416.487C193.998 417.604 193.31 418.308 192.153 418.308C191.22 418.308 190.507 417.844 190.283 417.1L191.095 416.926C191.255 417.365 191.629 417.614 192.148 417.614C192.796 417.614 193.145 417.19 193.145 416.487V416.018L193.155 416.013ZM192.143 415.918C192.781 415.918 193.155 415.369 193.155 414.666V414.411C193.155 413.678 192.766 413.109 192.143 413.109C191.465 413.109 191.041 413.658 191.041 414.531C191.041 415.404 191.465 415.923 192.143 415.923V415.918Z" fill="#FF5733"/>
<path d="M197.653 416.557C197.598 416.382 197.563 416.208 197.544 416.028C197.239 416.377 196.8 416.627 196.307 416.627C195.454 416.627 194.896 416.018 194.896 415.11V412.5H195.743V415.04C195.743 415.584 196.037 415.928 196.511 415.928C197.11 415.928 197.524 415.514 197.524 414.861V412.505H198.371V415.379C198.371 415.968 198.381 416.253 198.426 416.562H197.658L197.653 416.557Z" fill="#FF5733"/>
<path d="M200.027 412.5C200.077 412.675 200.117 412.849 200.137 413.029C200.416 412.68 200.775 412.43 201.244 412.43L201.324 413.159C200.616 413.094 200.152 413.568 200.152 414.306V416.557H199.314V413.683C199.314 413.094 199.299 412.814 199.259 412.5H200.027Z" fill="#FF5733"/>
<path d="M204.391 416.557C204.361 416.427 204.301 416.157 204.286 416.028C203.997 416.387 203.578 416.627 203.079 416.627C202.231 416.627 201.673 416.123 201.673 415.374C201.673 414.671 202.311 414.227 203.373 414.107L204.241 414.002V413.827C204.241 413.413 203.937 413.124 203.513 413.124C203.089 413.124 202.785 413.323 202.69 413.668L201.877 413.533C202.047 412.864 202.675 412.425 203.523 412.425C204.451 412.425 205.089 413.024 205.089 413.942V415.379C205.089 415.968 205.099 416.252 205.139 416.562H204.391V416.557ZM204.246 414.9V414.581L203.398 414.676C202.855 414.74 202.521 414.97 202.521 415.339C202.521 415.708 202.81 415.938 203.239 415.938C203.862 415.938 204.246 415.524 204.246 414.9Z" fill="#FF5733"/>
<path d="M209.816 410.958H210.719L208.619 418.109H207.727L209.816 410.958Z" fill="#FF5733"/>
<path d="M217.381 414.646C217.381 415.714 216.638 416.637 215.401 416.637C214.349 416.637 213.511 415.998 213.272 415.07L214.045 414.8C214.234 415.469 214.748 415.918 215.386 415.918C216.114 415.918 216.503 415.334 216.503 414.666C216.503 413.997 216.134 413.458 215.401 413.458C214.883 413.458 214.514 413.688 214.155 414.087L213.501 413.847L213.995 410.958H217.092V411.662H214.723L214.459 413.089C214.738 412.889 215.067 412.745 215.526 412.745C216.698 412.745 217.376 413.608 217.376 414.646H217.381Z" fill="#FF5733"/>
<path d="M220.293 412.77H224.014V413.433H220.293V412.77ZM220.293 414.162H224.014V414.825H220.293V414.162Z" fill="#FF5733"/>
<path d="M226.642 410.958H227.61L229.121 413.628L230.627 410.958H231.594L229.559 414.426V416.557H228.687V414.426L226.642 410.958Z" fill="#FF5733"/>
</g>
<defs>
<clipPath id="clip0_73_828">
<rect width="470" height="418" fill="white" transform="translate(0 0.303223)"/>
</clipPath>
</defs>
</svg>
