<svg width="121" height="115" viewBox="0 0 121 115" fill="none" xmlns="http://www.w3.org/2000/svg">
<path d="M92.8084 114.269H70.7224C69.9484 114.269 69.2404 113.861 68.8444 113.195L30.5824 48.275C29.2624 46.031 25.8304 47.579 26.6344 50.051L46.5724 111.419C47.0284 112.829 45.9784 114.269 44.5024 114.269H24.9304C23.9884 114.269 23.1484 113.663 22.8604 112.763L0.774448 44.795C0.480448 43.895 0.804448 42.917 1.56645 42.359L19.6444 29.225C20.6884 28.469 22.1524 28.775 22.8064 29.885L60.8104 94.817C62.1244 97.067 65.5684 95.525 64.7584 93.041L39.8524 16.397C39.5584 15.497 39.8824 14.519 40.6444 13.961L58.7464 0.808987C59.7784 0.0589874 61.2304 0.352987 61.8904 1.44499L98.4964 62.135C99.8344 64.355 103.23 62.801 102.432 60.335L91.5004 26.687C90.8464 24.683 93.1444 23.015 94.8544 24.251L119.766 42.353C120.528 42.905 120.846 43.889 120.558 44.789L109.758 78.023C109.182 79.793 106.8 80.075 105.828 78.485L69.2284 18.563C67.8844 16.361 64.5004 17.915 65.2984 20.369L94.8784 111.413C95.3344 112.823 94.2845 114.263 92.8084 114.263V114.269Z" fill="#F9F9F9"/>
</svg>
