<svg width="860" height="624" viewBox="0 0 860 624" fill="none" xmlns="http://www.w3.org/2000/svg">
<rect width="860" height="623.451" transform="translate(0 0.215576)" fill="white"/>
<g clip-path="url(#clip0_2043_73)">
<path d="M335.409 233.293H306.402L299.921 202.464H339.733L335.409 233.293Z" fill="#101010"/>
<path d="M379.544 202.464H340.042L367.507 332.571H407.009L379.544 202.464Z" fill="#101010"/>
<path d="M258.877 202.464H209.804L318.439 332.571H367.507L258.877 202.464Z" fill="#101010"/>
<path d="M759.071 202.464H719.569L740.243 301.741H779.75L759.071 202.464Z" fill="#101010"/>
<path d="M740.244 301.741H689.323L687.781 332.571H736.234L740.244 301.741Z" fill="#101010"/>
<path d="M671.734 202.464L667.106 233.293H718.64L719.569 202.464H671.734Z" fill="#101010"/>
<path d="M667.106 233.293H627.599L648.279 332.571H687.781L667.106 233.293Z" fill="#101010"/>
<path d="M779.745 50.4651H627.599V573.418H779.745V50.4651Z" stroke="#0B6AF4" stroke-miterlimit="10"/>
<path d="M651.344 537.106H652.922V549.426H651.344V537.106ZM652.133 547.935H658.509V549.426H652.133V547.935Z" fill="#101010"/>
<path d="M664.6 537.106H666.093L670.436 549.426H668.794L665.254 538.982H665.454L661.849 549.426H660.187L664.6 537.106ZM662.503 544.817H668.205L668.255 546.309H662.418L662.503 544.817Z" fill="#101010"/>
<path d="M672.313 537.106H673.891V549.426H672.313V537.106ZM673.032 542.907H676.877C677.671 542.907 678.28 542.722 678.699 542.353C679.118 541.984 679.328 541.486 679.328 540.862C679.328 540.194 679.108 539.65 678.664 539.236C678.22 538.822 677.656 538.618 676.962 538.618H673.117V537.111H676.962C677.765 537.111 678.469 537.266 679.069 537.58C679.668 537.894 680.127 538.333 680.452 538.897C680.776 539.46 680.936 540.109 680.936 540.832C680.936 541.555 680.781 542.194 680.466 542.732C680.152 543.276 679.698 543.695 679.108 543.989C678.514 544.284 677.805 544.433 676.977 544.433H673.032V542.907ZM676.003 543.68H677.78L681.44 549.431H679.698L676.008 543.68H676.003Z" fill="#101010"/>
<path d="M685.779 548.897C684.89 548.369 684.181 547.615 683.657 546.643C683.133 545.67 682.868 544.548 682.868 543.276C682.868 542.004 683.133 540.892 683.657 539.914C684.181 538.937 684.885 538.179 685.769 537.645C686.653 537.106 687.601 536.842 688.62 536.842C689.493 536.842 690.317 537.031 691.096 537.41C691.875 537.789 692.489 538.328 692.948 539.021L691.775 540.194C691.406 539.67 690.951 539.256 690.407 538.962C689.863 538.667 689.269 538.518 688.62 538.518C687.881 538.518 687.192 538.712 686.558 539.106C685.919 539.5 685.409 540.054 685.03 540.772C684.651 541.495 684.461 542.318 684.461 543.246C684.461 544.174 684.656 545.017 685.05 545.745C685.439 546.473 685.969 547.037 686.628 547.436C687.287 547.84 687.996 548.039 688.76 548.039C689.399 548.039 689.983 547.91 690.522 547.655C691.061 547.401 691.5 547.002 691.845 546.463C692.189 545.925 692.384 545.261 692.414 544.468H687.431V543.062H694.027V543.7C694.027 545.161 693.757 546.344 693.223 547.236C692.684 548.129 692.015 548.763 691.211 549.137C690.407 549.511 689.573 549.7 688.71 549.7C687.646 549.7 686.673 549.436 685.784 548.902L685.779 548.897Z" fill="#101010"/>
<path d="M698.43 549.227C697.731 548.912 697.172 548.469 696.763 547.885C696.348 547.306 696.144 546.623 696.144 545.84V537.106H697.721V545.421C697.721 546.224 697.986 546.857 698.51 547.321C699.034 547.785 699.778 548.015 700.742 548.015C701.705 548.015 702.449 547.785 702.984 547.326C703.518 546.867 703.782 546.229 703.782 545.416V537.101H705.36V545.835C705.36 546.628 705.155 547.311 704.746 547.89C704.336 548.464 703.782 548.907 703.083 549.222C702.384 549.536 701.606 549.691 700.742 549.691C699.878 549.691 699.134 549.536 698.435 549.222L698.43 549.227Z" fill="#101010"/>
<path d="M708.086 537.106H709.664V549.426H708.086V537.106ZM708.81 542.907H712.654C713.448 542.907 714.057 542.722 714.476 542.353C714.896 541.984 715.106 541.486 715.106 540.862C715.106 540.194 714.886 539.65 714.442 539.236C713.997 538.822 713.433 538.618 712.739 538.618H708.895V537.111H712.739C713.543 537.111 714.247 537.266 714.846 537.58C715.445 537.894 715.904 538.333 716.229 538.897C716.553 539.46 716.713 540.109 716.713 540.832C716.713 541.555 716.558 542.194 716.244 542.732C715.929 543.276 715.475 543.695 714.886 543.989C714.292 544.284 713.583 544.433 712.754 544.433H708.81V542.907ZM711.781 543.68H713.558L717.218 549.431H715.475L711.786 543.68H711.781Z" fill="#101010"/>
<path d="M723.258 537.106H724.751L729.095 549.426H727.452L723.912 538.982H724.112L720.507 549.426H718.845L723.258 537.106ZM721.161 544.817H726.863L726.913 546.309H721.076L721.161 544.817Z" fill="#101010"/>
<path d="M735.086 542.658H741.157V543.85H735.086V542.658ZM735.086 545.306H741.157V546.498H735.086V545.306Z" fill="#101010"/>
<path d="M750.703 543.107V543.022L747.363 537.106H749.141L751.961 542.049H751.727L754.528 537.106H756.305L752.965 543.022V543.107L756.385 549.426H754.608L751.722 544.044H751.956L749.056 549.426H747.278L750.698 543.107H750.703Z" fill="#101010"/>
<path d="M82.6661 163.434V163.369L80.0649 158.76H81.4479L83.6396 162.611H83.4549L85.6367 158.76H87.0197L84.4185 163.364V163.429L87.0846 168.347H85.7016L83.4549 164.157H83.6396L81.378 168.347H80L82.6661 163.429V163.434Z" fill="#101010"/>
<path d="M92.4519 158.76H93.6401L88.5476 170.372H87.3594L92.4519 158.76Z" fill="#101010"/>
<path d="M94.1042 167.19L97.2796 163.484C97.7589 162.925 98.0884 162.506 98.2681 162.217C98.4478 161.928 98.5377 161.623 98.5377 161.304C98.5377 161 98.4628 160.731 98.318 160.501C98.1683 160.272 97.9735 160.097 97.7239 159.972C97.4743 159.853 97.1997 159.788 96.8951 159.788C96.1113 159.788 95.4572 160.192 94.938 161L94.0493 160.257C94.3788 159.733 94.7882 159.319 95.2775 159.01C95.7668 158.701 96.321 158.546 96.95 158.546C97.5092 158.546 98.0035 158.666 98.4478 158.905C98.8872 159.144 99.2317 159.474 99.4813 159.893C99.731 160.312 99.8558 160.78 99.8558 161.299C99.8558 161.638 99.8058 161.953 99.701 162.237C99.5962 162.526 99.4464 162.801 99.2567 163.07C99.0669 163.339 98.7973 163.678 98.4478 164.087L95.8367 167.18H99.9906V168.342H94.1242V167.18L94.1042 167.19Z" fill="#101010"/>
<path d="M164.446 88.4621V88.3972L161.845 83.7935H163.228L165.42 87.6441H165.235L167.417 83.7935H168.8L166.198 88.3972V88.4621L168.864 93.38H167.482L165.235 89.1903H165.42L163.158 93.38H161.775L164.441 88.4621H164.446Z" fill="#101010"/>
<path d="M174.237 83.7886H175.425L170.332 95.4002H169.144L174.237 83.7886Z" fill="#101010"/>
<path d="M175.889 92.2179L179.064 88.5119C179.544 87.9533 179.873 87.5343 180.053 87.245C180.233 86.9557 180.322 86.6515 180.322 86.3322C180.322 86.028 180.247 85.7586 180.103 85.5292C179.953 85.2998 179.758 85.1252 179.509 85.0005C179.259 84.8808 178.984 84.8159 178.68 84.8159C177.896 84.8159 177.242 85.22 176.723 86.028L175.834 85.2848C176.163 84.7611 176.573 84.3471 177.062 84.0378C177.551 83.7286 178.106 83.574 178.735 83.574C179.294 83.574 179.788 83.6937 180.233 83.9331C180.672 84.1725 181.016 84.5017 181.266 84.9207C181.516 85.3397 181.64 85.8085 181.64 86.3273C181.64 86.6664 181.591 86.9807 181.486 87.265C181.381 87.5543 181.231 87.8286 181.041 88.0979C180.852 88.3673 180.582 88.7064 180.233 89.1154L177.621 92.2079H181.775V93.37H175.909V92.2079L175.889 92.2179Z" fill="#101010"/>
<path d="M437.724 88.4621V88.3972L435.123 83.7935H436.506L438.697 87.6441H438.513L440.694 83.7935H442.077L439.476 88.3972V88.4621L442.142 93.38H440.759L438.513 89.1903H438.697L436.436 93.38H435.053L437.719 88.4621H437.724Z" fill="#101010"/>
<path d="M447.514 83.7886H448.703L443.61 95.4002H442.422L447.514 83.7886Z" fill="#101010"/>
<path d="M449.167 92.2179L452.342 88.5119C452.821 87.9533 453.151 87.5343 453.331 87.245C453.51 86.9557 453.6 86.6515 453.6 86.3322C453.6 86.028 453.525 85.7586 453.381 85.5292C453.231 85.2998 453.036 85.1252 452.786 85.0005C452.537 84.8808 452.262 84.8159 451.958 84.8159C451.174 84.8159 450.52 85.22 450.001 86.028L449.112 85.2848C449.441 84.7611 449.851 84.3471 450.34 84.0378C450.829 83.7286 451.383 83.574 452.013 83.574C452.572 83.574 453.066 83.6937 453.51 83.9331C453.95 84.1725 454.294 84.5017 454.544 84.9207C454.793 85.3397 454.918 85.8085 454.918 86.3273C454.918 86.6664 454.868 86.9807 454.764 87.265C454.659 87.5543 454.509 87.8286 454.319 88.0979C454.129 88.3673 453.86 88.7064 453.51 89.1154L450.899 92.2079H455.053V93.37H449.187V92.2079L449.167 92.2179Z" fill="#101010"/>
<path d="M82.6661 369.54V369.476L80.0649 364.872H81.4479L83.6396 368.722H83.4549L85.6367 364.872H87.0197L84.4185 369.476V369.54L87.0846 374.458H85.7016L83.4549 370.269H83.6396L81.378 374.458H80L82.6661 369.54Z" fill="#101010"/>
<path d="M92.4519 364.872H93.6401L88.5476 376.483H87.3594L92.4519 364.872Z" fill="#101010"/>
<path d="M94.1042 373.301L97.2796 369.595C97.7589 369.037 98.0884 368.618 98.2681 368.329C98.4478 368.039 98.5377 367.735 98.5377 367.416C98.5377 367.111 98.4628 366.842 98.318 366.613C98.1683 366.383 97.9735 366.209 97.7239 366.084C97.4743 365.964 97.1997 365.899 96.8951 365.899C96.1113 365.899 95.4572 366.303 94.938 367.111L94.0493 366.368C94.3788 365.845 94.7882 365.431 95.2775 365.121C95.7668 364.812 96.321 364.657 96.95 364.657C97.5092 364.657 98.0035 364.777 98.4478 365.017C98.8872 365.256 99.2317 365.585 99.4813 366.004C99.731 366.423 99.8558 366.892 99.8558 367.411C99.8558 367.75 99.8058 368.064 99.701 368.348C99.5962 368.638 99.4464 368.912 99.2567 369.181C99.0669 369.451 98.7973 369.79 98.4478 370.199L95.8367 373.291H99.9906V374.454H94.1242V373.291L94.1042 373.301Z" fill="#101010"/>
<path d="M490.95 88.5223V88.4574L488.374 83.8936H489.747L491.924 87.7092H491.744L493.906 83.8936H495.279L492.703 88.4574V88.5223L495.344 93.4003H493.971L491.744 89.2505H491.924L489.682 93.4003H488.309L490.95 88.5223Z" fill="#101010"/>
<path d="M500.656 83.8884H501.834L496.787 95.4003H495.608L500.656 83.8884Z" fill="#101010"/>
<path d="M503.551 93.1558C503.072 92.8665 502.693 92.4874 502.418 92.0135C502.144 91.5397 501.999 91.0459 501.989 90.5272H503.152C503.162 90.8464 503.247 91.1606 503.417 91.4649C503.586 91.7691 503.816 92.0235 504.116 92.2131C504.415 92.4076 504.755 92.5024 505.144 92.5024C505.534 92.5024 505.853 92.4076 506.153 92.218C506.452 92.0285 506.692 91.7642 506.867 91.42C507.041 91.0808 507.126 90.6918 507.126 90.2628C507.126 89.8339 507.046 89.4648 506.882 89.1306C506.717 88.7964 506.472 88.542 506.153 88.3525C505.828 88.1679 505.444 88.0732 504.994 88.0732C504.66 88.0732 504.35 88.138 504.071 88.2727C503.791 88.4074 503.556 88.5969 503.367 88.8463H502.343L503.122 83.8784H504.221L503.571 88.0682L503.392 87.8737C503.641 87.6043 503.921 87.4098 504.225 87.2851C504.53 87.1604 504.895 87.0956 505.319 87.0956C505.888 87.0956 506.402 87.2302 506.852 87.5046C507.306 87.7739 507.655 88.153 507.905 88.6368C508.155 89.1206 508.28 89.6643 508.28 90.2778C508.28 90.8913 508.14 91.4749 507.86 91.9786C507.581 92.4824 507.201 92.8764 506.722 93.1558C506.243 93.4351 505.718 93.5747 505.149 93.5747C504.58 93.5747 504.031 93.4301 503.551 93.1408V93.1558ZM503.711 83.8884H507.71V85.0406H503.527L503.706 83.8884H503.711Z" fill="#101010"/>
<path d="M209.804 126.464H133.731V408.57H209.804V126.464Z" stroke="#101010" stroke-width="0.2" stroke-miterlimit="10"/>
<path d="M513.512 126.464H483.082V408.57H513.512V126.464Z" stroke="#101010" stroke-width="0.2" stroke-miterlimit="10"/>
<path d="M483.082 126.464H407.009V408.57H483.082V126.464Z" stroke="#101010" stroke-width="0.2" stroke-miterlimit="10"/>
<path d="M513.512 202.469V126.469L133.731 126.469V202.469L513.512 202.469Z" stroke="#101010" stroke-width="0.2" stroke-miterlimit="10"/>
<path d="M513.512 408.575V332.576H133.731V408.575H513.512Z" stroke="#101010" stroke-width="0.2" stroke-miterlimit="10"/>
</g>
<defs>
<clipPath id="clip0_2043_73">
<rect width="700" height="523.451" fill="white" transform="translate(80 50.2156)"/>
</clipPath>
</defs>
</svg>
