<svg width="860" height="435" viewBox="0 0 860 435" fill="none" xmlns="http://www.w3.org/2000/svg">
<rect width="860" height="434.225" transform="translate(0 -0.00976562)" fill="white"/>
<g clip-path="url(#clip0_73_827)">
<path d="M779.853 75.9053H105.205V331.713H779.853V75.9053Z" stroke="#101010" stroke-width="0.2" stroke-miterlimit="10"/>
<path d="M660.121 165.474H636.852L649.033 223.976H672.303L660.121 165.474Z" fill="#101010"/>
<path d="M649.033 223.976H619.038L618.126 242.144H646.669L649.033 223.976Z" fill="#101010"/>
<path d="M608.674 165.474L605.947 183.642H636.307L636.852 165.474H608.674Z" fill="#101010"/>
<path d="M605.947 183.642H582.678L594.857 242.143H618.126L605.947 183.642Z" fill="#101010"/>
<path d="M555.408 165.474H575.952L579.769 183.642H552.682L555.408 165.474Z" fill="#101010"/>
<path d="M548.862 165.474H525.592L541.774 242.143H565.043L548.862 165.474Z" fill="#101010"/>
<path d="M503.232 223.976H530.501L534.318 242.143H500.505L503.232 223.976Z" fill="#101010"/>
<path d="M490.87 165.474H511.413L515.231 183.642H488.144L490.87 165.474Z" fill="#101010"/>
<path d="M480.509 147.307H457.237L477.236 242.143H500.505L480.509 147.307Z" fill="#101010"/>
<path d="M426.697 165.474L422.515 183.642H457.058L453.24 165.474H426.697Z" fill="#101010"/>
<path d="M426.515 223.976H391.973L395.79 242.144H422.333L426.515 223.976Z" fill="#101010"/>
<path d="M408.154 165.474H379.794L440.876 242.143H469.419L408.154 165.474Z" fill="#101010"/>
<path d="M268.82 183.642H251.732L247.915 165.474H271.367L268.82 183.642Z" fill="#101010"/>
<path d="M294.819 165.474H271.546L287.728 242.143H310.997L294.819 165.474Z" fill="#101010"/>
<path d="M223.737 165.474H194.83L258.823 242.143H287.728L223.737 165.474Z" fill="#101010"/>
<path d="M342.449 195.09H372.444L376.262 212.531H340.084L342.449 195.09Z" fill="#101010"/>
<path d="M348.992 223.976H385.896L389.714 242.144H346.266L348.992 223.976Z" fill="#101010"/>
<path d="M336.631 165.474H373.535L377.353 183.642H333.905L336.631 165.474Z" fill="#101010"/>
<path d="M330.084 165.474H306.815L322.996 242.143H346.266L330.084 165.474Z" fill="#101010"/>
<path d="M779.853 165.474V75.9053L105.205 75.9053V165.474L779.853 165.474Z" stroke="#101010" stroke-width="0.2" stroke-miterlimit="10"/>
<path d="M779.85 331.713V242.143L105.202 242.143V331.713L779.85 331.713Z" stroke="#101010" stroke-width="0.2" stroke-miterlimit="10"/>
<path d="M761.927 75.9053H672.302V331.713H761.927V75.9053Z" stroke="#101010" stroke-width="0.2" stroke-miterlimit="10"/>
<path d="M672.303 75.9053H582.678V384.069H672.303V75.9053Z" stroke="#0B6AF4" stroke-miterlimit="10"/>
<path d="M194.829 75.9053H105.205V331.713H194.829V75.9053Z" stroke="#101010" stroke-width="0.2" stroke-miterlimit="10"/>
<path d="M596.662 362.671H597.591V369.931H596.662V362.671ZM597.127 369.052H600.882V369.931H597.127V369.052Z" fill="#101010"/>
<path d="M604.47 362.671H605.35L607.909 369.931H606.941L604.856 363.776H604.973L602.85 369.931H601.871L604.47 362.671ZM603.235 367.215H606.594L606.623 368.094H603.185L603.235 367.215Z" fill="#101010"/>
<path d="M609.015 362.671H609.944V369.931H609.015V362.671ZM609.441 366.089H611.706C612.173 366.089 612.532 365.981 612.779 365.763C613.026 365.546 613.15 365.252 613.15 364.884C613.15 364.491 613.02 364.17 612.759 363.926C612.497 363.682 612.165 363.562 611.756 363.562H609.491V362.674H611.756C612.229 362.674 612.644 362.765 612.997 362.95C613.35 363.136 613.62 363.394 613.811 363.726C614.003 364.058 614.097 364.441 614.097 364.867C614.097 365.293 614.006 365.669 613.82 365.987C613.635 366.307 613.367 366.554 613.02 366.727C612.67 366.901 612.253 366.989 611.765 366.989H609.441V366.089ZM611.188 366.545H612.235L614.391 369.934H613.364L611.191 366.545H611.188Z" fill="#101010"/>
<path d="M616.947 369.619C616.423 369.308 616.005 368.864 615.697 368.291C615.388 367.718 615.232 367.056 615.232 366.307C615.232 365.557 615.388 364.902 615.697 364.326C616.005 363.75 616.42 363.303 616.941 362.989C617.461 362.671 618.02 362.515 618.62 362.515C619.135 362.515 619.62 362.627 620.079 362.85C620.538 363.074 620.899 363.391 621.17 363.8L620.479 364.491C620.261 364.182 619.993 363.938 619.673 363.765C619.352 363.591 619.002 363.503 618.62 363.503C618.185 363.503 617.779 363.618 617.405 363.85C617.029 364.082 616.729 364.408 616.505 364.831C616.282 365.258 616.17 365.743 616.17 366.289C616.17 366.836 616.285 367.333 616.517 367.762C616.747 368.191 617.058 368.523 617.447 368.758C617.835 368.996 618.252 369.114 618.702 369.114C619.079 369.114 619.423 369.037 619.741 368.888C620.058 368.738 620.317 368.503 620.52 368.185C620.723 367.868 620.838 367.477 620.855 367.009H617.92V366.181H621.805V366.557C621.805 367.418 621.646 368.115 621.332 368.641C621.014 369.167 620.62 369.54 620.146 369.76C619.673 369.981 619.182 370.093 618.673 370.093C618.046 370.093 617.473 369.937 616.949 369.622L616.947 369.619Z" fill="#101010"/>
<path d="M624.399 369.813C623.987 369.628 623.658 369.367 623.416 369.023C623.172 368.682 623.052 368.279 623.052 367.818V362.671H623.981V367.571C623.981 368.044 624.137 368.417 624.446 368.691C624.755 368.964 625.193 369.099 625.76 369.099C626.328 369.099 626.766 368.964 627.081 368.694C627.396 368.423 627.552 368.047 627.552 367.568V362.668H628.481V367.815C628.481 368.282 628.36 368.685 628.119 369.026C627.878 369.364 627.552 369.625 627.14 369.81C626.728 369.996 626.269 370.087 625.76 370.087C625.252 370.087 624.813 369.996 624.402 369.81L624.399 369.813Z" fill="#101010"/>
<path d="M630.09 362.671H631.019V369.931H630.09V362.671ZM630.513 366.089H632.778C633.246 366.089 633.604 365.981 633.851 365.763C634.098 365.546 634.222 365.252 634.222 364.884C634.222 364.491 634.093 364.17 633.831 363.926C633.569 363.682 633.237 363.562 632.828 363.562H630.563V362.674H632.828C633.301 362.674 633.716 362.765 634.069 362.95C634.422 363.136 634.693 363.394 634.884 363.726C635.075 364.058 635.169 364.441 635.169 364.867C635.169 365.293 635.078 365.669 634.893 365.987C634.707 366.307 634.44 366.554 634.093 366.727C633.743 366.901 633.325 366.989 632.837 366.989H630.513V366.089ZM632.263 366.545H633.31L635.466 369.934H634.44L632.266 366.545H632.263Z" fill="#101010"/>
<path d="M639.025 362.671H639.904L642.463 369.931H641.495L639.41 363.776H639.528L637.404 369.931H636.425L639.025 362.671ZM637.789 367.215H641.148L641.178 368.094H637.739L637.789 367.215Z" fill="#101010"/>
<path d="M645.992 365.942H649.568V366.645H645.992V365.942ZM645.992 367.503H649.568V368.206H645.992V367.503Z" fill="#101010"/>
<path d="M655.194 366.207V366.157L653.227 362.671H654.274L655.935 365.584H655.797L657.447 362.671H658.494L656.527 366.157V366.207L658.541 369.931H657.494L655.794 366.76H655.932L654.224 369.931H653.177L655.191 366.207H655.194Z" fill="#101010"/>
<path d="M82.0175 286.408V286.358L80.05 282.872H81.097L82.7587 285.785H82.6205L84.2704 282.872H85.3174L83.3498 286.358V286.408L85.3674 290.132H84.3204L82.6205 286.96H82.7587L81.0499 290.132H80L82.0175 286.408Z" fill="#101010"/>
<path d="M82.0175 120.17V120.12L80.05 116.634H81.097L82.7587 119.547H82.6205L84.2704 116.634H85.3174L83.3498 120.12V120.17L85.3674 123.894H84.3204L82.6205 120.722H82.7587L81.0499 123.894H80L82.0175 120.17Z" fill="#101010"/>
<path d="M149.35 53.5261V53.4761L147.382 49.9902H148.429L150.091 52.903H149.952L151.602 49.9902H152.649L150.682 53.4761V53.5261L152.696 57.2501H151.649L149.95 54.0787H150.088L148.379 57.2501H147.332L149.347 53.5261H149.35Z" fill="#101010"/>
<path d="M716.447 53.5261V53.4761L714.48 49.9902H715.527L717.188 52.903H717.05L718.7 49.9902H719.747L717.78 53.4761V53.5261L719.794 57.2501H718.747L717.047 54.0787H717.185L715.477 57.2501H714.43L716.444 53.5261H716.447Z" fill="#101010"/>
<path d="M765.274 53.5261V53.4761L763.307 49.9902H764.354L766.016 52.903H765.877L767.527 49.9902H768.574L766.607 53.4761V53.5261L768.624 57.2501H767.577L765.877 54.0787H766.016L764.307 57.2501H763.26L765.277 53.5261H765.274Z" fill="#101010"/>
<path d="M772.68 49.9902H773.58L769.724 58.7814H768.824L772.68 49.9902Z" fill="#101010"/>
<path d="M774.892 57.0678C774.527 56.8474 774.239 56.5564 774.027 56.1949C773.815 55.8334 773.707 55.4542 773.701 55.0604H774.589C774.595 55.3043 774.662 55.5424 774.792 55.7775C774.921 56.0127 775.098 56.2008 775.324 56.3507C775.551 56.4976 775.812 56.574 776.109 56.574C776.406 56.574 776.651 56.5006 776.88 56.3565C777.109 56.2125 777.292 56.0097 777.424 55.7481C777.556 55.4895 777.621 55.1926 777.621 54.8634C777.621 54.5342 777.559 54.2521 777.433 53.9993C777.306 53.7465 777.121 53.5496 776.874 53.4056C776.627 53.2645 776.333 53.194 775.989 53.194C775.733 53.194 775.495 53.2439 775.283 53.3468C775.068 53.4497 774.889 53.5966 774.745 53.7847H773.965L774.56 49.9932H775.401L774.907 53.194L774.768 53.047C774.959 52.8442 775.171 52.6943 775.406 52.5973C775.639 52.5033 775.918 52.4533 776.242 52.4533C776.677 52.4533 777.068 52.5562 777.412 52.7648C777.759 52.9735 778.027 53.2616 778.218 53.629C778.409 53.9964 778.503 54.4167 778.503 54.884C778.503 55.3513 778.398 55.7981 778.183 56.1831C777.968 56.5682 777.68 56.868 777.312 57.0825C776.948 57.2971 776.548 57.4029 776.112 57.4029C775.677 57.4029 775.257 57.2912 774.892 57.0708V57.0678ZM775.015 49.9902H778.068V50.8691H774.877L775.015 49.9902Z" fill="#101010"/>
</g>
<defs>
<clipPath id="clip0_73_827">
<rect width="700" height="334.225" fill="white" transform="translate(80 49.9902)"/>
</clipPath>
</defs>
</svg>
