<svg width="175" height="175" viewBox="0 0 175 175" fill="none" xmlns="http://www.w3.org/2000/svg">
<path d="M135.124 70.7699L114.979 56.1312C113.596 55.1284 111.741 56.4768 112.267 58.0982L118.811 78.2366C118.983 78.2342 119.159 78.2294 119.338 78.2294C119.159 78.2294 118.983 78.2318 118.811 78.2366L121.107 85.3095C121.754 87.3006 119.007 88.5572 117.924 86.7618L88.323 37.6891C87.7914 36.8023 86.617 36.5655 85.7785 37.172L71.1399 47.8091C70.5237 48.2586 70.2627 49.0536 70.5019 49.7761L79.984 78.9567C80.0806 78.8963 80.1797 78.8383 80.2812 78.7852C80.1797 78.8383 80.0806 78.8939 79.984 78.9567L90.638 111.752C91.2904 113.758 88.5067 115.007 87.4435 113.185L77.8889 96.8648L56.7138 60.6838C56.1871 59.7849 55.0006 59.5384 54.1573 60.1497L39.5379 70.7723C38.9218 71.2218 38.6608 72.0168 38.9 72.7393L56.7598 127.706C56.9942 128.433 57.6707 128.923 58.4343 128.923H74.2619C75.4604 128.923 76.3086 127.756 75.9365 126.618L60.2128 78.2366L59.8117 76.9994C59.1641 74.9962 61.9357 73.7445 63.0038 75.5592L93.9436 128.058C94.2602 128.595 94.8401 128.928 95.4611 128.928H113.321C114.519 128.926 115.368 127.759 114.995 126.623L91.0729 52.9996C90.4277 51.0133 93.1631 49.7543 94.2529 51.5376L123.854 99.9917C124.202 100.562 124.78 100.835 125.35 100.835C125.555 100.835 125.763 100.799 125.956 100.729C125.959 100.729 125.964 100.726 125.968 100.721C126.444 100.555 126.85 100.178 127.029 99.6171L135.762 72.7441C135.997 72.0216 135.74 71.2266 135.119 70.7772L135.124 70.7699ZM82.8136 78.2318C82.4656 78.2318 82.137 78.2584 81.8229 78.3043C82.137 78.256 82.468 78.2318 82.8136 78.2318ZM65.3477 100.828C65.6691 100.828 65.9397 100.598 66.0026 100.291C65.9397 100.598 65.6715 100.828 65.3477 100.828Z" fill="#FF5733"/>
<path d="M107.64 96.8624H105.141C104.774 96.8624 104.474 96.5628 104.474 96.1906V87.3103C104.474 83.0622 102.865 80.3824 99.5666 79.1114C98.0322 78.5145 96.1305 78.2294 93.8566 78.2294H90.6476C90.2755 78.2294 89.9759 78.529 89.9759 78.8963V81.5206C89.9759 81.8927 90.2755 82.1923 90.6476 82.1923H93.8131C97.9911 82.1923 100.168 83.7678 100.168 86.6264V86.6385C100.168 87.0107 99.8687 87.3103 99.4966 87.3103H95.9033C89.379 87.3103 85.6263 89.9949 85.6263 94.8109C85.6263 98.9043 88.3134 101.251 93.3008 101.251C97.0922 101.251 99.0133 99.8757 99.4627 96.628C99.5086 96.297 99.7889 96.0481 100.125 96.0481H100.134C100.507 96.0481 100.806 96.3477 100.806 96.715V100.151C100.806 100.523 101.106 100.823 101.473 100.823H107.64C108.012 100.823 108.312 100.523 108.312 100.151V97.5269C108.312 97.1596 108.012 96.86 107.64 96.86V96.8624ZM100.168 92.1311C100.168 95.415 97.6093 97.6284 93.9871 97.6284C91.3411 97.6284 89.9348 96.4782 89.9348 94.5185C89.9348 92.0441 92.0685 90.9349 96.9279 90.9349H99.499C99.8711 90.9349 100.171 91.2346 100.171 91.6067V92.1311H100.168Z" fill="#F9F9F9"/>
<path d="M126.007 78.8987V81.523C126.007 81.8951 125.707 82.1947 125.34 82.1947H119.386C117.83 82.1947 116.552 82.4122 115.558 82.8375L113.367 79.2032C114.846 78.6015 116.665 78.2826 118.813 78.2391C118.985 78.2366 119.161 78.2318 119.34 78.2318H125.34C125.707 78.2318 126.007 78.5314 126.007 78.8987Z" fill="#F9F9F9"/>
<path d="M125.352 100.828H119.34C112.434 100.828 108.725 98.1407 108.725 92.3848V86.6724C108.725 83.6567 109.745 81.4843 111.709 80.0997L114.022 83.8838C113.364 84.5918 113.031 85.5125 113.031 86.6289V92.4259C113.031 95.2821 115.206 96.8624 119.386 96.8624H121.952L123.859 99.982C124.207 100.552 124.784 100.825 125.355 100.825L125.352 100.828Z" fill="#F9F9F9"/>
<path d="M77.901 100.828H68.2619C67.8898 100.828 67.5901 100.528 67.5901 100.156V97.5318C67.5901 97.1645 67.8898 96.8648 68.2619 96.8648H71.9518C72.3239 96.8648 72.6236 96.5652 72.6236 96.1931V91.8749L77.901 100.83V100.828Z" fill="#F9F9F9"/>
<path d="M82.6444 97.5293V100.154C82.6444 100.526 82.3448 100.825 81.9727 100.825H80.2111L77.8913 96.8624H81.9727C82.3448 96.8624 82.6444 97.162 82.6444 97.5293Z" fill="#F9F9F9"/>
<path d="M87.5449 78.8987V81.523C87.5449 81.8951 87.2453 82.1947 86.878 82.1947H82.8136C82.1708 82.1947 81.6054 82.2624 81.1003 82.3905C77.4709 83.3063 77.1423 87.2861 77.1423 91.1065V95.5817L72.6236 87.8612V82.8617C72.6236 82.4944 72.3239 82.1947 71.9518 82.1947H69.3058L68.4431 80.7231V78.8987C68.4431 78.5314 68.7428 78.2318 69.1149 78.2318H75.6199C75.992 78.2318 76.2917 78.5314 76.2917 78.8987V83.357C76.2917 83.5431 76.3666 83.7122 76.4874 83.8331C76.6082 83.9539 76.7774 84.0288 76.9586 84.0288C77.2969 84.0288 77.5845 83.7751 77.6231 83.4392C77.8744 81.2692 78.6791 79.7711 79.984 78.9567C80.7524 78.471 81.6996 78.2294 82.8112 78.2294H86.8756C87.2429 78.2294 87.5425 78.529 87.5425 78.8963L87.5449 78.8987Z" fill="#F9F9F9"/>
<path d="M55.3993 82.8641V92.0876C55.3993 95.5817 56.8902 96.8624 61.0272 96.8624H65.3453C65.7126 96.8624 66.0122 97.162 66.0122 97.5293V100.154C66.0122 100.526 65.7126 100.825 65.3453 100.825H60.5994C53.6909 100.825 50.8758 98.4379 50.8758 92.2978V82.8617C50.8758 82.4944 50.5761 82.1947 50.2088 82.1947H45.8762C45.5089 82.1947 45.2093 81.8951 45.2093 81.523V78.8987C45.2093 78.5314 45.5089 78.2318 45.8762 78.2318H50.2088C50.5761 78.2318 50.8758 77.9322 50.8758 77.5601V72.14C50.8758 71.7727 51.1754 71.4731 51.5475 71.4731H54.7276C55.0997 71.4731 55.3993 71.7727 55.3993 72.14V77.5601C55.3993 77.9322 55.699 78.2318 56.0662 78.2318H64.5817L66.0146 80.6627V81.5254C66.0146 81.8975 65.715 82.1972 65.3477 82.1972H56.0687C55.7014 82.1972 55.4017 82.4968 55.4017 82.8641H55.3993Z" fill="#F9F9F9"/>
</svg>
