<svg width="175" height="80" viewBox="0 0 175 80" fill="none" xmlns="http://www.w3.org/2000/svg">
<path d="M48.788 56.1549H41.099C40.8307 56.1549 40.5818 56.0123 40.4465 55.7827L27.1272 33.182C26.6681 32.4015 25.472 32.9403 25.7523 33.8006L32.6946 55.1641C32.8541 55.6547 32.4893 56.1573 31.9746 56.1573H25.1603C24.8316 56.1573 24.5416 55.9446 24.4402 55.6329L16.7511 31.9689C16.6496 31.6572 16.7608 31.3141 17.0266 31.1208L23.3189 26.5489C23.6814 26.2855 24.1913 26.3918 24.4184 26.7785L37.6483 49.3816C38.1074 50.1646 39.3036 49.6281 39.0233 48.7655L30.3531 22.0858C30.2516 21.7741 30.3628 21.4309 30.6286 21.2376L36.9306 16.6585C37.2907 16.3975 37.7957 16.499 38.0253 16.8808L50.7695 38.0076C51.2358 38.7784 52.4175 38.2395 52.1396 37.3817L48.3337 25.6669C48.1066 24.9686 48.9064 24.3886 49.5009 24.8187L58.1734 31.1208C58.4392 31.3141 58.5503 31.6572 58.4489 31.9689L54.6913 43.5387C54.4908 44.1549 53.6619 44.2516 53.3236 43.7006L40.5794 22.8397C40.1106 22.0737 38.9338 22.615 39.2117 23.4704L49.5105 55.1666C49.67 55.6571 49.3051 56.1597 48.7904 56.1597L48.788 56.1549Z" fill="#FF5733"/>
<path d="M130.405 41.6588C130.405 34.9822 126.701 31.9182 119.019 31.9182H115.575C115.179 31.9182 114.858 32.2396 114.858 32.6359V35.4534C114.858 35.8497 115.179 36.1711 115.575 36.1711H118.973C123.455 36.1711 125.787 37.8626 125.787 40.9266V40.9411C125.787 41.3374 125.466 41.6588 125.07 41.6588H121.215C114.22 41.6588 110.194 44.5391 110.194 49.7079C110.194 54.0985 113.074 56.614 118.424 56.614C122.489 56.614 124.55 55.1424 125.033 51.6579C125.082 51.3027 125.384 51.0345 125.744 51.0345H125.756C126.152 51.0345 126.473 51.3559 126.473 51.7522V55.4372C126.473 55.8335 126.795 56.1549 127.191 56.1549H133.802C134.199 56.1549 134.52 55.8335 134.52 55.4372V52.6197C134.52 52.2234 134.199 51.902 133.802 51.902H131.123C130.726 51.902 130.405 51.5806 130.405 51.1843V41.6588ZM125.787 46.8251C125.787 50.3458 123.045 52.7236 119.157 52.7236C116.322 52.7236 114.812 51.4888 114.812 49.3865C114.812 46.7332 117.098 45.5444 122.312 45.5444H125.07C125.466 45.5444 125.787 45.8658 125.787 46.2621V46.8251Z" fill="#F9F9F9"/>
<path d="M139.585 40.9266C139.585 37.8626 141.917 36.1711 146.399 36.1711H152.786C153.182 36.1711 153.504 35.8497 153.504 35.4534V32.6359C153.504 32.2396 153.182 31.9182 152.786 31.9182H146.353C138.945 31.9182 134.967 34.7986 134.967 40.9725V47.1005C134.967 53.2745 138.945 56.1549 146.353 56.1549H153.061C153.458 56.1549 153.779 55.8335 153.779 55.4372V52.6197C153.779 52.2234 153.458 51.902 153.061 51.902H146.399C141.917 51.902 139.585 50.2105 139.585 47.1465V40.9266Z" fill="#F9F9F9"/>
<path d="M107.174 36.1711H111.53C111.927 36.1711 112.248 35.8497 112.248 35.4534V32.6359C112.248 32.2396 111.927 31.9182 111.53 31.9182H107.174C103.967 31.9182 102.034 33.8078 101.606 37.5074C101.565 37.8674 101.258 38.138 100.896 38.138C100.499 38.138 100.178 37.8167 100.178 37.4204V32.6383C100.178 32.242 99.8566 31.9206 99.4603 31.9206H92.4817C92.0854 31.9206 91.764 32.242 91.764 32.6383V35.4558C91.764 35.8521 92.0854 36.1735 92.4817 36.1735H95.5264C95.9227 36.1735 96.2441 36.4949 96.2441 36.8912V51.1867C96.2441 51.583 95.9227 51.9044 95.5264 51.9044H91.5659C91.1696 51.9044 90.8482 52.2258 90.8482 52.6221V55.4396C90.8482 55.8359 91.1696 56.1573 91.5659 56.1573H106.272C106.669 56.1573 106.99 55.8359 106.99 55.4396V52.6221C106.99 52.2258 106.669 51.9044 106.272 51.9044H101.809C101.413 51.9044 101.091 51.583 101.091 51.1867V45.7304C101.091 41.0667 101.548 36.1735 107.174 36.1735V36.1711Z" fill="#F9F9F9"/>
<path d="M89.1567 32.6359C89.1567 32.2396 88.8353 31.9182 88.439 31.9182H78.4882C78.0919 31.9182 77.7705 31.5968 77.7705 31.2005V25.389C77.7705 24.9927 77.4492 24.6713 77.0529 24.6713H73.6409C73.2446 24.6713 72.9232 24.9927 72.9232 25.389V31.2005C72.9232 31.5968 72.6018 31.9182 72.2055 31.9182H67.5588C67.1625 31.9182 66.8411 32.2396 66.8411 32.6359V35.4534C66.8411 35.8497 67.1625 36.1711 67.5588 36.1711H72.2055C72.6018 36.1711 72.9232 36.4925 72.9232 36.8888V47.0087C72.9232 53.5935 75.9413 56.1549 83.3501 56.1549H88.439C88.8353 56.1549 89.1567 55.8335 89.1567 55.4372V52.6197C89.1567 52.2234 88.8353 51.902 88.439 51.902H83.8068C79.3702 51.902 77.7705 50.5294 77.7705 46.7816V36.8912C77.7705 36.4949 78.0919 36.1735 78.4882 36.1735H88.439C88.8353 36.1735 89.1567 35.8521 89.1567 35.4558V32.6359Z" fill="#F9F9F9"/>
</svg>
