<svg width="287" height="110" viewBox="0 0 287 110" fill="none" xmlns="http://www.w3.org/2000/svg">
<path d="M235.791 38.6865H225.903L231.079 63.5601H240.967L235.791 38.6865Z" fill="#101010"/>
<path d="M231.079 63.5601H218.333L217.947 71.2843H230.075L231.079 63.5601Z" fill="#101010"/>
<path d="M213.93 38.6865L212.772 46.4108H225.672L225.903 38.6865H213.93Z" fill="#101010"/>
<path d="M212.772 46.4108H202.884L208.059 71.2843H217.947L212.772 46.4108Z" fill="#101010"/>
<path d="M191.297 38.6865H200.026L201.648 46.4108H190.137L191.297 38.6865Z" fill="#101010"/>
<path d="M188.515 38.6865H178.628L185.504 71.2843H195.391L188.515 38.6865Z" fill="#101010"/>
<path d="M169.127 63.5601H180.714L182.336 71.2843H167.968L169.127 63.5601Z" fill="#101010"/>
<path d="M163.874 38.6865H172.603L174.225 46.4108H162.716L163.874 38.6865Z" fill="#101010"/>
<path d="M159.472 30.9623H149.583L158.081 71.2843H167.968L159.472 30.9623Z" fill="#101010"/>
<path d="M136.606 38.6865L134.829 46.4108H149.507L147.883 38.6865H136.606Z" fill="#101010"/>
<path d="M136.529 63.5601H121.851L123.473 71.2843H134.752L136.529 63.5601Z" fill="#101010"/>
<path d="M128.727 38.6865H116.677L142.631 71.2843H154.759L128.727 38.6865Z" fill="#101010"/>
<path d="M69.5225 46.4108H62.2619L60.6398 38.6865H70.6047L69.5225 46.4108Z" fill="#101010"/>
<path d="M80.5696 38.6865H70.6809L77.5566 71.2843H87.4441L80.5696 38.6865Z" fill="#101010"/>
<path d="M50.3649 38.6865H38.0831L65.2736 71.2843H77.5566L50.3649 38.6865Z" fill="#101010"/>
<path d="M100.808 51.2783H113.554L115.176 58.6938H99.8034L100.808 51.2783Z" fill="#101010"/>
<path d="M103.589 63.5601H119.27L120.892 71.2843H102.43L103.589 63.5601Z" fill="#101010"/>
<path d="M98.3363 38.6865H114.017L115.639 46.4108H97.1766L98.3363 38.6865Z" fill="#101010"/>
<path d="M95.5545 38.6865H85.667L92.5428 71.2843H102.43L95.5545 38.6865Z" fill="#101010"/>
</svg>
