<svg width="287" height="110" viewBox="0 0 287 110" fill="none" xmlns="http://www.w3.org/2000/svg">
<path d="M236.124 38.6865H226.237L231.413 63.5601H241.3L236.124 38.6865Z" fill="#0B6AF4"/>
<path d="M231.413 63.5601H218.666L218.28 71.2843H230.408L231.413 63.5601Z" fill="#0B6AF4"/>
<path d="M214.264 38.6865L213.105 46.4108H226.006L226.237 38.6865H214.264Z" fill="#0B6AF4"/>
<path d="M213.105 46.4108H203.218L208.393 71.2843H218.28L213.105 46.4108Z" fill="#0B6AF4"/>
<path d="M191.631 38.6865H200.36L201.982 46.4108H190.471L191.631 38.6865Z" fill="#0B6AF4"/>
<path d="M188.849 38.6865H178.961L185.837 71.2843H195.725L188.849 38.6865Z" fill="#0B6AF4"/>
<path d="M169.46 63.5601H181.047L182.669 71.2843H168.302L169.46 63.5601Z" fill="#0B6AF4"/>
<path d="M164.208 38.6865H172.937L174.559 46.4108H163.049L164.208 38.6865Z" fill="#0B6AF4"/>
<path d="M159.805 30.9623H149.917L158.414 71.2843H168.302L159.805 30.9623Z" fill="#0B6AF4"/>
<path d="M136.94 38.6865L135.163 46.4108H149.84L148.217 38.6865H136.94Z" fill="#0B6AF4"/>
<path d="M136.862 63.5601H122.185L123.807 71.2843H135.085L136.862 63.5601Z" fill="#0B6AF4"/>
<path d="M129.061 38.6865H117.01L142.965 71.2843H155.093L129.061 38.6865Z" fill="#0B6AF4"/>
<path d="M69.856 46.4108H62.5954L60.9733 38.6865H70.9382L69.856 46.4108Z" fill="#0B6AF4"/>
<path d="M80.9031 38.6865H71.0144L77.8902 71.2843H87.7776L80.9031 38.6865Z" fill="#0B6AF4"/>
<path d="M50.6984 38.6865H38.4166L65.6071 71.2843H77.8902L50.6984 38.6865Z" fill="#0B6AF4"/>
<path d="M101.142 51.2783H113.887L115.509 58.6938H100.137L101.142 51.2783Z" fill="#0B6AF4"/>
<path d="M103.922 63.5601H119.603L121.225 71.2843H102.764L103.922 63.5601Z" fill="#0B6AF4"/>
<path d="M98.6698 38.6865H114.351L115.973 46.4108H97.5101L98.6698 38.6865Z" fill="#0B6AF4"/>
<path d="M95.888 38.6865H86.0006L92.8763 71.2843H102.764L95.888 38.6865Z" fill="#0B6AF4"/>
</svg>
