<svg width="288" height="110" viewBox="0 0 288 110" fill="none" xmlns="http://www.w3.org/2000/svg">
<path d="M236.458 38.6865H226.57L231.746 63.5601H241.634L236.458 38.6865Z" fill="white"/>
<path d="M231.746 63.5601H219L218.613 71.2843H230.742L231.746 63.5601Z" fill="white"/>
<path d="M214.597 38.6865L213.438 46.4107H226.339L226.57 38.6865H214.597Z" fill="white"/>
<path d="M213.438 46.4107H203.551L208.726 71.2843H218.613L213.438 46.4107Z" fill="white"/>
<path d="M191.964 38.6865H200.693L202.315 46.4107H190.804L191.964 38.6865Z" fill="white"/>
<path d="M189.182 38.6865H179.295L186.17 71.2843H196.058L189.182 38.6865Z" fill="white"/>
<path d="M169.793 63.5601H181.38L183.003 71.2843H168.635L169.793 63.5601Z" fill="white"/>
<path d="M164.541 38.6865H173.27L174.892 46.4107H163.383L164.541 38.6865Z" fill="white"/>
<path d="M160.138 30.9622H150.25L158.748 71.2843H168.635L160.138 30.9622Z" fill="white"/>
<path d="M137.273 38.6865L135.496 46.4107H150.174L148.55 38.6865H137.273Z" fill="white"/>
<path d="M137.196 63.5601H122.518L124.14 71.2843H135.419L137.196 63.5601Z" fill="white"/>
<path d="M129.394 38.6865H117.343L143.298 71.2843H155.426L129.394 38.6865Z" fill="white"/>
<path d="M70.1891 46.4107H62.9285L61.3064 38.6865H71.2713L70.1891 46.4107Z" fill="white"/>
<path d="M81.2362 38.6865H71.3475L78.2233 71.2843H88.1107L81.2362 38.6865Z" fill="white"/>
<path d="M51.0315 38.6865H38.7497L65.9402 71.2843H78.2233L51.0315 38.6865Z" fill="white"/>
<path d="M101.475 51.2782H114.22L115.842 58.6938H100.47L101.475 51.2782Z" fill="white"/>
<path d="M104.255 63.5601H119.936L121.558 71.2843H103.097L104.255 63.5601Z" fill="white"/>
<path d="M99.0029 38.6865H114.684L116.306 46.4107H97.8432L99.0029 38.6865Z" fill="white"/>
<path d="M96.2211 38.6865H86.3337L93.2094 71.2843H103.097L96.2211 38.6865Z" fill="white"/>
</svg>
