<svg width="109" height="65" viewBox="0 0 109 65" fill="none" xmlns="http://www.w3.org/2000/svg">
<path d="M2.33256 0.0849609C0.682557 0.0849609 -0.267442 1.38496 0.282558 2.93496L19.4326 61.885C19.9326 63.435 21.7326 64.735 23.3826 64.735H85.3826C87.0326 64.735 88.7826 63.435 89.3326 61.885L108.483 2.93496C108.983 1.38496 108.083 0.0849609 106.433 0.0849609H2.33256ZM85.4326 7.58496C87.0826 7.58496 87.3826 8.43496 86.1326 9.48496L56.6326 33.785C55.3826 34.835 53.2826 34.835 51.9826 33.785L22.4826 9.48496C21.2326 8.43496 21.5326 7.58496 23.1826 7.58496H85.3826H85.4326ZM83.7826 54.385C83.2826 55.935 81.4826 57.235 79.8326 57.235H28.7826C27.1326 57.235 25.3826 55.935 24.8326 54.385L11.0326 11.835C10.5326 10.285 11.1326 9.83496 12.4326 10.885L52.0326 43.535C53.2826 44.585 55.3826 44.585 56.6826 43.535L96.2826 10.885C97.5326 9.83496 98.1826 10.285 97.6826 11.835L83.8326 54.385H83.7826Z" fill="#FF5733"/>
</svg>
