<svg width="91" height="90" viewBox="0 0 91 90" fill="none" xmlns="http://www.w3.org/2000/svg">
<path d="M53.6332 19.8549C54.1332 21.4049 55.7832 22.1049 57.2332 21.3549L66.1332 16.8049C67.5832 16.0549 69.7832 16.4049 70.9332 17.5549L72.7832 19.4049C73.9332 20.5549 74.2832 22.7049 73.5332 24.2049L68.9832 33.1049C68.2332 34.5549 68.8832 36.2049 70.4832 36.7049L79.9832 39.8049C81.5332 40.3049 82.8332 42.1049 82.8332 43.7549V46.3549C82.8332 48.0049 81.5332 49.7549 79.9832 50.3049L70.4832 53.4049C68.9332 53.9049 68.2332 55.5549 68.9832 57.0049L73.5332 65.9049C74.2832 67.3549 73.9332 69.5549 72.7832 70.7049L70.9332 72.5549C69.7832 73.7049 67.6332 74.0549 66.1332 73.3049L57.2332 68.7549C55.7832 68.0049 54.1332 68.6549 53.6332 70.2549L50.5332 79.7549C50.0332 81.3049 48.2332 82.6049 46.5832 82.6049H43.9832C42.3332 82.6049 40.5832 81.3049 40.0332 79.7549L36.9332 70.2549C36.4332 68.7049 34.7832 68.0049 33.3332 68.7549L24.4332 73.3049C22.9832 74.0549 20.7832 73.7049 19.6332 72.5549L17.7832 70.7049C16.6332 69.5549 16.2832 67.4049 17.0332 65.9049L21.5832 57.0049C22.3332 55.5549 21.6832 53.9049 20.0832 53.4049L10.5832 50.3049C9.0332 49.8049 7.7332 48.0049 7.7332 46.3549V43.7549C7.7332 42.1049 9.0332 40.3549 10.5832 39.8049L20.0832 36.7049C21.6332 36.2049 22.3332 34.5549 21.5832 33.1049L17.0332 24.2049C16.2832 22.7549 16.6332 20.5549 17.7832 19.4049L19.6332 17.5549C20.7832 16.4049 22.9332 16.0549 24.4332 16.8049L33.3332 21.3549C34.7832 22.1049 36.4332 21.4549 36.9332 19.8549L40.0332 10.3549C40.5332 8.80488 42.3332 7.50488 43.9832 7.50488H46.5832C48.2332 7.50488 49.9832 8.80488 50.5332 10.3549L53.6332 19.8549ZM55.9832 2.85488C55.4832 1.30488 53.6832 0.00488281 52.0332 0.00488281H38.5332C36.8832 0.00488281 35.1332 1.30488 34.5832 2.85488L32.5332 9.15488C32.0332 10.7049 30.3832 11.4049 28.9332 10.6549L23.0332 7.65488C21.5832 6.90488 19.3832 7.25488 18.2332 8.40488L8.6832 17.9549C7.5332 19.1049 7.1832 21.2549 7.9332 22.7549L10.9332 28.6549C11.6832 30.1049 11.0332 31.7549 9.4332 32.2549L3.1332 34.3049C1.5832 34.8049 0.283203 36.6049 0.283203 38.2549V51.7549C0.283203 53.4049 1.5832 55.1549 3.1332 55.7049L9.4332 57.7549C10.9832 58.2549 11.6832 59.9049 10.9332 61.3549L7.9332 67.2549C7.1832 68.7049 7.5332 70.9049 8.6832 72.0549L18.2332 81.6049C19.3832 82.7549 21.5332 83.1049 23.0332 82.3549L28.9332 79.3549C30.3832 78.6049 32.0332 79.2549 32.5332 80.8549L34.5832 87.1549C35.0832 88.7049 36.8832 90.0049 38.5332 90.0049H52.0332C53.6832 90.0049 55.4332 88.7049 55.9832 87.1549L58.0332 80.8549C58.5332 79.3049 60.1832 78.6049 61.6332 79.3549L67.5332 82.3549C68.9832 83.1049 71.1832 82.7549 72.3332 81.6049L81.8832 72.0549C83.0332 70.9049 83.3832 68.7549 82.6332 67.2549L79.6332 61.3549C78.8832 59.9049 79.5332 58.2549 81.1332 57.7549L87.4332 55.7049C88.9832 55.2049 90.2832 53.4049 90.2832 51.7549V38.2549C90.2832 36.6049 88.9832 34.8549 87.4332 34.3049L81.1332 32.2549C79.5832 31.7549 78.8832 30.1049 79.6332 28.6549L82.6332 22.7549C83.3832 21.3049 83.0332 19.1049 81.8832 17.9549L72.3332 8.40488C71.1832 7.25488 69.0332 6.90488 67.5332 7.65488L61.6332 10.6549C60.1832 11.4049 58.5332 10.7549 58.0332 9.15488L55.9832 2.85488Z" fill="#FF5733"/>
<path d="M48.3332 41.455C49.6832 42.405 50.3332 44.505 49.8332 46.055L49.5832 46.755C49.0832 48.305 47.2832 49.605 45.6332 49.605H44.8832C43.2332 49.605 41.4832 48.305 40.9332 46.755L40.6832 46.055C40.1832 44.505 40.8332 42.405 42.1832 41.455L42.7832 41.005C44.1332 40.055 46.2832 40.055 47.6332 41.005L48.2332 41.455H48.3332ZM47.7832 31.755C46.4332 30.805 44.2832 30.805 42.9332 31.755L33.5332 38.605C32.1832 39.555 31.5332 41.655 32.0332 43.205L35.6332 54.255C36.1332 55.805 37.9332 57.105 39.5832 57.105H51.2332C52.8832 57.105 54.6332 55.805 55.1832 54.255L58.7832 43.205C59.2832 41.655 58.6332 39.555 57.2832 38.605L47.8832 31.755H47.7832Z" fill="#FF5733"/>
</svg>
