<svg width="100" height="79" viewBox="0 0 100 79" fill="none" xmlns="http://www.w3.org/2000/svg">
<path d="M90.2504 59.0049C90.7504 60.5549 90.1004 62.6549 88.7504 63.6049L81.4004 68.9049C80.0504 69.8549 77.9004 69.8549 76.5504 68.9049L69.2004 63.6049C67.8504 62.6549 67.2004 60.5549 67.7004 59.0049L70.5004 50.4049C71.0004 48.8549 72.8004 47.5549 74.4504 47.5549H83.5004C85.1504 47.5549 86.9004 48.8549 87.4504 50.4049L90.2504 59.0049ZM32.2504 59.0049C32.7504 60.5549 32.1004 62.6549 30.7504 63.6049L23.4004 68.9049C22.0504 69.8549 19.9004 69.8549 18.5504 68.9049L11.2004 63.6049C9.85041 62.6549 9.20041 60.5549 9.70041 59.0049L12.5004 50.4049C13.0004 48.8549 14.8004 47.5549 16.4504 47.5549H25.5004C27.1504 47.5549 28.9004 48.8549 29.4504 50.4049L32.2504 59.0049ZM79.9004 2.85488C79.4004 1.30488 77.6004 0.00488281 75.9504 0.00488281H24.0004C22.3504 0.00488281 20.6004 1.30488 20.0504 2.85488L0.900411 61.8549C0.400411 63.4049 1.05041 65.5049 2.40041 66.4549L18.5504 78.2049C19.9004 79.1549 22.0504 79.1549 23.4004 78.2049L39.5504 66.4549C40.9004 65.5049 41.5504 63.4049 41.0504 61.8549L34.9004 42.8549C34.4004 41.3049 32.6004 40.0049 30.9504 40.0049H18.9004C17.2504 40.0049 16.3004 38.7049 16.8504 37.1549L25.5504 10.3549C26.0504 8.80488 27.8504 7.50488 29.5004 7.50488H70.5504C72.2004 7.50488 73.9504 8.80488 74.5004 10.3549L83.2504 37.1549C83.7504 38.7049 82.8504 40.0049 81.2004 40.0049H69.1004C67.4504 40.0049 65.7004 41.3049 65.1504 42.8549L59.0004 61.8549C58.5004 63.4049 59.1504 65.5049 60.5004 66.4549L76.6504 78.2049C78.0004 79.1549 80.1504 79.1549 81.5004 78.2049L97.6504 66.4549C99.0004 65.5049 99.6504 63.4049 99.1504 61.8549L79.9504 2.85488H79.9004Z" fill="#FF5733"/>
</svg>
