<svg width="79" height="98" viewBox="0 0 79 98" fill="none" xmlns="http://www.w3.org/2000/svg">
<path d="M68.4162 29.155C69.7662 30.105 70.4162 32.205 69.9162 33.755L58.7662 68.105C58.2662 69.655 56.8662 71.905 55.6662 73.055L41.8162 86.455C40.6162 87.605 38.6662 87.605 37.5162 86.455L23.6662 73.055C22.4662 71.905 21.1162 69.705 20.5662 68.105L9.41623 33.755C8.91623 32.205 9.56623 30.105 10.9162 29.155L37.2662 10.005C38.6162 9.05498 40.7662 9.05498 42.1162 10.005L68.4662 29.155H68.4162ZM42.1162 0.75498C40.7662 -0.19502 38.6162 -0.19502 37.2662 0.75498L2.11623 26.305C0.76623 27.255 0.116232 29.355 0.616232 30.905L14.0162 72.205C14.5162 73.755 15.9162 76.005 17.1162 77.155L37.5162 96.905C38.7162 98.055 40.6662 98.055 41.8162 96.905L62.2162 77.155C63.4162 76.005 64.7662 73.805 65.3162 72.205L78.7162 30.905C79.2162 29.355 78.5662 27.255 77.2162 26.305L42.0662 0.75498H42.1162Z" fill="#FF5733"/>
<path d="M41.7158 38.255C42.8158 39.055 43.4158 40.805 42.9658 42.155C42.5158 43.505 41.0658 44.555 39.6658 44.555C38.2658 44.555 36.7658 43.455 36.3658 42.155C35.9658 40.855 36.5158 39.105 37.6158 38.255C38.7158 37.405 40.5658 37.455 41.7158 38.255ZM42.1158 29.255C40.7658 28.305 38.6158 28.305 37.2658 29.255L29.2158 35.105C27.8658 36.055 27.2158 38.155 27.7158 39.705L30.7658 49.155C31.2658 50.705 33.0658 52.005 34.7158 52.005H44.6658C46.3158 52.005 48.0658 50.705 48.6158 49.155L51.6658 39.705C52.1658 38.155 51.5158 36.055 50.1658 35.105L42.1158 29.255Z" fill="#FF5733"/>
</svg>
