<svg width="90" height="75" viewBox="0 0 90 75" fill="none" xmlns="http://www.w3.org/2000/svg">
<path d="M87 41.3251C88.65 41.3251 90 39.9751 90 38.3251V36.8251C90 35.1751 88.65 33.8251 87 33.8251H10.5C8.85 33.8251 7.5 32.4751 7.5 30.8251V22.2751C7.5 20.6251 8.8 18.8751 10.35 18.3251L39.6 8.82514C41.15 8.32514 42.45 6.52514 42.45 4.87514V2.97514C42.45 1.32514 41.2 0.375136 39.65 0.925136L2.85 12.8751C1.3 13.3751 0 15.1751 0 16.8251V58.5251C0 60.1751 1.3 61.9251 2.85 62.4751L39.65 74.4251C41.2 74.9251 42.5 74.0251 42.5 72.3751V70.4751C42.5 68.8251 41.2 67.0751 39.6 66.5251L10.35 57.0251C8.8 56.5251 7.5 54.7251 7.5 53.0751V44.3251C7.5 42.6751 8.85 41.3251 10.5 41.3251H87Z" fill="#FF5733"/>
</svg>
