<svg width="402" height="400" viewBox="0 0 402 400" fill="none" xmlns="http://www.w3.org/2000/svg">
<g clip-path="url(#clip0_95_381)">
<path d="M17.1969 0.166504H0.495117V16.8124H17.1969V0.166504Z" stroke="#28A745" stroke-opacity="0.14" stroke-miterlimit="10"/>
<path d="M33.8991 0.166504H17.1973V16.8124H33.8991V0.166504Z" stroke="#28A745" stroke-opacity="0.14" stroke-miterlimit="10"/>
<path d="M50.6002 0.166504H33.8984V16.8124H50.6002V0.166504Z" stroke="#28A745" stroke-opacity="0.14" stroke-miterlimit="10"/>
<path d="M67.3024 0.166504H50.6006V16.8124H67.3024V0.166504Z" stroke="#28A745" stroke-opacity="0.14" stroke-miterlimit="10"/>
<path d="M84.0045 0.166504H67.3027V16.8124H84.0045V0.166504Z" stroke="#28A745" stroke-opacity="0.14" stroke-miterlimit="10"/>
<path d="M100.706 0.166504H84.0039V16.8124H100.706V0.166504Z" stroke="#28A745" stroke-opacity="0.14" stroke-miterlimit="10"/>
<path d="M117.408 0.166504H100.706V16.8124H117.408V0.166504Z" stroke="#28A745" stroke-opacity="0.14" stroke-miterlimit="10"/>
<path d="M134.11 0.166504H117.408V16.8124H134.11V0.166504Z" stroke="#28A745" stroke-opacity="0.14" stroke-miterlimit="10"/>
<path d="M150.811 0.166504H134.109V16.8124H150.811V0.166504Z" stroke="#28A745" stroke-opacity="0.14" stroke-miterlimit="10"/>
<path d="M167.513 0.166504H150.812V16.8124H167.513V0.166504Z" stroke="#28A745" stroke-opacity="0.14" stroke-miterlimit="10"/>
<path d="M184.215 0.166504H167.514V16.8124H184.215V0.166504Z" stroke="#28A745" stroke-opacity="0.14" stroke-miterlimit="10"/>
<path d="M200.917 0.166504H184.215V16.8124H200.917V0.166504Z" stroke="#28A745" stroke-opacity="0.14" stroke-miterlimit="10"/>
<path d="M217.619 0.166504H200.917V16.8124H217.619V0.166504Z" stroke="#28A745" stroke-opacity="0.14" stroke-miterlimit="10"/>
<path d="M234.321 0.166504H217.619V16.8124H234.321V0.166504Z" stroke="#28A745" stroke-opacity="0.14" stroke-miterlimit="10"/>
<path d="M251.022 0.166504H234.32V16.8124H251.022V0.166504Z" stroke="#28A745" stroke-opacity="0.14" stroke-miterlimit="10"/>
<path d="M267.724 0.166504H251.022V16.8124H267.724V0.166504Z" stroke="#28A745" stroke-opacity="0.14" stroke-miterlimit="10"/>
<path d="M284.425 0.166504H267.724V16.8124H284.425V0.166504Z" stroke="#28A745" stroke-opacity="0.14" stroke-miterlimit="10"/>
<path d="M301.128 0.166504H284.426V16.8124H301.128V0.166504Z" stroke="#28A745" stroke-opacity="0.14" stroke-miterlimit="10"/>
<path d="M317.83 0.166504H301.128V16.8124H317.83V0.166504Z" stroke="#28A745" stroke-opacity="0.14" stroke-miterlimit="10"/>
<path d="M334.531 0.166504H317.829V16.8124H334.531V0.166504Z" stroke="#28A745" stroke-opacity="0.14" stroke-miterlimit="10"/>
<path d="M351.233 0.166504H334.531V16.8124H351.233V0.166504Z" stroke="#28A745" stroke-opacity="0.14" stroke-miterlimit="10"/>
<path d="M367.935 0.166504H351.233V16.8124H367.935V0.166504Z" stroke="#28A745" stroke-opacity="0.14" stroke-miterlimit="10"/>
<path d="M384.636 0.166504H367.935V16.8124H384.636V0.166504Z" stroke="#28A745" stroke-opacity="0.14" stroke-miterlimit="10"/>
<path d="M401.339 0.166504H384.637V16.8124H401.339V0.166504Z" stroke="#28A745" stroke-opacity="0.14" stroke-miterlimit="10"/>
<path d="M17.1969 16.8124H0.495117V33.4582H17.1969V16.8124Z" stroke="#28A745" stroke-opacity="0.14" stroke-miterlimit="10"/>
<path d="M33.8991 16.8124H17.1973V33.4582H33.8991V16.8124Z" stroke="#28A745" stroke-opacity="0.14" stroke-miterlimit="10"/>
<path d="M50.6002 16.8124H33.8984V33.4582H50.6002V16.8124Z" stroke="#28A745" stroke-opacity="0.14" stroke-miterlimit="10"/>
<path d="M67.3024 16.8124H50.6006V33.4582H67.3024V16.8124Z" stroke="#28A745" stroke-opacity="0.14" stroke-miterlimit="10"/>
<path d="M84.0045 16.8124H67.3027V33.4582H84.0045V16.8124Z" stroke="#28A745" stroke-opacity="0.14" stroke-miterlimit="10"/>
<path d="M100.706 16.8124H84.0039V33.4582H100.706V16.8124Z" stroke="#28A745" stroke-opacity="0.14" stroke-miterlimit="10"/>
<path d="M117.408 16.8124H100.706V33.4582H117.408V16.8124Z" stroke="#28A745" stroke-opacity="0.14" stroke-miterlimit="10"/>
<path d="M134.11 16.8124H117.408V33.4582H134.11V16.8124Z" stroke="#28A745" stroke-opacity="0.14" stroke-miterlimit="10"/>
<path d="M150.811 16.8124H134.109V33.4582H150.811V16.8124Z" stroke="#28A745" stroke-opacity="0.14" stroke-miterlimit="10"/>
<path d="M167.513 16.8124H150.812V33.4582H167.513V16.8124Z" stroke="#28A745" stroke-opacity="0.14" stroke-miterlimit="10"/>
<path d="M184.215 16.8124H167.514V33.4582H184.215V16.8124Z" stroke="#28A745" stroke-opacity="0.14" stroke-miterlimit="10"/>
<path d="M200.917 16.8124H184.215V33.4582H200.917V16.8124Z" stroke="#28A745" stroke-opacity="0.14" stroke-miterlimit="10"/>
<path d="M217.619 16.8124H200.917V33.4582H217.619V16.8124Z" stroke="#28A745" stroke-opacity="0.14" stroke-miterlimit="10"/>
<path d="M234.321 16.8124H217.619V33.4582H234.321V16.8124Z" stroke="#28A745" stroke-opacity="0.14" stroke-miterlimit="10"/>
<path d="M251.022 16.8124H234.32V33.4582H251.022V16.8124Z" stroke="#28A745" stroke-opacity="0.14" stroke-miterlimit="10"/>
<path d="M267.724 16.8124H251.022V33.4582H267.724V16.8124Z" stroke="#28A745" stroke-opacity="0.14" stroke-miterlimit="10"/>
<path d="M284.425 16.8124H267.724V33.4582H284.425V16.8124Z" stroke="#28A745" stroke-opacity="0.14" stroke-miterlimit="10"/>
<path d="M301.128 16.8124H284.426V33.4582H301.128V16.8124Z" stroke="#28A745" stroke-opacity="0.14" stroke-miterlimit="10"/>
<path d="M317.83 16.8124H301.128V33.4582H317.83V16.8124Z" stroke="#28A745" stroke-opacity="0.14" stroke-miterlimit="10"/>
<path d="M334.531 16.8124H317.829V33.4582H334.531V16.8124Z" stroke="#28A745" stroke-opacity="0.14" stroke-miterlimit="10"/>
<path d="M351.233 16.8124H334.531V33.4582H351.233V16.8124Z" stroke="#28A745" stroke-opacity="0.14" stroke-miterlimit="10"/>
<path d="M367.935 16.8124H351.233V33.4582H367.935V16.8124Z" stroke="#28A745" stroke-opacity="0.14" stroke-miterlimit="10"/>
<path d="M384.636 16.8124H367.935V33.4582H384.636V16.8124Z" stroke="#28A745" stroke-opacity="0.14" stroke-miterlimit="10"/>
<path d="M401.339 16.8124H384.637V33.4582H401.339V16.8124Z" stroke="#28A745" stroke-opacity="0.14" stroke-miterlimit="10"/>
<path d="M17.1969 33.4583H0.495117V50.1041H17.1969V33.4583Z" stroke="#28A745" stroke-opacity="0.14" stroke-miterlimit="10"/>
<path d="M33.8991 33.4583H17.1973V50.1041H33.8991V33.4583Z" stroke="#28A745" stroke-opacity="0.14" stroke-miterlimit="10"/>
<path d="M50.6002 33.4583H33.8984V50.1041H50.6002V33.4583Z" stroke="#28A745" stroke-opacity="0.14" stroke-miterlimit="10"/>
<path d="M67.3024 33.4583H50.6006V50.1041H67.3024V33.4583Z" stroke="#28A745" stroke-opacity="0.14" stroke-miterlimit="10"/>
<path d="M84.0045 33.4583H67.3027V50.1041H84.0045V33.4583Z" stroke="#28A745" stroke-opacity="0.14" stroke-miterlimit="10"/>
<path d="M100.706 33.4583H84.0039V50.1041H100.706V33.4583Z" stroke="#28A745" stroke-opacity="0.14" stroke-miterlimit="10"/>
<path d="M117.408 33.4583H100.706V50.1041H117.408V33.4583Z" stroke="#28A745" stroke-opacity="0.14" stroke-miterlimit="10"/>
<path d="M134.11 33.4583H117.408V50.1041H134.11V33.4583Z" stroke="#28A745" stroke-opacity="0.14" stroke-miterlimit="10"/>
<path d="M150.811 33.4583H134.109V50.1041H150.811V33.4583Z" stroke="#28A745" stroke-opacity="0.14" stroke-miterlimit="10"/>
<path d="M167.513 33.4583H150.812V50.1041H167.513V33.4583Z" stroke="#28A745" stroke-opacity="0.14" stroke-miterlimit="10"/>
<path d="M184.215 33.4583H167.514V50.1041H184.215V33.4583Z" stroke="#28A745" stroke-opacity="0.14" stroke-miterlimit="10"/>
<path d="M200.917 33.4583H184.215V50.1041H200.917V33.4583Z" stroke="#28A745" stroke-opacity="0.14" stroke-miterlimit="10"/>
<path d="M217.619 33.4583H200.917V50.1041H217.619V33.4583Z" stroke="#28A745" stroke-opacity="0.14" stroke-miterlimit="10"/>
<path d="M234.321 33.4583H217.619V50.1041H234.321V33.4583Z" stroke="#28A745" stroke-opacity="0.14" stroke-miterlimit="10"/>
<path d="M251.022 33.4583H234.32V50.1041H251.022V33.4583Z" stroke="#28A745" stroke-opacity="0.14" stroke-miterlimit="10"/>
<path d="M267.724 33.4583H251.022V50.1041H267.724V33.4583Z" stroke="#28A745" stroke-opacity="0.14" stroke-miterlimit="10"/>
<path d="M284.425 33.4583H267.724V50.1041H284.425V33.4583Z" stroke="#28A745" stroke-opacity="0.14" stroke-miterlimit="10"/>
<path d="M301.128 33.4583H284.426V50.1041H301.128V33.4583Z" stroke="#28A745" stroke-opacity="0.14" stroke-miterlimit="10"/>
<path d="M317.83 33.4583H301.128V50.1041H317.83V33.4583Z" stroke="#28A745" stroke-opacity="0.14" stroke-miterlimit="10"/>
<path d="M334.531 33.4583H317.829V50.1041H334.531V33.4583Z" stroke="#28A745" stroke-opacity="0.14" stroke-miterlimit="10"/>
<path d="M351.233 33.4583H334.531V50.1041H351.233V33.4583Z" stroke="#28A745" stroke-opacity="0.14" stroke-miterlimit="10"/>
<path d="M367.935 33.4583H351.233V50.1041H367.935V33.4583Z" stroke="#28A745" stroke-opacity="0.14" stroke-miterlimit="10"/>
<path d="M384.636 33.4583H367.935V50.1041H384.636V33.4583Z" stroke="#28A745" stroke-opacity="0.14" stroke-miterlimit="10"/>
<path d="M401.339 33.4583H384.637V50.1041H401.339V33.4583Z" stroke="#28A745" stroke-opacity="0.14" stroke-miterlimit="10"/>
<path d="M17.1969 50.1041H0.495117V66.75H17.1969V50.1041Z" stroke="#28A745" stroke-opacity="0.14" stroke-miterlimit="10"/>
<path d="M33.8991 50.1041H17.1973V66.75H33.8991V50.1041Z" stroke="#28A745" stroke-opacity="0.14" stroke-miterlimit="10"/>
<path d="M50.6002 50.1041H33.8984V66.75H50.6002V50.1041Z" stroke="#28A745" stroke-opacity="0.14" stroke-miterlimit="10"/>
<path d="M67.3024 50.1041H50.6006V66.75H67.3024V50.1041Z" stroke="#28A745" stroke-opacity="0.14" stroke-miterlimit="10"/>
<path d="M84.0045 50.1041H67.3027V66.75H84.0045V50.1041Z" stroke="#28A745" stroke-opacity="0.14" stroke-miterlimit="10"/>
<path d="M100.706 50.1041H84.0039V66.75H100.706V50.1041Z" stroke="#28A745" stroke-opacity="0.14" stroke-miterlimit="10"/>
<path d="M117.408 50.1041H100.706V66.75H117.408V50.1041Z" stroke="#28A745" stroke-opacity="0.14" stroke-miterlimit="10"/>
<path d="M134.11 50.1041H117.408V66.75H134.11V50.1041Z" stroke="#28A745" stroke-opacity="0.14" stroke-miterlimit="10"/>
<path d="M150.811 50.1041H134.109V66.75H150.811V50.1041Z" stroke="#28A745" stroke-opacity="0.14" stroke-miterlimit="10"/>
<path d="M167.513 50.1041H150.812V66.75H167.513V50.1041Z" stroke="#28A745" stroke-opacity="0.14" stroke-miterlimit="10"/>
<path d="M184.215 50.1041H167.514V66.75H184.215V50.1041Z" stroke="#28A745" stroke-opacity="0.14" stroke-miterlimit="10"/>
<path d="M200.917 50.1041H184.215V66.75H200.917V50.1041Z" stroke="#28A745" stroke-opacity="0.14" stroke-miterlimit="10"/>
<path d="M217.619 50.1041H200.917V66.75H217.619V50.1041Z" stroke="#28A745" stroke-opacity="0.14" stroke-miterlimit="10"/>
<path d="M234.321 50.1041H217.619V66.75H234.321V50.1041Z" stroke="#28A745" stroke-opacity="0.14" stroke-miterlimit="10"/>
<path d="M251.022 50.1041H234.32V66.75H251.022V50.1041Z" stroke="#28A745" stroke-opacity="0.14" stroke-miterlimit="10"/>
<path d="M267.724 50.1041H251.022V66.75H267.724V50.1041Z" stroke="#28A745" stroke-opacity="0.14" stroke-miterlimit="10"/>
<path d="M284.425 50.1041H267.724V66.75H284.425V50.1041Z" stroke="#28A745" stroke-opacity="0.14" stroke-miterlimit="10"/>
<path d="M301.128 50.1041H284.426V66.75H301.128V50.1041Z" stroke="#28A745" stroke-opacity="0.14" stroke-miterlimit="10"/>
<path d="M317.83 50.1041H301.128V66.75H317.83V50.1041Z" stroke="#28A745" stroke-opacity="0.14" stroke-miterlimit="10"/>
<path d="M334.531 50.1041H317.829V66.75H334.531V50.1041Z" stroke="#28A745" stroke-opacity="0.14" stroke-miterlimit="10"/>
<path d="M351.233 50.1041H334.531V66.75H351.233V50.1041Z" stroke="#28A745" stroke-opacity="0.14" stroke-miterlimit="10"/>
<path d="M367.935 50.1041H351.233V66.75H367.935V50.1041Z" stroke="#28A745" stroke-opacity="0.14" stroke-miterlimit="10"/>
<path d="M384.636 50.1041H367.935V66.75H384.636V50.1041Z" stroke="#28A745" stroke-opacity="0.14" stroke-miterlimit="10"/>
<path d="M401.339 50.1041H384.637V66.75H401.339V50.1041Z" stroke="#28A745" stroke-opacity="0.14" stroke-miterlimit="10"/>
<path d="M17.1969 66.75H0.495117V83.3959H17.1969V66.75Z" stroke="#28A745" stroke-opacity="0.14" stroke-miterlimit="10"/>
<path d="M33.8991 66.75H17.1973V83.3959H33.8991V66.75Z" stroke="#28A745" stroke-opacity="0.14" stroke-miterlimit="10"/>
<path d="M50.6002 66.75H33.8984V83.3959H50.6002V66.75Z" stroke="#28A745" stroke-opacity="0.14" stroke-miterlimit="10"/>
<path d="M67.3024 66.75H50.6006V83.3959H67.3024V66.75Z" stroke="#28A745" stroke-opacity="0.14" stroke-miterlimit="10"/>
<path d="M84.0045 66.75H67.3027V83.3959H84.0045V66.75Z" stroke="#28A745" stroke-opacity="0.14" stroke-miterlimit="10"/>
<path d="M100.706 66.75H84.0039V83.3959H100.706V66.75Z" stroke="#28A745" stroke-opacity="0.14" stroke-miterlimit="10"/>
<path d="M117.408 66.75H100.706V83.3959H117.408V66.75Z" stroke="#28A745" stroke-opacity="0.14" stroke-miterlimit="10"/>
<path d="M134.11 66.75H117.408V83.3959H134.11V66.75Z" stroke="#28A745" stroke-opacity="0.14" stroke-miterlimit="10"/>
<path d="M150.811 66.75H134.109V83.3959H150.811V66.75Z" stroke="#28A745" stroke-opacity="0.14" stroke-miterlimit="10"/>
<path d="M167.513 66.75H150.812V83.3959H167.513V66.75Z" stroke="#28A745" stroke-opacity="0.14" stroke-miterlimit="10"/>
<path d="M184.215 66.75H167.514V83.3959H184.215V66.75Z" stroke="#28A745" stroke-opacity="0.14" stroke-miterlimit="10"/>
<path d="M200.917 66.75H184.215V83.3959H200.917V66.75Z" stroke="#28A745" stroke-opacity="0.14" stroke-miterlimit="10"/>
<path d="M217.619 66.75H200.917V83.3959H217.619V66.75Z" stroke="#28A745" stroke-opacity="0.14" stroke-miterlimit="10"/>
<path d="M234.321 66.75H217.619V83.3959H234.321V66.75Z" stroke="#28A745" stroke-opacity="0.14" stroke-miterlimit="10"/>
<path d="M251.022 66.75H234.32V83.3959H251.022V66.75Z" stroke="#28A745" stroke-opacity="0.14" stroke-miterlimit="10"/>
<path d="M267.724 66.75H251.022V83.3959H267.724V66.75Z" stroke="#28A745" stroke-opacity="0.14" stroke-miterlimit="10"/>
<path d="M284.425 66.75H267.724V83.3959H284.425V66.75Z" stroke="#28A745" stroke-opacity="0.14" stroke-miterlimit="10"/>
<path d="M301.128 66.75H284.426V83.3959H301.128V66.75Z" stroke="#28A745" stroke-opacity="0.14" stroke-miterlimit="10"/>
<path d="M317.83 66.75H301.128V83.3959H317.83V66.75Z" stroke="#28A745" stroke-opacity="0.14" stroke-miterlimit="10"/>
<path d="M334.531 66.75H317.829V83.3959H334.531V66.75Z" stroke="#28A745" stroke-opacity="0.14" stroke-miterlimit="10"/>
<path d="M351.233 66.75H334.531V83.3959H351.233V66.75Z" stroke="#28A745" stroke-opacity="0.14" stroke-miterlimit="10"/>
<path d="M367.935 66.75H351.233V83.3959H367.935V66.75Z" stroke="#28A745" stroke-opacity="0.14" stroke-miterlimit="10"/>
<path d="M384.636 66.75H367.935V83.3959H384.636V66.75Z" stroke="#28A745" stroke-opacity="0.14" stroke-miterlimit="10"/>
<path d="M401.339 66.75H384.637V83.3959H401.339V66.75Z" stroke="#28A745" stroke-opacity="0.14" stroke-miterlimit="10"/>
<path d="M17.1969 83.3958H0.495117V100.042H17.1969V83.3958Z" stroke="#28A745" stroke-opacity="0.14" stroke-miterlimit="10"/>
<path d="M33.8991 83.3958H17.1973V100.042H33.8991V83.3958Z" stroke="#28A745" stroke-opacity="0.14" stroke-miterlimit="10"/>
<path d="M50.6002 83.3958H33.8984V100.042H50.6002V83.3958Z" stroke="#28A745" stroke-opacity="0.14" stroke-miterlimit="10"/>
<path d="M67.3024 83.3958H50.6006V100.042H67.3024V83.3958Z" stroke="#28A745" stroke-opacity="0.14" stroke-miterlimit="10"/>
<path d="M84.0045 83.3958H67.3027V100.042H84.0045V83.3958Z" stroke="#28A745" stroke-opacity="0.14" stroke-miterlimit="10"/>
<path d="M100.706 83.3958H84.0039V100.042H100.706V83.3958Z" stroke="#28A745" stroke-opacity="0.14" stroke-miterlimit="10"/>
<path d="M117.408 83.3958H100.706V100.042H117.408V83.3958Z" stroke="#28A745" stroke-opacity="0.14" stroke-miterlimit="10"/>
<path d="M134.11 83.3958H117.408V100.042H134.11V83.3958Z" stroke="#28A745" stroke-opacity="0.14" stroke-miterlimit="10"/>
<path d="M150.811 83.3958H134.109V100.042H150.811V83.3958Z" stroke="#28A745" stroke-opacity="0.14" stroke-miterlimit="10"/>
<path d="M167.513 83.3958H150.812V100.042H167.513V83.3958Z" stroke="#28A745" stroke-opacity="0.14" stroke-miterlimit="10"/>
<path d="M184.215 83.3958H167.514V100.042H184.215V83.3958Z" stroke="#28A745" stroke-opacity="0.14" stroke-miterlimit="10"/>
<path d="M200.917 83.3958H184.215V100.042H200.917V83.3958Z" stroke="#28A745" stroke-opacity="0.14" stroke-miterlimit="10"/>
<path d="M217.619 83.3958H200.917V100.042H217.619V83.3958Z" stroke="#28A745" stroke-opacity="0.14" stroke-miterlimit="10"/>
<path d="M234.321 83.3958H217.619V100.042H234.321V83.3958Z" stroke="#28A745" stroke-opacity="0.14" stroke-miterlimit="10"/>
<path d="M251.022 83.3958H234.32V100.042H251.022V83.3958Z" stroke="#28A745" stroke-opacity="0.14" stroke-miterlimit="10"/>
<path d="M267.724 83.3958H251.022V100.042H267.724V83.3958Z" stroke="#28A745" stroke-opacity="0.14" stroke-miterlimit="10"/>
<path d="M284.425 83.3958H267.724V100.042H284.425V83.3958Z" stroke="#28A745" stroke-opacity="0.14" stroke-miterlimit="10"/>
<path d="M301.128 83.3958H284.426V100.042H301.128V83.3958Z" stroke="#28A745" stroke-opacity="0.14" stroke-miterlimit="10"/>
<path d="M317.83 83.3958H301.128V100.042H317.83V83.3958Z" stroke="#28A745" stroke-opacity="0.14" stroke-miterlimit="10"/>
<path d="M334.531 83.3958H317.829V100.042H334.531V83.3958Z" stroke="#28A745" stroke-opacity="0.14" stroke-miterlimit="10"/>
<path d="M351.233 83.3958H334.531V100.042H351.233V83.3958Z" stroke="#28A745" stroke-opacity="0.14" stroke-miterlimit="10"/>
<path d="M367.935 83.3958H351.233V100.042H367.935V83.3958Z" stroke="#28A745" stroke-opacity="0.14" stroke-miterlimit="10"/>
<path d="M384.636 83.3958H367.935V100.042H384.636V83.3958Z" stroke="#28A745" stroke-opacity="0.14" stroke-miterlimit="10"/>
<path d="M401.339 83.3958H384.637V100.042H401.339V83.3958Z" stroke="#28A745" stroke-opacity="0.14" stroke-miterlimit="10"/>
<path d="M17.1969 100.042H0.495117V116.687H17.1969V100.042Z" stroke="#28A745" stroke-opacity="0.14" stroke-miterlimit="10"/>
<path d="M33.8991 100.042H17.1973V116.687H33.8991V100.042Z" stroke="#28A745" stroke-opacity="0.14" stroke-miterlimit="10"/>
<path d="M50.6002 100.042H33.8984V116.687H50.6002V100.042Z" stroke="#28A745" stroke-opacity="0.14" stroke-miterlimit="10"/>
<path d="M67.3024 100.042H50.6006V116.687H67.3024V100.042Z" stroke="#28A745" stroke-opacity="0.14" stroke-miterlimit="10"/>
<path d="M84.0045 100.042H67.3027V116.687H84.0045V100.042Z" stroke="#28A745" stroke-opacity="0.14" stroke-miterlimit="10"/>
<path d="M100.706 100.042H84.0039V116.687H100.706V100.042Z" stroke="#28A745" stroke-opacity="0.14" stroke-miterlimit="10"/>
<path d="M117.408 100.042H100.706V116.687H117.408V100.042Z" stroke="#28A745" stroke-opacity="0.14" stroke-miterlimit="10"/>
<path d="M134.11 100.042H117.408V116.687H134.11V100.042Z" stroke="#28A745" stroke-opacity="0.14" stroke-miterlimit="10"/>
<path d="M150.811 100.042H134.109V116.687H150.811V100.042Z" stroke="#28A745" stroke-opacity="0.14" stroke-miterlimit="10"/>
<path d="M167.513 100.042H150.812V116.687H167.513V100.042Z" stroke="#28A745" stroke-opacity="0.14" stroke-miterlimit="10"/>
<path d="M184.215 100.042H167.514V116.687H184.215V100.042Z" stroke="#28A745" stroke-opacity="0.14" stroke-miterlimit="10"/>
<path d="M200.917 100.042H184.215V116.687H200.917V100.042Z" stroke="#28A745" stroke-opacity="0.14" stroke-miterlimit="10"/>
<path d="M217.619 100.042H200.917V116.687H217.619V100.042Z" stroke="#28A745" stroke-opacity="0.14" stroke-miterlimit="10"/>
<path d="M234.321 100.042H217.619V116.687H234.321V100.042Z" stroke="#28A745" stroke-opacity="0.14" stroke-miterlimit="10"/>
<path d="M251.022 100.042H234.32V116.687H251.022V100.042Z" stroke="#28A745" stroke-opacity="0.14" stroke-miterlimit="10"/>
<path d="M267.724 100.042H251.022V116.687H267.724V100.042Z" stroke="#28A745" stroke-opacity="0.14" stroke-miterlimit="10"/>
<path d="M284.425 100.042H267.724V116.687H284.425V100.042Z" stroke="#28A745" stroke-opacity="0.14" stroke-miterlimit="10"/>
<path d="M301.128 100.042H284.426V116.687H301.128V100.042Z" stroke="#28A745" stroke-opacity="0.14" stroke-miterlimit="10"/>
<path d="M317.83 100.042H301.128V116.687H317.83V100.042Z" stroke="#28A745" stroke-opacity="0.14" stroke-miterlimit="10"/>
<path d="M334.531 100.042H317.829V116.687H334.531V100.042Z" stroke="#28A745" stroke-opacity="0.14" stroke-miterlimit="10"/>
<path d="M351.233 100.042H334.531V116.687H351.233V100.042Z" stroke="#28A745" stroke-opacity="0.14" stroke-miterlimit="10"/>
<path d="M367.935 100.042H351.233V116.687H367.935V100.042Z" stroke="#28A745" stroke-opacity="0.14" stroke-miterlimit="10"/>
<path d="M384.636 100.042H367.935V116.687H384.636V100.042Z" stroke="#28A745" stroke-opacity="0.14" stroke-miterlimit="10"/>
<path d="M401.339 100.042H384.637V116.687H401.339V100.042Z" stroke="#28A745" stroke-opacity="0.14" stroke-miterlimit="10"/>
<path d="M17.1969 116.688H0.495117V133.333H17.1969V116.688Z" stroke="#28A745" stroke-opacity="0.14" stroke-miterlimit="10"/>
<path d="M33.8991 116.688H17.1973V133.333H33.8991V116.688Z" stroke="#28A745" stroke-opacity="0.14" stroke-miterlimit="10"/>
<path d="M50.6002 116.688H33.8984V133.333H50.6002V116.688Z" stroke="#28A745" stroke-opacity="0.14" stroke-miterlimit="10"/>
<path d="M67.3024 116.688H50.6006V133.333H67.3024V116.688Z" stroke="#28A745" stroke-opacity="0.14" stroke-miterlimit="10"/>
<path d="M84.0045 116.688H67.3027V133.333H84.0045V116.688Z" stroke="#28A745" stroke-opacity="0.14" stroke-miterlimit="10"/>
<path d="M100.706 116.688H84.0039V133.333H100.706V116.688Z" stroke="#28A745" stroke-opacity="0.14" stroke-miterlimit="10"/>
<path d="M117.408 116.688H100.706V133.333H117.408V116.688Z" stroke="#28A745" stroke-opacity="0.14" stroke-miterlimit="10"/>
<path d="M134.11 116.688H117.408V133.333H134.11V116.688Z" stroke="#28A745" stroke-opacity="0.14" stroke-miterlimit="10"/>
<path d="M150.811 116.688H134.109V133.333H150.811V116.688Z" stroke="#28A745" stroke-opacity="0.14" stroke-miterlimit="10"/>
<path d="M167.513 116.688H150.812V133.333H167.513V116.688Z" stroke="#28A745" stroke-opacity="0.14" stroke-miterlimit="10"/>
<path d="M184.215 116.688H167.514V133.333H184.215V116.688Z" stroke="#28A745" stroke-opacity="0.14" stroke-miterlimit="10"/>
<path d="M200.917 116.688H184.215V133.333H200.917V116.688Z" stroke="#28A745" stroke-opacity="0.14" stroke-miterlimit="10"/>
<path d="M217.619 116.688H200.917V133.333H217.619V116.688Z" stroke="#28A745" stroke-opacity="0.14" stroke-miterlimit="10"/>
<path d="M234.321 116.688H217.619V133.333H234.321V116.688Z" stroke="#28A745" stroke-opacity="0.14" stroke-miterlimit="10"/>
<path d="M251.022 116.688H234.32V133.333H251.022V116.688Z" stroke="#28A745" stroke-opacity="0.14" stroke-miterlimit="10"/>
<path d="M267.724 116.688H251.022V133.333H267.724V116.688Z" stroke="#28A745" stroke-opacity="0.14" stroke-miterlimit="10"/>
<path d="M284.425 116.688H267.724V133.333H284.425V116.688Z" stroke="#28A745" stroke-opacity="0.14" stroke-miterlimit="10"/>
<path d="M301.128 116.688H284.426V133.333H301.128V116.688Z" stroke="#28A745" stroke-opacity="0.14" stroke-miterlimit="10"/>
<path d="M317.83 116.688H301.128V133.333H317.83V116.688Z" stroke="#28A745" stroke-opacity="0.14" stroke-miterlimit="10"/>
<path d="M334.531 116.688H317.829V133.333H334.531V116.688Z" stroke="#28A745" stroke-opacity="0.14" stroke-miterlimit="10"/>
<path d="M351.233 116.688H334.531V133.333H351.233V116.688Z" stroke="#28A745" stroke-opacity="0.14" stroke-miterlimit="10"/>
<path d="M367.935 116.688H351.233V133.333H367.935V116.688Z" stroke="#28A745" stroke-opacity="0.14" stroke-miterlimit="10"/>
<path d="M384.636 116.688H367.935V133.333H384.636V116.688Z" stroke="#28A745" stroke-opacity="0.14" stroke-miterlimit="10"/>
<path d="M401.339 116.688H384.637V133.333H401.339V116.688Z" stroke="#28A745" stroke-opacity="0.14" stroke-miterlimit="10"/>
<path d="M17.1969 133.333H0.495117V149.979H17.1969V133.333Z" stroke="#28A745" stroke-opacity="0.14" stroke-miterlimit="10"/>
<path d="M33.8991 133.333H17.1973V149.979H33.8991V133.333Z" stroke="#28A745" stroke-opacity="0.14" stroke-miterlimit="10"/>
<path d="M50.6002 133.333H33.8984V149.979H50.6002V133.333Z" stroke="#28A745" stroke-opacity="0.14" stroke-miterlimit="10"/>
<path d="M67.3024 133.333H50.6006V149.979H67.3024V133.333Z" stroke="#28A745" stroke-opacity="0.14" stroke-miterlimit="10"/>
<path d="M84.0045 133.333H67.3027V149.979H84.0045V133.333Z" stroke="#28A745" stroke-opacity="0.14" stroke-miterlimit="10"/>
<path d="M100.706 133.333H84.0039V149.979H100.706V133.333Z" stroke="#28A745" stroke-opacity="0.14" stroke-miterlimit="10"/>
<path d="M117.408 133.333H100.706V149.979H117.408V133.333Z" stroke="#28A745" stroke-opacity="0.14" stroke-miterlimit="10"/>
<path d="M134.11 133.333H117.408V149.979H134.11V133.333Z" stroke="#28A745" stroke-opacity="0.14" stroke-miterlimit="10"/>
<path d="M150.811 133.333H134.109V149.979H150.811V133.333Z" stroke="#28A745" stroke-opacity="0.14" stroke-miterlimit="10"/>
<path d="M167.513 133.333H150.812V149.979H167.513V133.333Z" stroke="#28A745" stroke-opacity="0.14" stroke-miterlimit="10"/>
<path d="M184.215 133.333H167.514V149.979H184.215V133.333Z" stroke="#28A745" stroke-opacity="0.14" stroke-miterlimit="10"/>
<path d="M200.917 133.333H184.215V149.979H200.917V133.333Z" stroke="#28A745" stroke-opacity="0.14" stroke-miterlimit="10"/>
<path d="M217.619 133.333H200.917V149.979H217.619V133.333Z" stroke="#28A745" stroke-opacity="0.14" stroke-miterlimit="10"/>
<path d="M234.321 133.333H217.619V149.979H234.321V133.333Z" stroke="#28A745" stroke-opacity="0.14" stroke-miterlimit="10"/>
<path d="M251.022 133.333H234.32V149.979H251.022V133.333Z" stroke="#28A745" stroke-opacity="0.14" stroke-miterlimit="10"/>
<path d="M267.724 133.333H251.022V149.979H267.724V133.333Z" stroke="#28A745" stroke-opacity="0.14" stroke-miterlimit="10"/>
<path d="M284.425 133.333H267.724V149.979H284.425V133.333Z" stroke="#28A745" stroke-opacity="0.14" stroke-miterlimit="10"/>
<path d="M301.128 133.333H284.426V149.979H301.128V133.333Z" stroke="#28A745" stroke-opacity="0.14" stroke-miterlimit="10"/>
<path d="M317.83 133.333H301.128V149.979H317.83V133.333Z" stroke="#28A745" stroke-opacity="0.14" stroke-miterlimit="10"/>
<path d="M334.531 133.333H317.829V149.979H334.531V133.333Z" stroke="#28A745" stroke-opacity="0.14" stroke-miterlimit="10"/>
<path d="M351.233 133.333H334.531V149.979H351.233V133.333Z" stroke="#28A745" stroke-opacity="0.14" stroke-miterlimit="10"/>
<path d="M367.935 133.333H351.233V149.979H367.935V133.333Z" stroke="#28A745" stroke-opacity="0.14" stroke-miterlimit="10"/>
<path d="M384.636 133.333H367.935V149.979H384.636V133.333Z" stroke="#28A745" stroke-opacity="0.14" stroke-miterlimit="10"/>
<path d="M401.339 133.333H384.637V149.979H401.339V133.333Z" stroke="#28A745" stroke-opacity="0.14" stroke-miterlimit="10"/>
<path d="M17.1969 149.979H0.495117V166.625H17.1969V149.979Z" stroke="#28A745" stroke-opacity="0.14" stroke-miterlimit="10"/>
<path d="M33.8991 149.979H17.1973V166.625H33.8991V149.979Z" stroke="#28A745" stroke-opacity="0.14" stroke-miterlimit="10"/>
<path d="M50.6002 149.979H33.8984V166.625H50.6002V149.979Z" stroke="#28A745" stroke-opacity="0.14" stroke-miterlimit="10"/>
<path d="M67.3024 149.979H50.6006V166.625H67.3024V149.979Z" stroke="#28A745" stroke-opacity="0.14" stroke-miterlimit="10"/>
<path d="M84.0045 149.979H67.3027V166.625H84.0045V149.979Z" stroke="#28A745" stroke-opacity="0.14" stroke-miterlimit="10"/>
<path d="M100.706 149.979H84.0039V166.625H100.706V149.979Z" stroke="#28A745" stroke-opacity="0.14" stroke-miterlimit="10"/>
<path d="M117.408 149.979H100.706V166.625H117.408V149.979Z" stroke="#28A745" stroke-opacity="0.14" stroke-miterlimit="10"/>
<path d="M134.11 149.979H117.408V166.625H134.11V149.979Z" stroke="#28A745" stroke-opacity="0.14" stroke-miterlimit="10"/>
<path d="M150.811 149.979H134.109V166.625H150.811V149.979Z" stroke="#28A745" stroke-opacity="0.14" stroke-miterlimit="10"/>
<path d="M167.513 149.979H150.812V166.625H167.513V149.979Z" stroke="#28A745" stroke-opacity="0.14" stroke-miterlimit="10"/>
<path d="M184.215 149.979H167.514V166.625H184.215V149.979Z" stroke="#28A745" stroke-opacity="0.14" stroke-miterlimit="10"/>
<path d="M200.917 149.979H184.215V166.625H200.917V149.979Z" stroke="#28A745" stroke-opacity="0.14" stroke-miterlimit="10"/>
<path d="M217.619 149.979H200.917V166.625H217.619V149.979Z" stroke="#28A745" stroke-opacity="0.14" stroke-miterlimit="10"/>
<path d="M234.321 149.979H217.619V166.625H234.321V149.979Z" stroke="#28A745" stroke-opacity="0.14" stroke-miterlimit="10"/>
<path d="M251.022 149.979H234.32V166.625H251.022V149.979Z" stroke="#28A745" stroke-opacity="0.14" stroke-miterlimit="10"/>
<path d="M267.724 149.979H251.022V166.625H267.724V149.979Z" stroke="#28A745" stroke-opacity="0.14" stroke-miterlimit="10"/>
<path d="M284.425 149.979H267.724V166.625H284.425V149.979Z" stroke="#28A745" stroke-opacity="0.14" stroke-miterlimit="10"/>
<path d="M301.128 149.979H284.426V166.625H301.128V149.979Z" stroke="#28A745" stroke-opacity="0.14" stroke-miterlimit="10"/>
<path d="M317.83 149.979H301.128V166.625H317.83V149.979Z" stroke="#28A745" stroke-opacity="0.14" stroke-miterlimit="10"/>
<path d="M334.531 149.979H317.829V166.625H334.531V149.979Z" stroke="#28A745" stroke-opacity="0.14" stroke-miterlimit="10"/>
<path d="M351.233 149.979H334.531V166.625H351.233V149.979Z" stroke="#28A745" stroke-opacity="0.14" stroke-miterlimit="10"/>
<path d="M367.935 149.979H351.233V166.625H367.935V149.979Z" stroke="#28A745" stroke-opacity="0.14" stroke-miterlimit="10"/>
<path d="M384.636 149.979H367.935V166.625H384.636V149.979Z" stroke="#28A745" stroke-opacity="0.14" stroke-miterlimit="10"/>
<path d="M401.339 149.979H384.637V166.625H401.339V149.979Z" stroke="#28A745" stroke-opacity="0.14" stroke-miterlimit="10"/>
<path d="M17.1969 166.625H0.495117V183.271H17.1969V166.625Z" stroke="#28A745" stroke-opacity="0.14" stroke-miterlimit="10"/>
<path d="M33.8991 166.625H17.1973V183.271H33.8991V166.625Z" stroke="#28A745" stroke-opacity="0.14" stroke-miterlimit="10"/>
<path d="M50.6002 166.625H33.8984V183.271H50.6002V166.625Z" stroke="#28A745" stroke-opacity="0.14" stroke-miterlimit="10"/>
<path d="M67.3024 166.625H50.6006V183.271H67.3024V166.625Z" stroke="#28A745" stroke-opacity="0.14" stroke-miterlimit="10"/>
<path d="M84.0045 166.625H67.3027V183.271H84.0045V166.625Z" stroke="#28A745" stroke-opacity="0.14" stroke-miterlimit="10"/>
<path d="M100.706 166.625H84.0039V183.271H100.706V166.625Z" stroke="#28A745" stroke-opacity="0.14" stroke-miterlimit="10"/>
<path d="M117.408 166.625H100.706V183.271H117.408V166.625Z" stroke="#28A745" stroke-opacity="0.14" stroke-miterlimit="10"/>
<path d="M134.11 166.625H117.408V183.271H134.11V166.625Z" stroke="#28A745" stroke-opacity="0.14" stroke-miterlimit="10"/>
<path d="M150.811 166.625H134.109V183.271H150.811V166.625Z" stroke="#28A745" stroke-opacity="0.14" stroke-miterlimit="10"/>
<path d="M167.513 166.625H150.812V183.271H167.513V166.625Z" stroke="#28A745" stroke-opacity="0.14" stroke-miterlimit="10"/>
<path d="M184.215 166.625H167.514V183.271H184.215V166.625Z" stroke="#28A745" stroke-opacity="0.14" stroke-miterlimit="10"/>
<path d="M200.917 166.625H184.215V183.271H200.917V166.625Z" stroke="#28A745" stroke-opacity="0.14" stroke-miterlimit="10"/>
<path d="M217.619 166.625H200.917V183.271H217.619V166.625Z" stroke="#28A745" stroke-opacity="0.14" stroke-miterlimit="10"/>
<path d="M234.321 166.625H217.619V183.271H234.321V166.625Z" stroke="#28A745" stroke-opacity="0.14" stroke-miterlimit="10"/>
<path d="M251.022 166.625H234.32V183.271H251.022V166.625Z" stroke="#28A745" stroke-opacity="0.14" stroke-miterlimit="10"/>
<path d="M267.724 166.625H251.022V183.271H267.724V166.625Z" stroke="#28A745" stroke-opacity="0.14" stroke-miterlimit="10"/>
<path d="M284.425 166.625H267.724V183.271H284.425V166.625Z" stroke="#28A745" stroke-opacity="0.14" stroke-miterlimit="10"/>
<path d="M301.128 166.625H284.426V183.271H301.128V166.625Z" stroke="#28A745" stroke-opacity="0.14" stroke-miterlimit="10"/>
<path d="M317.83 166.625H301.128V183.271H317.83V166.625Z" stroke="#28A745" stroke-opacity="0.14" stroke-miterlimit="10"/>
<path d="M334.531 166.625H317.829V183.271H334.531V166.625Z" stroke="#28A745" stroke-opacity="0.14" stroke-miterlimit="10"/>
<path d="M351.233 166.625H334.531V183.271H351.233V166.625Z" stroke="#28A745" stroke-opacity="0.14" stroke-miterlimit="10"/>
<path d="M367.935 166.625H351.233V183.271H367.935V166.625Z" stroke="#28A745" stroke-opacity="0.14" stroke-miterlimit="10"/>
<path d="M384.636 166.625H367.935V183.271H384.636V166.625Z" stroke="#28A745" stroke-opacity="0.14" stroke-miterlimit="10"/>
<path d="M401.339 166.625H384.637V183.271H401.339V166.625Z" stroke="#28A745" stroke-opacity="0.14" stroke-miterlimit="10"/>
<path d="M17.1969 183.271H0.495117V199.917H17.1969V183.271Z" stroke="#28A745" stroke-opacity="0.14" stroke-miterlimit="10"/>
<path d="M33.8991 183.271H17.1973V199.917H33.8991V183.271Z" stroke="#28A745" stroke-opacity="0.14" stroke-miterlimit="10"/>
<path d="M50.6002 183.271H33.8984V199.917H50.6002V183.271Z" stroke="#28A745" stroke-opacity="0.14" stroke-miterlimit="10"/>
<path d="M67.3024 183.271H50.6006V199.917H67.3024V183.271Z" stroke="#28A745" stroke-opacity="0.14" stroke-miterlimit="10"/>
<path d="M84.0045 183.271H67.3027V199.917H84.0045V183.271Z" stroke="#28A745" stroke-opacity="0.14" stroke-miterlimit="10"/>
<path d="M100.706 183.271H84.0039V199.917H100.706V183.271Z" stroke="#28A745" stroke-opacity="0.14" stroke-miterlimit="10"/>
<path d="M117.408 183.271H100.706V199.917H117.408V183.271Z" stroke="#28A745" stroke-opacity="0.14" stroke-miterlimit="10"/>
<path d="M134.11 183.271H117.408V199.917H134.11V183.271Z" stroke="#28A745" stroke-opacity="0.14" stroke-miterlimit="10"/>
<path d="M150.811 183.271H134.109V199.917H150.811V183.271Z" stroke="#28A745" stroke-opacity="0.14" stroke-miterlimit="10"/>
<path d="M167.513 183.271H150.812V199.917H167.513V183.271Z" stroke="#28A745" stroke-opacity="0.14" stroke-miterlimit="10"/>
<path d="M184.215 183.271H167.514V199.917H184.215V183.271Z" stroke="#28A745" stroke-opacity="0.14" stroke-miterlimit="10"/>
<path d="M200.917 183.271H184.215V199.917H200.917V183.271Z" stroke="#28A745" stroke-opacity="0.14" stroke-miterlimit="10"/>
<path d="M217.619 183.271H200.917V199.917H217.619V183.271Z" stroke="#28A745" stroke-opacity="0.14" stroke-miterlimit="10"/>
<path d="M234.321 183.271H217.619V199.917H234.321V183.271Z" stroke="#28A745" stroke-opacity="0.14" stroke-miterlimit="10"/>
<path d="M251.022 183.271H234.32V199.917H251.022V183.271Z" stroke="#28A745" stroke-opacity="0.14" stroke-miterlimit="10"/>
<path d="M267.724 183.271H251.022V199.917H267.724V183.271Z" stroke="#28A745" stroke-opacity="0.14" stroke-miterlimit="10"/>
<path d="M284.425 183.271H267.724V199.917H284.425V183.271Z" stroke="#28A745" stroke-opacity="0.14" stroke-miterlimit="10"/>
<path d="M301.128 183.271H284.426V199.917H301.128V183.271Z" stroke="#28A745" stroke-opacity="0.14" stroke-miterlimit="10"/>
<path d="M317.83 183.271H301.128V199.917H317.83V183.271Z" stroke="#28A745" stroke-opacity="0.14" stroke-miterlimit="10"/>
<path d="M334.531 183.271H317.829V199.917H334.531V183.271Z" stroke="#28A745" stroke-opacity="0.14" stroke-miterlimit="10"/>
<path d="M351.233 183.271H334.531V199.917H351.233V183.271Z" stroke="#28A745" stroke-opacity="0.14" stroke-miterlimit="10"/>
<path d="M367.935 183.271H351.233V199.917H367.935V183.271Z" stroke="#28A745" stroke-opacity="0.14" stroke-miterlimit="10"/>
<path d="M384.636 183.271H367.935V199.917H384.636V183.271Z" stroke="#28A745" stroke-opacity="0.14" stroke-miterlimit="10"/>
<path d="M401.339 183.271H384.637V199.917H401.339V183.271Z" stroke="#28A745" stroke-opacity="0.14" stroke-miterlimit="10"/>
<path d="M17.1969 199.917H0.495117V216.563H17.1969V199.917Z" stroke="#28A745" stroke-opacity="0.14" stroke-miterlimit="10"/>
<path d="M33.8991 199.917H17.1973V216.563H33.8991V199.917Z" stroke="#28A745" stroke-opacity="0.14" stroke-miterlimit="10"/>
<path d="M50.6002 199.917H33.8984V216.563H50.6002V199.917Z" stroke="#28A745" stroke-opacity="0.14" stroke-miterlimit="10"/>
<path d="M67.3024 199.917H50.6006V216.563H67.3024V199.917Z" stroke="#28A745" stroke-opacity="0.14" stroke-miterlimit="10"/>
<path d="M84.0045 199.917H67.3027V216.563H84.0045V199.917Z" stroke="#28A745" stroke-opacity="0.14" stroke-miterlimit="10"/>
<path d="M100.706 199.917H84.0039V216.563H100.706V199.917Z" stroke="#28A745" stroke-opacity="0.14" stroke-miterlimit="10"/>
<path d="M117.408 199.917H100.706V216.563H117.408V199.917Z" stroke="#28A745" stroke-opacity="0.14" stroke-miterlimit="10"/>
<path d="M134.11 199.917H117.408V216.563H134.11V199.917Z" stroke="#28A745" stroke-opacity="0.14" stroke-miterlimit="10"/>
<path d="M150.811 199.917H134.109V216.563H150.811V199.917Z" stroke="#28A745" stroke-opacity="0.14" stroke-miterlimit="10"/>
<path d="M167.513 199.917H150.812V216.563H167.513V199.917Z" stroke="#28A745" stroke-opacity="0.14" stroke-miterlimit="10"/>
<path d="M184.215 199.917H167.514V216.563H184.215V199.917Z" stroke="#28A745" stroke-opacity="0.14" stroke-miterlimit="10"/>
<path d="M200.917 199.917H184.215V216.563H200.917V199.917Z" stroke="#28A745" stroke-opacity="0.14" stroke-miterlimit="10"/>
<path d="M217.619 199.917H200.917V216.563H217.619V199.917Z" stroke="#28A745" stroke-opacity="0.14" stroke-miterlimit="10"/>
<path d="M234.321 199.917H217.619V216.563H234.321V199.917Z" stroke="#28A745" stroke-opacity="0.14" stroke-miterlimit="10"/>
<path d="M251.022 199.917H234.32V216.563H251.022V199.917Z" stroke="#28A745" stroke-opacity="0.14" stroke-miterlimit="10"/>
<path d="M267.724 199.917H251.022V216.563H267.724V199.917Z" stroke="#28A745" stroke-opacity="0.14" stroke-miterlimit="10"/>
<path d="M284.425 199.917H267.724V216.563H284.425V199.917Z" stroke="#28A745" stroke-opacity="0.14" stroke-miterlimit="10"/>
<path d="M301.128 199.917H284.426V216.563H301.128V199.917Z" stroke="#28A745" stroke-opacity="0.14" stroke-miterlimit="10"/>
<path d="M317.83 199.917H301.128V216.563H317.83V199.917Z" stroke="#28A745" stroke-opacity="0.14" stroke-miterlimit="10"/>
<path d="M334.531 199.917H317.829V216.563H334.531V199.917Z" stroke="#28A745" stroke-opacity="0.14" stroke-miterlimit="10"/>
<path d="M351.233 199.917H334.531V216.563H351.233V199.917Z" stroke="#28A745" stroke-opacity="0.14" stroke-miterlimit="10"/>
<path d="M367.935 199.917H351.233V216.563H367.935V199.917Z" stroke="#28A745" stroke-opacity="0.14" stroke-miterlimit="10"/>
<path d="M384.636 199.917H367.935V216.563H384.636V199.917Z" stroke="#28A745" stroke-opacity="0.14" stroke-miterlimit="10"/>
<path d="M401.339 199.917H384.637V216.563H401.339V199.917Z" stroke="#28A745" stroke-opacity="0.14" stroke-miterlimit="10"/>
<path d="M17.1969 216.563H0.495117V233.209H17.1969V216.563Z" stroke="#28A745" stroke-opacity="0.14" stroke-miterlimit="10"/>
<path d="M33.8991 216.563H17.1973V233.209H33.8991V216.563Z" stroke="#28A745" stroke-opacity="0.14" stroke-miterlimit="10"/>
<path d="M50.6002 216.563H33.8984V233.209H50.6002V216.563Z" stroke="#28A745" stroke-opacity="0.14" stroke-miterlimit="10"/>
<path d="M67.3024 216.563H50.6006V233.209H67.3024V216.563Z" stroke="#28A745" stroke-opacity="0.14" stroke-miterlimit="10"/>
<path d="M84.0045 216.563H67.3027V233.209H84.0045V216.563Z" stroke="#28A745" stroke-opacity="0.14" stroke-miterlimit="10"/>
<path d="M100.706 216.563H84.0039V233.209H100.706V216.563Z" stroke="#28A745" stroke-opacity="0.14" stroke-miterlimit="10"/>
<path d="M117.408 216.563H100.706V233.209H117.408V216.563Z" stroke="#28A745" stroke-opacity="0.14" stroke-miterlimit="10"/>
<path d="M134.11 216.563H117.408V233.209H134.11V216.563Z" stroke="#28A745" stroke-opacity="0.14" stroke-miterlimit="10"/>
<path d="M150.811 216.563H134.109V233.209H150.811V216.563Z" stroke="#28A745" stroke-opacity="0.14" stroke-miterlimit="10"/>
<path d="M167.513 216.563H150.812V233.209H167.513V216.563Z" stroke="#28A745" stroke-opacity="0.14" stroke-miterlimit="10"/>
<path d="M184.215 216.563H167.514V233.209H184.215V216.563Z" stroke="#28A745" stroke-opacity="0.14" stroke-miterlimit="10"/>
<path d="M200.917 216.563H184.215V233.209H200.917V216.563Z" stroke="#28A745" stroke-opacity="0.14" stroke-miterlimit="10"/>
<path d="M217.619 216.563H200.917V233.209H217.619V216.563Z" stroke="#28A745" stroke-opacity="0.14" stroke-miterlimit="10"/>
<path d="M234.321 216.563H217.619V233.209H234.321V216.563Z" stroke="#28A745" stroke-opacity="0.14" stroke-miterlimit="10"/>
<path d="M251.022 216.563H234.32V233.209H251.022V216.563Z" stroke="#28A745" stroke-opacity="0.14" stroke-miterlimit="10"/>
<path d="M267.724 216.563H251.022V233.209H267.724V216.563Z" stroke="#28A745" stroke-opacity="0.14" stroke-miterlimit="10"/>
<path d="M284.425 216.563H267.724V233.209H284.425V216.563Z" stroke="#28A745" stroke-opacity="0.14" stroke-miterlimit="10"/>
<path d="M301.128 216.563H284.426V233.209H301.128V216.563Z" stroke="#28A745" stroke-opacity="0.14" stroke-miterlimit="10"/>
<path d="M317.83 216.563H301.128V233.209H317.83V216.563Z" stroke="#28A745" stroke-opacity="0.14" stroke-miterlimit="10"/>
<path d="M334.531 216.563H317.829V233.209H334.531V216.563Z" stroke="#28A745" stroke-opacity="0.14" stroke-miterlimit="10"/>
<path d="M351.233 216.563H334.531V233.209H351.233V216.563Z" stroke="#28A745" stroke-opacity="0.14" stroke-miterlimit="10"/>
<path d="M367.935 216.563H351.233V233.209H367.935V216.563Z" stroke="#28A745" stroke-opacity="0.14" stroke-miterlimit="10"/>
<path d="M384.636 216.563H367.935V233.209H384.636V216.563Z" stroke="#28A745" stroke-opacity="0.14" stroke-miterlimit="10"/>
<path d="M401.339 216.563H384.637V233.209H401.339V216.563Z" stroke="#28A745" stroke-opacity="0.14" stroke-miterlimit="10"/>
<path d="M17.1969 233.208H0.495117V249.854H17.1969V233.208Z" stroke="#28A745" stroke-opacity="0.14" stroke-miterlimit="10"/>
<path d="M33.8991 233.208H17.1973V249.854H33.8991V233.208Z" stroke="#28A745" stroke-opacity="0.14" stroke-miterlimit="10"/>
<path d="M50.6002 233.208H33.8984V249.854H50.6002V233.208Z" stroke="#28A745" stroke-opacity="0.14" stroke-miterlimit="10"/>
<path d="M67.3024 233.208H50.6006V249.854H67.3024V233.208Z" stroke="#28A745" stroke-opacity="0.14" stroke-miterlimit="10"/>
<path d="M84.0045 233.208H67.3027V249.854H84.0045V233.208Z" stroke="#28A745" stroke-opacity="0.14" stroke-miterlimit="10"/>
<path d="M100.706 233.208H84.0039V249.854H100.706V233.208Z" stroke="#28A745" stroke-opacity="0.14" stroke-miterlimit="10"/>
<path d="M117.408 233.208H100.706V249.854H117.408V233.208Z" stroke="#28A745" stroke-opacity="0.14" stroke-miterlimit="10"/>
<path d="M134.11 233.208H117.408V249.854H134.11V233.208Z" stroke="#28A745" stroke-opacity="0.14" stroke-miterlimit="10"/>
<path d="M150.811 233.208H134.109V249.854H150.811V233.208Z" stroke="#28A745" stroke-opacity="0.14" stroke-miterlimit="10"/>
<path d="M167.513 233.208H150.812V249.854H167.513V233.208Z" stroke="#28A745" stroke-opacity="0.14" stroke-miterlimit="10"/>
<path d="M184.215 233.208H167.514V249.854H184.215V233.208Z" stroke="#28A745" stroke-opacity="0.14" stroke-miterlimit="10"/>
<path d="M200.917 233.208H184.215V249.854H200.917V233.208Z" stroke="#28A745" stroke-opacity="0.14" stroke-miterlimit="10"/>
<path d="M217.619 233.208H200.917V249.854H217.619V233.208Z" stroke="#28A745" stroke-opacity="0.14" stroke-miterlimit="10"/>
<path d="M234.321 233.208H217.619V249.854H234.321V233.208Z" stroke="#28A745" stroke-opacity="0.14" stroke-miterlimit="10"/>
<path d="M251.022 233.208H234.32V249.854H251.022V233.208Z" stroke="#28A745" stroke-opacity="0.14" stroke-miterlimit="10"/>
<path d="M267.724 233.208H251.022V249.854H267.724V233.208Z" stroke="#28A745" stroke-opacity="0.14" stroke-miterlimit="10"/>
<path d="M284.425 233.208H267.724V249.854H284.425V233.208Z" stroke="#28A745" stroke-opacity="0.14" stroke-miterlimit="10"/>
<path d="M301.128 233.208H284.426V249.854H301.128V233.208Z" stroke="#28A745" stroke-opacity="0.14" stroke-miterlimit="10"/>
<path d="M317.83 233.208H301.128V249.854H317.83V233.208Z" stroke="#28A745" stroke-opacity="0.14" stroke-miterlimit="10"/>
<path d="M334.531 233.208H317.829V249.854H334.531V233.208Z" stroke="#28A745" stroke-opacity="0.14" stroke-miterlimit="10"/>
<path d="M351.233 233.208H334.531V249.854H351.233V233.208Z" stroke="#28A745" stroke-opacity="0.14" stroke-miterlimit="10"/>
<path d="M367.935 233.208H351.233V249.854H367.935V233.208Z" stroke="#28A745" stroke-opacity="0.14" stroke-miterlimit="10"/>
<path d="M384.636 233.208H367.935V249.854H384.636V233.208Z" stroke="#28A745" stroke-opacity="0.14" stroke-miterlimit="10"/>
<path d="M401.339 233.208H384.637V249.854H401.339V233.208Z" stroke="#28A745" stroke-opacity="0.14" stroke-miterlimit="10"/>
<path d="M17.1969 249.854H0.495117V266.5H17.1969V249.854Z" stroke="#28A745" stroke-opacity="0.14" stroke-miterlimit="10"/>
<path d="M33.8991 249.854H17.1973V266.5H33.8991V249.854Z" stroke="#28A745" stroke-opacity="0.14" stroke-miterlimit="10"/>
<path d="M50.6002 249.854H33.8984V266.5H50.6002V249.854Z" stroke="#28A745" stroke-opacity="0.14" stroke-miterlimit="10"/>
<path d="M67.3024 249.854H50.6006V266.5H67.3024V249.854Z" stroke="#28A745" stroke-opacity="0.14" stroke-miterlimit="10"/>
<path d="M84.0045 249.854H67.3027V266.5H84.0045V249.854Z" stroke="#28A745" stroke-opacity="0.14" stroke-miterlimit="10"/>
<path d="M100.706 249.854H84.0039V266.5H100.706V249.854Z" stroke="#28A745" stroke-opacity="0.14" stroke-miterlimit="10"/>
<path d="M117.408 249.854H100.706V266.5H117.408V249.854Z" stroke="#28A745" stroke-opacity="0.14" stroke-miterlimit="10"/>
<path d="M134.11 249.854H117.408V266.5H134.11V249.854Z" stroke="#28A745" stroke-opacity="0.14" stroke-miterlimit="10"/>
<path d="M150.811 249.854H134.109V266.5H150.811V249.854Z" stroke="#28A745" stroke-opacity="0.14" stroke-miterlimit="10"/>
<path d="M167.513 249.854H150.812V266.5H167.513V249.854Z" stroke="#28A745" stroke-opacity="0.14" stroke-miterlimit="10"/>
<path d="M184.215 249.854H167.514V266.5H184.215V249.854Z" stroke="#28A745" stroke-opacity="0.14" stroke-miterlimit="10"/>
<path d="M200.917 249.854H184.215V266.5H200.917V249.854Z" stroke="#28A745" stroke-opacity="0.14" stroke-miterlimit="10"/>
<path d="M217.619 249.854H200.917V266.5H217.619V249.854Z" stroke="#28A745" stroke-opacity="0.14" stroke-miterlimit="10"/>
<path d="M234.321 249.854H217.619V266.5H234.321V249.854Z" stroke="#28A745" stroke-opacity="0.14" stroke-miterlimit="10"/>
<path d="M251.022 249.854H234.32V266.5H251.022V249.854Z" stroke="#28A745" stroke-opacity="0.14" stroke-miterlimit="10"/>
<path d="M267.724 249.854H251.022V266.5H267.724V249.854Z" stroke="#28A745" stroke-opacity="0.14" stroke-miterlimit="10"/>
<path d="M284.425 249.854H267.724V266.5H284.425V249.854Z" stroke="#28A745" stroke-opacity="0.14" stroke-miterlimit="10"/>
<path d="M301.128 249.854H284.426V266.5H301.128V249.854Z" stroke="#28A745" stroke-opacity="0.14" stroke-miterlimit="10"/>
<path d="M317.83 249.854H301.128V266.5H317.83V249.854Z" stroke="#28A745" stroke-opacity="0.14" stroke-miterlimit="10"/>
<path d="M334.531 249.854H317.829V266.5H334.531V249.854Z" stroke="#28A745" stroke-opacity="0.14" stroke-miterlimit="10"/>
<path d="M351.233 249.854H334.531V266.5H351.233V249.854Z" stroke="#28A745" stroke-opacity="0.14" stroke-miterlimit="10"/>
<path d="M367.935 249.854H351.233V266.5H367.935V249.854Z" stroke="#28A745" stroke-opacity="0.14" stroke-miterlimit="10"/>
<path d="M384.636 249.854H367.935V266.5H384.636V249.854Z" stroke="#28A745" stroke-opacity="0.14" stroke-miterlimit="10"/>
<path d="M401.339 249.854H384.637V266.5H401.339V249.854Z" stroke="#28A745" stroke-opacity="0.14" stroke-miterlimit="10"/>
<path d="M17.1969 266.5H0.495117V283.146H17.1969V266.5Z" stroke="#28A745" stroke-opacity="0.14" stroke-miterlimit="10"/>
<path d="M33.8991 266.5H17.1973V283.146H33.8991V266.5Z" stroke="#28A745" stroke-opacity="0.14" stroke-miterlimit="10"/>
<path d="M50.6002 266.5H33.8984V283.146H50.6002V266.5Z" stroke="#28A745" stroke-opacity="0.14" stroke-miterlimit="10"/>
<path d="M67.3024 266.5H50.6006V283.146H67.3024V266.5Z" stroke="#28A745" stroke-opacity="0.14" stroke-miterlimit="10"/>
<path d="M84.0045 266.5H67.3027V283.146H84.0045V266.5Z" stroke="#28A745" stroke-opacity="0.14" stroke-miterlimit="10"/>
<path d="M100.706 266.5H84.0039V283.146H100.706V266.5Z" stroke="#28A745" stroke-opacity="0.14" stroke-miterlimit="10"/>
<path d="M117.408 266.5H100.706V283.146H117.408V266.5Z" stroke="#28A745" stroke-opacity="0.14" stroke-miterlimit="10"/>
<path d="M134.11 266.5H117.408V283.146H134.11V266.5Z" stroke="#28A745" stroke-opacity="0.14" stroke-miterlimit="10"/>
<path d="M150.811 266.5H134.109V283.146H150.811V266.5Z" stroke="#28A745" stroke-opacity="0.14" stroke-miterlimit="10"/>
<path d="M167.513 266.5H150.812V283.146H167.513V266.5Z" stroke="#28A745" stroke-opacity="0.14" stroke-miterlimit="10"/>
<path d="M184.215 266.5H167.514V283.146H184.215V266.5Z" stroke="#28A745" stroke-opacity="0.14" stroke-miterlimit="10"/>
<path d="M200.917 266.5H184.215V283.146H200.917V266.5Z" stroke="#28A745" stroke-opacity="0.14" stroke-miterlimit="10"/>
<path d="M217.619 266.5H200.917V283.146H217.619V266.5Z" stroke="#28A745" stroke-opacity="0.14" stroke-miterlimit="10"/>
<path d="M234.321 266.5H217.619V283.146H234.321V266.5Z" stroke="#28A745" stroke-opacity="0.14" stroke-miterlimit="10"/>
<path d="M251.022 266.5H234.32V283.146H251.022V266.5Z" stroke="#28A745" stroke-opacity="0.14" stroke-miterlimit="10"/>
<path d="M267.724 266.5H251.022V283.146H267.724V266.5Z" stroke="#28A745" stroke-opacity="0.14" stroke-miterlimit="10"/>
<path d="M284.425 266.5H267.724V283.146H284.425V266.5Z" stroke="#28A745" stroke-opacity="0.14" stroke-miterlimit="10"/>
<path d="M301.128 266.5H284.426V283.146H301.128V266.5Z" stroke="#28A745" stroke-opacity="0.14" stroke-miterlimit="10"/>
<path d="M317.83 266.5H301.128V283.146H317.83V266.5Z" stroke="#28A745" stroke-opacity="0.14" stroke-miterlimit="10"/>
<path d="M334.531 266.5H317.829V283.146H334.531V266.5Z" stroke="#28A745" stroke-opacity="0.14" stroke-miterlimit="10"/>
<path d="M351.233 266.5H334.531V283.146H351.233V266.5Z" stroke="#28A745" stroke-opacity="0.14" stroke-miterlimit="10"/>
<path d="M367.935 266.5H351.233V283.146H367.935V266.5Z" stroke="#28A745" stroke-opacity="0.14" stroke-miterlimit="10"/>
<path d="M384.636 266.5H367.935V283.146H384.636V266.5Z" stroke="#28A745" stroke-opacity="0.14" stroke-miterlimit="10"/>
<path d="M401.339 266.5H384.637V283.146H401.339V266.5Z" stroke="#28A745" stroke-opacity="0.14" stroke-miterlimit="10"/>
<path d="M17.1969 283.146H0.495117V299.792H17.1969V283.146Z" stroke="#28A745" stroke-opacity="0.14" stroke-miterlimit="10"/>
<path d="M33.8991 283.146H17.1973V299.792H33.8991V283.146Z" stroke="#28A745" stroke-opacity="0.14" stroke-miterlimit="10"/>
<path d="M50.6002 283.146H33.8984V299.792H50.6002V283.146Z" stroke="#28A745" stroke-opacity="0.14" stroke-miterlimit="10"/>
<path d="M67.3024 283.146H50.6006V299.792H67.3024V283.146Z" stroke="#28A745" stroke-opacity="0.14" stroke-miterlimit="10"/>
<path d="M84.0045 283.146H67.3027V299.792H84.0045V283.146Z" stroke="#28A745" stroke-opacity="0.14" stroke-miterlimit="10"/>
<path d="M100.706 283.146H84.0039V299.792H100.706V283.146Z" stroke="#28A745" stroke-opacity="0.14" stroke-miterlimit="10"/>
<path d="M117.408 283.146H100.706V299.792H117.408V283.146Z" stroke="#28A745" stroke-opacity="0.14" stroke-miterlimit="10"/>
<path d="M134.11 283.146H117.408V299.792H134.11V283.146Z" stroke="#28A745" stroke-opacity="0.14" stroke-miterlimit="10"/>
<path d="M150.811 283.146H134.109V299.792H150.811V283.146Z" stroke="#28A745" stroke-opacity="0.14" stroke-miterlimit="10"/>
<path d="M167.513 283.146H150.812V299.792H167.513V283.146Z" stroke="#28A745" stroke-opacity="0.14" stroke-miterlimit="10"/>
<path d="M184.215 283.146H167.514V299.792H184.215V283.146Z" stroke="#28A745" stroke-opacity="0.14" stroke-miterlimit="10"/>
<path d="M200.917 283.146H184.215V299.792H200.917V283.146Z" stroke="#28A745" stroke-opacity="0.14" stroke-miterlimit="10"/>
<path d="M217.619 283.146H200.917V299.792H217.619V283.146Z" stroke="#28A745" stroke-opacity="0.14" stroke-miterlimit="10"/>
<path d="M234.321 283.146H217.619V299.792H234.321V283.146Z" stroke="#28A745" stroke-opacity="0.14" stroke-miterlimit="10"/>
<path d="M251.022 283.146H234.32V299.792H251.022V283.146Z" stroke="#28A745" stroke-opacity="0.14" stroke-miterlimit="10"/>
<path d="M267.724 283.146H251.022V299.792H267.724V283.146Z" stroke="#28A745" stroke-opacity="0.14" stroke-miterlimit="10"/>
<path d="M284.425 283.146H267.724V299.792H284.425V283.146Z" stroke="#28A745" stroke-opacity="0.14" stroke-miterlimit="10"/>
<path d="M301.128 283.146H284.426V299.792H301.128V283.146Z" stroke="#28A745" stroke-opacity="0.14" stroke-miterlimit="10"/>
<path d="M317.83 283.146H301.128V299.792H317.83V283.146Z" stroke="#28A745" stroke-opacity="0.14" stroke-miterlimit="10"/>
<path d="M334.531 283.146H317.829V299.792H334.531V283.146Z" stroke="#28A745" stroke-opacity="0.14" stroke-miterlimit="10"/>
<path d="M351.233 283.146H334.531V299.792H351.233V283.146Z" stroke="#28A745" stroke-opacity="0.14" stroke-miterlimit="10"/>
<path d="M367.935 283.146H351.233V299.792H367.935V283.146Z" stroke="#28A745" stroke-opacity="0.14" stroke-miterlimit="10"/>
<path d="M384.636 283.146H367.935V299.792H384.636V283.146Z" stroke="#28A745" stroke-opacity="0.14" stroke-miterlimit="10"/>
<path d="M401.339 283.146H384.637V299.792H401.339V283.146Z" stroke="#28A745" stroke-opacity="0.14" stroke-miterlimit="10"/>
<path d="M17.1969 299.792H0.495117V316.438H17.1969V299.792Z" stroke="#28A745" stroke-opacity="0.14" stroke-miterlimit="10"/>
<path d="M33.8991 299.792H17.1973V316.438H33.8991V299.792Z" stroke="#28A745" stroke-opacity="0.14" stroke-miterlimit="10"/>
<path d="M50.6002 299.792H33.8984V316.438H50.6002V299.792Z" stroke="#28A745" stroke-opacity="0.14" stroke-miterlimit="10"/>
<path d="M67.3024 299.792H50.6006V316.438H67.3024V299.792Z" stroke="#28A745" stroke-opacity="0.14" stroke-miterlimit="10"/>
<path d="M84.0045 299.792H67.3027V316.438H84.0045V299.792Z" stroke="#28A745" stroke-opacity="0.14" stroke-miterlimit="10"/>
<path d="M100.706 299.792H84.0039V316.438H100.706V299.792Z" stroke="#28A745" stroke-opacity="0.14" stroke-miterlimit="10"/>
<path d="M117.408 299.792H100.706V316.438H117.408V299.792Z" stroke="#28A745" stroke-opacity="0.14" stroke-miterlimit="10"/>
<path d="M134.11 299.792H117.408V316.438H134.11V299.792Z" stroke="#28A745" stroke-opacity="0.14" stroke-miterlimit="10"/>
<path d="M150.811 299.792H134.109V316.438H150.811V299.792Z" stroke="#28A745" stroke-opacity="0.14" stroke-miterlimit="10"/>
<path d="M167.513 299.792H150.812V316.438H167.513V299.792Z" stroke="#28A745" stroke-opacity="0.14" stroke-miterlimit="10"/>
<path d="M184.215 299.792H167.514V316.438H184.215V299.792Z" stroke="#28A745" stroke-opacity="0.14" stroke-miterlimit="10"/>
<path d="M200.917 299.792H184.215V316.438H200.917V299.792Z" stroke="#28A745" stroke-opacity="0.14" stroke-miterlimit="10"/>
<path d="M217.619 299.792H200.917V316.438H217.619V299.792Z" stroke="#28A745" stroke-opacity="0.14" stroke-miterlimit="10"/>
<path d="M234.321 299.792H217.619V316.438H234.321V299.792Z" stroke="#28A745" stroke-opacity="0.14" stroke-miterlimit="10"/>
<path d="M251.022 299.792H234.32V316.438H251.022V299.792Z" stroke="#28A745" stroke-opacity="0.14" stroke-miterlimit="10"/>
<path d="M267.724 299.792H251.022V316.438H267.724V299.792Z" stroke="#28A745" stroke-opacity="0.14" stroke-miterlimit="10"/>
<path d="M284.425 299.792H267.724V316.438H284.425V299.792Z" stroke="#28A745" stroke-opacity="0.14" stroke-miterlimit="10"/>
<path d="M301.128 299.792H284.426V316.438H301.128V299.792Z" stroke="#28A745" stroke-opacity="0.14" stroke-miterlimit="10"/>
<path d="M317.83 299.792H301.128V316.438H317.83V299.792Z" stroke="#28A745" stroke-opacity="0.14" stroke-miterlimit="10"/>
<path d="M334.531 299.792H317.829V316.438H334.531V299.792Z" stroke="#28A745" stroke-opacity="0.14" stroke-miterlimit="10"/>
<path d="M351.233 299.792H334.531V316.438H351.233V299.792Z" stroke="#28A745" stroke-opacity="0.14" stroke-miterlimit="10"/>
<path d="M367.935 299.792H351.233V316.438H367.935V299.792Z" stroke="#28A745" stroke-opacity="0.14" stroke-miterlimit="10"/>
<path d="M384.636 299.792H367.935V316.438H384.636V299.792Z" stroke="#28A745" stroke-opacity="0.14" stroke-miterlimit="10"/>
<path d="M401.339 299.792H384.637V316.438H401.339V299.792Z" stroke="#28A745" stroke-opacity="0.14" stroke-miterlimit="10"/>
<path d="M17.1969 316.438H0.495117V333.084H17.1969V316.438Z" stroke="#28A745" stroke-opacity="0.14" stroke-miterlimit="10"/>
<path d="M33.8991 316.438H17.1973V333.084H33.8991V316.438Z" stroke="#28A745" stroke-opacity="0.14" stroke-miterlimit="10"/>
<path d="M50.6002 316.438H33.8984V333.084H50.6002V316.438Z" stroke="#28A745" stroke-opacity="0.14" stroke-miterlimit="10"/>
<path d="M67.3024 316.438H50.6006V333.084H67.3024V316.438Z" stroke="#28A745" stroke-opacity="0.14" stroke-miterlimit="10"/>
<path d="M84.0045 316.438H67.3027V333.084H84.0045V316.438Z" stroke="#28A745" stroke-opacity="0.14" stroke-miterlimit="10"/>
<path d="M100.706 316.438H84.0039V333.084H100.706V316.438Z" stroke="#28A745" stroke-opacity="0.14" stroke-miterlimit="10"/>
<path d="M117.408 316.438H100.706V333.084H117.408V316.438Z" stroke="#28A745" stroke-opacity="0.14" stroke-miterlimit="10"/>
<path d="M134.11 316.438H117.408V333.084H134.11V316.438Z" stroke="#28A745" stroke-opacity="0.14" stroke-miterlimit="10"/>
<path d="M150.811 316.438H134.109V333.084H150.811V316.438Z" stroke="#28A745" stroke-opacity="0.14" stroke-miterlimit="10"/>
<path d="M167.513 316.438H150.812V333.084H167.513V316.438Z" stroke="#28A745" stroke-opacity="0.14" stroke-miterlimit="10"/>
<path d="M184.215 316.438H167.514V333.084H184.215V316.438Z" stroke="#28A745" stroke-opacity="0.14" stroke-miterlimit="10"/>
<path d="M200.917 316.438H184.215V333.084H200.917V316.438Z" stroke="#28A745" stroke-opacity="0.14" stroke-miterlimit="10"/>
<path d="M217.619 316.438H200.917V333.084H217.619V316.438Z" stroke="#28A745" stroke-opacity="0.14" stroke-miterlimit="10"/>
<path d="M234.321 316.438H217.619V333.084H234.321V316.438Z" stroke="#28A745" stroke-opacity="0.14" stroke-miterlimit="10"/>
<path d="M251.022 316.438H234.32V333.084H251.022V316.438Z" stroke="#28A745" stroke-opacity="0.14" stroke-miterlimit="10"/>
<path d="M267.724 316.438H251.022V333.084H267.724V316.438Z" stroke="#28A745" stroke-opacity="0.14" stroke-miterlimit="10"/>
<path d="M284.425 316.438H267.724V333.084H284.425V316.438Z" stroke="#28A745" stroke-opacity="0.14" stroke-miterlimit="10"/>
<path d="M301.128 316.438H284.426V333.084H301.128V316.438Z" stroke="#28A745" stroke-opacity="0.14" stroke-miterlimit="10"/>
<path d="M317.83 316.438H301.128V333.084H317.83V316.438Z" stroke="#28A745" stroke-opacity="0.14" stroke-miterlimit="10"/>
<path d="M334.531 316.438H317.829V333.084H334.531V316.438Z" stroke="#28A745" stroke-opacity="0.14" stroke-miterlimit="10"/>
<path d="M351.233 316.438H334.531V333.084H351.233V316.438Z" stroke="#28A745" stroke-opacity="0.14" stroke-miterlimit="10"/>
<path d="M367.935 316.438H351.233V333.084H367.935V316.438Z" stroke="#28A745" stroke-opacity="0.14" stroke-miterlimit="10"/>
<path d="M384.636 316.438H367.935V333.084H384.636V316.438Z" stroke="#28A745" stroke-opacity="0.14" stroke-miterlimit="10"/>
<path d="M401.339 316.438H384.637V333.084H401.339V316.438Z" stroke="#28A745" stroke-opacity="0.14" stroke-miterlimit="10"/>
<path d="M17.1969 333.084H0.495117V349.73H17.1969V333.084Z" stroke="#28A745" stroke-opacity="0.14" stroke-miterlimit="10"/>
<path d="M33.8991 333.084H17.1973V349.73H33.8991V333.084Z" stroke="#28A745" stroke-opacity="0.14" stroke-miterlimit="10"/>
<path d="M50.6002 333.084H33.8984V349.73H50.6002V333.084Z" stroke="#28A745" stroke-opacity="0.14" stroke-miterlimit="10"/>
<path d="M67.3024 333.084H50.6006V349.73H67.3024V333.084Z" stroke="#28A745" stroke-opacity="0.14" stroke-miterlimit="10"/>
<path d="M84.0045 333.084H67.3027V349.73H84.0045V333.084Z" stroke="#28A745" stroke-opacity="0.14" stroke-miterlimit="10"/>
<path d="M100.706 333.084H84.0039V349.73H100.706V333.084Z" stroke="#28A745" stroke-opacity="0.14" stroke-miterlimit="10"/>
<path d="M117.408 333.084H100.706V349.73H117.408V333.084Z" stroke="#28A745" stroke-opacity="0.14" stroke-miterlimit="10"/>
<path d="M134.11 333.084H117.408V349.73H134.11V333.084Z" stroke="#28A745" stroke-opacity="0.14" stroke-miterlimit="10"/>
<path d="M150.811 333.084H134.109V349.73H150.811V333.084Z" stroke="#28A745" stroke-opacity="0.14" stroke-miterlimit="10"/>
<path d="M167.513 333.084H150.812V349.73H167.513V333.084Z" stroke="#28A745" stroke-opacity="0.14" stroke-miterlimit="10"/>
<path d="M184.215 333.084H167.514V349.73H184.215V333.084Z" stroke="#28A745" stroke-opacity="0.14" stroke-miterlimit="10"/>
<path d="M200.917 333.084H184.215V349.73H200.917V333.084Z" stroke="#28A745" stroke-opacity="0.14" stroke-miterlimit="10"/>
<path d="M217.619 333.084H200.917V349.73H217.619V333.084Z" stroke="#28A745" stroke-opacity="0.14" stroke-miterlimit="10"/>
<path d="M234.321 333.084H217.619V349.73H234.321V333.084Z" stroke="#28A745" stroke-opacity="0.14" stroke-miterlimit="10"/>
<path d="M251.022 333.084H234.32V349.73H251.022V333.084Z" stroke="#28A745" stroke-opacity="0.14" stroke-miterlimit="10"/>
<path d="M267.724 333.084H251.022V349.73H267.724V333.084Z" stroke="#28A745" stroke-opacity="0.14" stroke-miterlimit="10"/>
<path d="M284.425 333.084H267.724V349.73H284.425V333.084Z" stroke="#28A745" stroke-opacity="0.14" stroke-miterlimit="10"/>
<path d="M301.128 333.084H284.426V349.73H301.128V333.084Z" stroke="#28A745" stroke-opacity="0.14" stroke-miterlimit="10"/>
<path d="M317.83 333.084H301.128V349.73H317.83V333.084Z" stroke="#28A745" stroke-opacity="0.14" stroke-miterlimit="10"/>
<path d="M334.531 333.084H317.829V349.73H334.531V333.084Z" stroke="#28A745" stroke-opacity="0.14" stroke-miterlimit="10"/>
<path d="M351.233 333.084H334.531V349.73H351.233V333.084Z" stroke="#28A745" stroke-opacity="0.14" stroke-miterlimit="10"/>
<path d="M367.935 333.084H351.233V349.73H367.935V333.084Z" stroke="#28A745" stroke-opacity="0.14" stroke-miterlimit="10"/>
<path d="M384.636 333.084H367.935V349.73H384.636V333.084Z" stroke="#28A745" stroke-opacity="0.14" stroke-miterlimit="10"/>
<path d="M401.339 333.084H384.637V349.73H401.339V333.084Z" stroke="#28A745" stroke-opacity="0.14" stroke-miterlimit="10"/>
<path d="M17.1969 349.729H0.495117V366.375H17.1969V349.729Z" stroke="#28A745" stroke-opacity="0.14" stroke-miterlimit="10"/>
<path d="M33.8991 349.729H17.1973V366.375H33.8991V349.729Z" stroke="#28A745" stroke-opacity="0.14" stroke-miterlimit="10"/>
<path d="M50.6002 349.729H33.8984V366.375H50.6002V349.729Z" stroke="#28A745" stroke-opacity="0.14" stroke-miterlimit="10"/>
<path d="M67.3024 349.729H50.6006V366.375H67.3024V349.729Z" stroke="#28A745" stroke-opacity="0.14" stroke-miterlimit="10"/>
<path d="M84.0045 349.729H67.3027V366.375H84.0045V349.729Z" stroke="#28A745" stroke-opacity="0.14" stroke-miterlimit="10"/>
<path d="M100.706 349.729H84.0039V366.375H100.706V349.729Z" stroke="#28A745" stroke-opacity="0.14" stroke-miterlimit="10"/>
<path d="M117.408 349.729H100.706V366.375H117.408V349.729Z" stroke="#28A745" stroke-opacity="0.14" stroke-miterlimit="10"/>
<path d="M134.11 349.729H117.408V366.375H134.11V349.729Z" stroke="#28A745" stroke-opacity="0.14" stroke-miterlimit="10"/>
<path d="M150.811 349.729H134.109V366.375H150.811V349.729Z" stroke="#28A745" stroke-opacity="0.14" stroke-miterlimit="10"/>
<path d="M167.513 349.729H150.812V366.375H167.513V349.729Z" stroke="#28A745" stroke-opacity="0.14" stroke-miterlimit="10"/>
<path d="M184.215 349.729H167.514V366.375H184.215V349.729Z" stroke="#28A745" stroke-opacity="0.14" stroke-miterlimit="10"/>
<path d="M200.917 349.729H184.215V366.375H200.917V349.729Z" stroke="#28A745" stroke-opacity="0.14" stroke-miterlimit="10"/>
<path d="M217.619 349.729H200.917V366.375H217.619V349.729Z" stroke="#28A745" stroke-opacity="0.14" stroke-miterlimit="10"/>
<path d="M234.321 349.729H217.619V366.375H234.321V349.729Z" stroke="#28A745" stroke-opacity="0.14" stroke-miterlimit="10"/>
<path d="M251.022 349.729H234.32V366.375H251.022V349.729Z" stroke="#28A745" stroke-opacity="0.14" stroke-miterlimit="10"/>
<path d="M267.724 349.729H251.022V366.375H267.724V349.729Z" stroke="#28A745" stroke-opacity="0.14" stroke-miterlimit="10"/>
<path d="M284.425 349.729H267.724V366.375H284.425V349.729Z" stroke="#28A745" stroke-opacity="0.14" stroke-miterlimit="10"/>
<path d="M301.128 349.729H284.426V366.375H301.128V349.729Z" stroke="#28A745" stroke-opacity="0.14" stroke-miterlimit="10"/>
<path d="M317.83 349.729H301.128V366.375H317.83V349.729Z" stroke="#28A745" stroke-opacity="0.14" stroke-miterlimit="10"/>
<path d="M334.531 349.729H317.829V366.375H334.531V349.729Z" stroke="#28A745" stroke-opacity="0.14" stroke-miterlimit="10"/>
<path d="M351.233 349.729H334.531V366.375H351.233V349.729Z" stroke="#28A745" stroke-opacity="0.14" stroke-miterlimit="10"/>
<path d="M367.935 349.729H351.233V366.375H367.935V349.729Z" stroke="#28A745" stroke-opacity="0.14" stroke-miterlimit="10"/>
<path d="M384.636 349.729H367.935V366.375H384.636V349.729Z" stroke="#28A745" stroke-opacity="0.14" stroke-miterlimit="10"/>
<path d="M401.339 349.729H384.637V366.375H401.339V349.729Z" stroke="#28A745" stroke-opacity="0.14" stroke-miterlimit="10"/>
<path d="M17.1969 366.375H0.495117V383.021H17.1969V366.375Z" stroke="#28A745" stroke-opacity="0.14" stroke-miterlimit="10"/>
<path d="M33.8991 366.375H17.1973V383.021H33.8991V366.375Z" stroke="#28A745" stroke-opacity="0.14" stroke-miterlimit="10"/>
<path d="M50.6002 366.375H33.8984V383.021H50.6002V366.375Z" stroke="#28A745" stroke-opacity="0.14" stroke-miterlimit="10"/>
<path d="M67.3024 366.375H50.6006V383.021H67.3024V366.375Z" stroke="#28A745" stroke-opacity="0.14" stroke-miterlimit="10"/>
<path d="M84.0045 366.375H67.3027V383.021H84.0045V366.375Z" stroke="#28A745" stroke-opacity="0.14" stroke-miterlimit="10"/>
<path d="M100.706 366.375H84.0039V383.021H100.706V366.375Z" stroke="#28A745" stroke-opacity="0.14" stroke-miterlimit="10"/>
<path d="M117.408 366.375H100.706V383.021H117.408V366.375Z" stroke="#28A745" stroke-opacity="0.14" stroke-miterlimit="10"/>
<path d="M134.11 366.375H117.408V383.021H134.11V366.375Z" stroke="#28A745" stroke-opacity="0.14" stroke-miterlimit="10"/>
<path d="M150.811 366.375H134.109V383.021H150.811V366.375Z" stroke="#28A745" stroke-opacity="0.14" stroke-miterlimit="10"/>
<path d="M167.513 366.375H150.812V383.021H167.513V366.375Z" stroke="#28A745" stroke-opacity="0.14" stroke-miterlimit="10"/>
<path d="M184.215 366.375H167.514V383.021H184.215V366.375Z" stroke="#28A745" stroke-opacity="0.14" stroke-miterlimit="10"/>
<path d="M200.917 366.375H184.215V383.021H200.917V366.375Z" stroke="#28A745" stroke-opacity="0.14" stroke-miterlimit="10"/>
<path d="M217.619 366.375H200.917V383.021H217.619V366.375Z" stroke="#28A745" stroke-opacity="0.14" stroke-miterlimit="10"/>
<path d="M234.321 366.375H217.619V383.021H234.321V366.375Z" stroke="#28A745" stroke-opacity="0.14" stroke-miterlimit="10"/>
<path d="M251.022 366.375H234.32V383.021H251.022V366.375Z" stroke="#28A745" stroke-opacity="0.14" stroke-miterlimit="10"/>
<path d="M267.724 366.375H251.022V383.021H267.724V366.375Z" stroke="#28A745" stroke-opacity="0.14" stroke-miterlimit="10"/>
<path d="M284.425 366.375H267.724V383.021H284.425V366.375Z" stroke="#28A745" stroke-opacity="0.14" stroke-miterlimit="10"/>
<path d="M301.128 366.375H284.426V383.021H301.128V366.375Z" stroke="#28A745" stroke-opacity="0.14" stroke-miterlimit="10"/>
<path d="M317.83 366.375H301.128V383.021H317.83V366.375Z" stroke="#28A745" stroke-opacity="0.14" stroke-miterlimit="10"/>
<path d="M334.531 366.375H317.829V383.021H334.531V366.375Z" stroke="#28A745" stroke-opacity="0.14" stroke-miterlimit="10"/>
<path d="M351.233 366.375H334.531V383.021H351.233V366.375Z" stroke="#28A745" stroke-opacity="0.14" stroke-miterlimit="10"/>
<path d="M367.935 366.375H351.233V383.021H367.935V366.375Z" stroke="#28A745" stroke-opacity="0.14" stroke-miterlimit="10"/>
<path d="M384.636 366.375H367.935V383.021H384.636V366.375Z" stroke="#28A745" stroke-opacity="0.14" stroke-miterlimit="10"/>
<path d="M401.339 366.375H384.637V383.021H401.339V366.375Z" stroke="#28A745" stroke-opacity="0.14" stroke-miterlimit="10"/>
<path d="M17.1969 383.021H0.495117V399.667H17.1969V383.021Z" stroke="#28A745" stroke-opacity="0.14" stroke-miterlimit="10"/>
<path d="M33.8991 383.021H17.1973V399.667H33.8991V383.021Z" stroke="#28A745" stroke-opacity="0.14" stroke-miterlimit="10"/>
<path d="M50.6002 383.021H33.8984V399.667H50.6002V383.021Z" stroke="#28A745" stroke-opacity="0.14" stroke-miterlimit="10"/>
<path d="M67.3024 383.021H50.6006V399.667H67.3024V383.021Z" stroke="#28A745" stroke-opacity="0.14" stroke-miterlimit="10"/>
<path d="M84.0045 383.021H67.3027V399.667H84.0045V383.021Z" stroke="#28A745" stroke-opacity="0.14" stroke-miterlimit="10"/>
<path d="M100.706 383.021H84.0039V399.667H100.706V383.021Z" stroke="#28A745" stroke-opacity="0.14" stroke-miterlimit="10"/>
<path d="M117.408 383.021H100.706V399.667H117.408V383.021Z" stroke="#28A745" stroke-opacity="0.14" stroke-miterlimit="10"/>
<path d="M134.11 383.021H117.408V399.667H134.11V383.021Z" stroke="#28A745" stroke-opacity="0.14" stroke-miterlimit="10"/>
<path d="M150.811 383.021H134.109V399.667H150.811V383.021Z" stroke="#28A745" stroke-opacity="0.14" stroke-miterlimit="10"/>
<path d="M167.513 383.021H150.812V399.667H167.513V383.021Z" stroke="#28A745" stroke-opacity="0.14" stroke-miterlimit="10"/>
<path d="M184.215 383.021H167.514V399.667H184.215V383.021Z" stroke="#28A745" stroke-opacity="0.14" stroke-miterlimit="10"/>
<path d="M200.917 383.021H184.215V399.667H200.917V383.021Z" stroke="#28A745" stroke-opacity="0.14" stroke-miterlimit="10"/>
<path d="M217.619 383.021H200.917V399.667H217.619V383.021Z" stroke="#28A745" stroke-opacity="0.14" stroke-miterlimit="10"/>
<path d="M234.321 383.021H217.619V399.667H234.321V383.021Z" stroke="#28A745" stroke-opacity="0.14" stroke-miterlimit="10"/>
<path d="M251.022 383.021H234.32V399.667H251.022V383.021Z" stroke="#28A745" stroke-opacity="0.14" stroke-miterlimit="10"/>
<path d="M267.724 383.021H251.022V399.667H267.724V383.021Z" stroke="#28A745" stroke-opacity="0.14" stroke-miterlimit="10"/>
<path d="M284.425 383.021H267.724V399.667H284.425V383.021Z" stroke="#28A745" stroke-opacity="0.14" stroke-miterlimit="10"/>
<path d="M301.128 383.021H284.426V399.667H301.128V383.021Z" stroke="#28A745" stroke-opacity="0.14" stroke-miterlimit="10"/>
<path d="M317.83 383.021H301.128V399.667H317.83V383.021Z" stroke="#28A745" stroke-opacity="0.14" stroke-miterlimit="10"/>
<path d="M334.531 383.021H317.829V399.667H334.531V383.021Z" stroke="#28A745" stroke-opacity="0.14" stroke-miterlimit="10"/>
<path d="M351.233 383.021H334.531V399.667H351.233V383.021Z" stroke="#28A745" stroke-opacity="0.14" stroke-miterlimit="10"/>
<path d="M367.935 383.021H351.233V399.667H367.935V383.021Z" stroke="#28A745" stroke-opacity="0.14" stroke-miterlimit="10"/>
<path d="M384.636 383.021H367.935V399.667H384.636V383.021Z" stroke="#28A745" stroke-opacity="0.14" stroke-miterlimit="10"/>
<path d="M401.339 383.021H384.637V399.667H401.339V383.021Z" stroke="#28A745" stroke-opacity="0.14" stroke-miterlimit="10"/>
<path opacity="0.2" d="M334.532 33.4583H67.3027V366.375H334.532V33.4583Z" fill="#D92D20"/>
<path opacity="0.2" d="M368.102 333.084V66.75L34.0653 66.75V333.084H368.102Z" fill="#FFD433"/>
<path opacity="0.2" d="M351.233 50.1041H50.6006V349.73H351.233V50.1041Z" fill="#FF5733"/>
<path opacity="0.2" d="M200.917 366.375C293.158 366.375 367.935 291.849 367.935 199.917C367.935 107.984 293.158 33.4583 200.917 33.4583C108.675 33.4583 33.8984 107.984 33.8984 199.917C33.8984 291.849 108.675 366.375 200.917 366.375Z" fill="#191919"/>
</g>
<defs>
<clipPath id="clip0_95_381">
<rect width="401.345" height="400" fill="white" transform="translate(0.328125)"/>
</clipPath>
</defs>
</svg>
