<svg width="460" height="220" viewBox="0 0 460 220" fill="none" xmlns="http://www.w3.org/2000/svg">
<g clip-path="url(#clip0_73_890)">
<path d="M183.257 130.362H167.107C166.543 130.362 166.021 130.064 165.736 129.583L137.76 82.2537C136.796 80.6192 134.283 81.7477 134.872 83.5492L149.454 128.287C149.789 129.315 149.023 130.367 147.942 130.367H133.629C132.938 130.367 132.329 129.922 132.116 129.269L115.966 79.7134C115.753 79.0607 115.986 78.3421 116.544 77.9373L129.761 68.3632C130.522 67.8116 131.593 68.0343 132.07 68.8439L159.859 116.178C160.823 117.818 163.336 116.694 162.747 114.888L144.536 59.0168C144.323 58.364 144.556 57.6454 145.114 57.2406L158.351 47.6513C159.108 47.1048 160.168 47.3174 160.651 48.1169L187.419 92.3592C188.399 93.9734 190.881 92.8449 190.297 91.0485L182.303 66.5162C181.826 65.0537 183.506 63.8393 184.754 64.74L202.97 77.9373C203.529 78.3421 203.762 79.0607 203.549 79.7134L195.657 103.942C195.235 105.233 193.494 105.435 192.784 104.281L166.016 60.5956C165.031 58.9915 162.559 60.125 163.143 61.9163L184.775 128.292C185.11 129.32 184.343 130.372 183.262 130.372L183.257 130.362Z" fill="#FF5733"/>
<path d="M354.688 100.005C354.688 86.0234 346.907 79.6069 330.772 79.6069H323.54C322.707 79.6069 322.032 80.28 322.032 81.1098V87.0102C322.032 87.8401 322.707 88.5131 323.54 88.5131H330.676C340.091 88.5131 344.989 92.0553 344.989 98.4718V98.5021C344.989 99.332 344.314 100.005 343.481 100.005H335.386C320.692 100.005 312.236 106.037 312.236 116.861C312.236 126.056 318.286 131.323 329.524 131.323C338.061 131.323 342.39 128.242 343.405 120.945C343.507 120.201 344.141 119.639 344.897 119.639H344.923C345.755 119.639 346.43 120.312 346.43 121.142V128.859C346.43 129.689 347.105 130.362 347.938 130.362H361.824C362.657 130.362 363.332 129.689 363.332 128.859V122.959C363.332 122.129 362.657 121.456 361.824 121.456H356.195C355.363 121.456 354.688 120.783 354.688 119.953V100.005ZM344.984 110.824C344.984 118.197 339.223 123.176 331.056 123.176C325.103 123.176 321.931 120.59 321.931 116.188C321.931 110.632 326.732 108.142 337.685 108.142H343.476C344.309 108.142 344.984 108.815 344.984 109.645V110.824Z" fill="#F9F9F9"/>
<path d="M373.97 98.4718C373.97 92.0553 378.868 88.5131 388.283 88.5131H401.697C402.53 88.5131 403.205 87.8401 403.205 87.0102V81.1098C403.205 80.28 402.53 79.6069 401.697 79.6069H388.186C372.625 79.6069 364.271 85.6388 364.271 98.5679V111.401C364.271 124.33 372.625 130.362 388.186 130.362H402.276C403.108 130.362 403.783 129.689 403.783 128.859V122.959C403.783 122.129 403.108 121.456 402.276 121.456H388.283C378.868 121.456 373.97 117.913 373.97 111.497V98.4718Z" fill="#F9F9F9"/>
<path d="M305.892 88.5131H315.043C315.875 88.5131 316.55 87.8401 316.55 87.0102V81.1098C316.55 80.28 315.875 79.6069 315.043 79.6069H305.892C299.157 79.6069 295.096 83.5641 294.198 91.3114C294.112 92.0654 293.467 92.6322 292.706 92.6322C291.873 92.6322 291.198 91.9591 291.198 91.1293V81.1149C291.198 80.285 290.523 79.612 289.691 79.612H275.033C274.2 79.612 273.525 80.285 273.525 81.1149V87.0152C273.525 87.8451 274.2 88.5181 275.033 88.5181H281.428C282.26 88.5181 282.935 89.1912 282.935 90.021V119.958C282.935 120.788 282.26 121.461 281.428 121.461H273.109C272.277 121.461 271.602 122.134 271.602 122.964V128.864C271.602 129.694 272.277 130.367 273.109 130.367H303.999C304.831 130.367 305.506 129.694 305.506 128.864V122.964C305.506 122.134 304.831 121.461 303.999 121.461H294.624C293.792 121.461 293.117 120.788 293.117 119.958V108.532C293.117 98.7653 294.076 88.5181 305.892 88.5181V88.5131Z" fill="#F9F9F9"/>
<path d="M268.049 87.0102V81.1099C268.049 80.28 267.374 79.607 266.541 79.607H245.64C244.808 79.607 244.133 78.934 244.133 78.1041V65.9341C244.133 65.1042 243.458 64.4312 242.625 64.4312H235.459C234.626 64.4312 233.951 65.1042 233.951 65.9341V78.1041C233.951 78.934 233.276 79.607 232.444 79.607H222.684C221.851 79.607 221.176 80.28 221.176 81.1099V87.0102C221.176 87.8401 221.851 88.5132 222.684 88.5132H232.444C233.276 88.5132 233.951 89.1862 233.951 90.0161V111.209C233.951 124.998 240.291 130.362 255.852 130.362H266.541C267.374 130.362 268.049 129.689 268.049 128.859V122.959C268.049 122.129 267.374 121.456 266.541 121.456H256.812C247.493 121.456 244.133 118.582 244.133 110.733V90.0211C244.133 89.1912 244.808 88.5182 245.64 88.5182H266.541C267.374 88.5182 268.049 87.8452 268.049 87.0153V87.0102Z" fill="#F9F9F9"/>
<path opacity="0.5" d="M447.656 30.7402H80.7822V47.3431H447.656V30.7402Z" stroke="#F9F9F9" stroke-width="0.5" stroke-miterlimit="10"/>
<path opacity="0.5" d="M447.656 14.1372H80.7822V30.7401H447.656V14.1372Z" stroke="#F9F9F9" stroke-width="0.5" stroke-miterlimit="10"/>
<path opacity="0.5" d="M447.656 130.362H80.7822V146.965H447.656V130.362Z" stroke="#F9F9F9" stroke-width="0.5" stroke-miterlimit="10"/>
<path opacity="0.5" d="M447.656 146.965H80.7822V163.568H447.656V146.965Z" stroke="#F9F9F9" stroke-width="0.5" stroke-miterlimit="10"/>
<path opacity="0.5" d="M447.656 163.573H80.7822V180.176H447.656V163.573Z" stroke="#F9F9F9" stroke-width="0.5" stroke-miterlimit="10"/>
<path opacity="0.5" d="M115.879 14.1372H98.3281V180.176H115.879V14.1372Z" stroke="#F9F9F9" stroke-width="0.5" stroke-miterlimit="10"/>
<path opacity="0.5" d="M98.3334 14.1372H80.7822V180.176H98.3334V14.1372Z" stroke="#F9F9F9" stroke-width="0.5" stroke-miterlimit="10"/>
<path opacity="0.5" d="M421.335 14.1372H403.784V180.176H421.335V14.1372Z" stroke="#F9F9F9" stroke-width="0.5" stroke-miterlimit="10"/>
<path opacity="0.5" d="M438.881 14.1372H421.33V180.176H438.881V14.1372Z" stroke="#F9F9F9" stroke-width="0.5" stroke-miterlimit="10"/>
<path opacity="0.5" d="M447.656 14.1372H438.881V180.176H447.656V14.1372Z" stroke="#F9F9F9" stroke-width="0.5" stroke-miterlimit="10"/>
<path d="M48.0752 47.3428H203.625" stroke="#FF5733" stroke-width="0.5" stroke-miterlimit="10"/>
<path d="M48.0752 130.362H203.625" stroke="#FF5733" stroke-width="0.5" stroke-miterlimit="10"/>
<path d="M59.394 47.3428V130.362" stroke="#FF5733" stroke-width="0.5" stroke-miterlimit="10"/>
<path d="M2.22816 80.4526H3.23311L5.46127 86.1303H4.55275L4.04012 84.8045H1.41607L0.913595 86.1303H0L2.22816 80.4526ZM3.76096 84.0809L2.73063 81.4141L1.7003 84.0809H3.76604H3.76096Z" fill="#FF5733"/>
<path d="M6.16699 80.4526H7.01968V86.1303H6.16699V80.4526Z" fill="#FF5733"/>
<path d="M8.25789 82.664H7.63867V82.1074L8.25789 82.0163L8.50151 80.9385H9.12073V82.0163H9.99879V82.6792H9.12073V84.9058C9.12073 85.2397 9.23239 85.5231 9.65873 85.5231C9.7907 85.5231 9.92773 85.5079 10.1561 85.4523V86.1557C9.96834 86.1961 9.73994 86.2113 9.5623 86.2113C8.64363 86.2113 8.26296 85.6041 8.26296 84.9311V82.664H8.25789Z" fill="#FF5733"/>
<path d="M13.4957 86.1301C13.4399 85.953 13.4044 85.7759 13.3841 85.5937C13.0745 85.948 12.6278 86.201 12.1253 86.201C11.2574 86.201 10.689 85.5836 10.689 84.6627V82.0161H11.5518V84.5918C11.5518 85.1434 11.8513 85.4925 12.3334 85.4925C12.9425 85.4925 13.3638 85.0725 13.3638 84.4096V82.0212H14.2266V84.9359C14.2266 85.533 14.2368 85.8215 14.2824 86.1352H13.5008L13.4957 86.1301Z" fill="#FF5733"/>
<path d="M15.9118 82.0162C15.9626 82.1933 16.0032 82.3704 16.0235 82.5525C16.3077 82.1983 16.6731 81.9453 17.1553 81.9453L17.2365 82.6841C16.5158 82.6183 16.0438 83.0991 16.0438 83.848V86.1302H15.1911V83.2154C15.1911 82.6183 15.1759 82.335 15.1353 82.0162H15.9169H15.9118Z" fill="#FF5733"/>
<path d="M20.3531 86.1304C20.3226 85.9988 20.2617 85.7255 20.2465 85.594C19.9521 85.9583 19.5258 86.2012 19.0182 86.2012C18.1554 86.2012 17.5869 85.6901 17.5869 84.9311C17.5869 84.2176 18.2366 83.7672 19.3177 83.6458L20.2008 83.5395V83.3624C20.2008 82.9424 19.8912 82.6489 19.4598 82.6489C19.0284 82.6489 18.7188 82.8513 18.6223 83.2004L17.795 83.0638C17.9676 82.3857 18.6071 81.9404 19.4699 81.9404C20.414 81.9404 21.0636 82.5477 21.0636 83.4788V84.9361C21.0636 85.5332 21.0738 85.8217 21.1144 86.1354H20.3531V86.1304ZM20.2059 84.4554V84.1315L19.343 84.2277C18.7898 84.2935 18.4498 84.5263 18.4498 84.9007C18.4498 85.2752 18.7441 85.5079 19.1806 85.5079C19.8151 85.5079 20.2059 85.0879 20.2059 84.4554Z" fill="#FF5733"/>
<path d="M25.8752 80.4526H26.7939L24.6571 87.7041H23.7485L25.8752 80.4526Z" fill="#FF5733"/>
<path d="M33.5748 84.1971C33.5748 85.28 32.8186 86.2161 31.5598 86.2161C30.4889 86.2161 29.6362 85.5684 29.3926 84.6272L30.1793 84.354C30.3722 85.032 30.8949 85.4875 31.5446 85.4875C32.2856 85.4875 32.6815 84.8954 32.6815 84.2173C32.6815 83.5392 32.3059 82.9927 31.5598 82.9927C31.032 82.9927 30.6564 83.2255 30.2909 83.6303L29.6261 83.3874L30.1285 80.4575H33.2804V81.171H30.8696L30.6006 82.6183C30.8848 82.4159 31.2198 82.2691 31.6867 82.2691C32.8795 82.2691 33.5697 83.1445 33.5697 84.1971H33.5748Z" fill="#FF5733"/>
<path d="M36.5337 82.2896H40.32V82.9626H36.5337V82.2896ZM36.5337 83.7014H40.32V84.3744H36.5337V83.7014Z" fill="#FF5733"/>
<path d="M43.1876 80.4526H44.2027L45.6594 82.5122L47.1059 80.4526H48.1058L46.1213 83.1751L48.2733 86.1303H47.2582L45.6492 83.8279L44.0302 86.1303H43.0303L45.1772 83.1801L43.1876 80.4526Z" fill="#FF5733"/>
<path d="M454.914 19.6021H455.929L457.386 21.6616L458.832 19.6021H459.832L457.848 22.3245L460 25.2797H458.985L457.376 22.9773L455.757 25.2797H454.757L456.904 22.3296L454.914 19.6021Z" fill="#F9F9F9"/>
<path d="M454.914 36.2051H455.929L457.386 38.2646L458.832 36.2051H459.832L457.848 38.9275L460 41.8827H458.985L457.376 39.5803L455.757 41.8827H454.757L456.904 38.9326L454.914 36.2051Z" fill="#F9F9F9"/>
<path d="M454.914 135.828H455.929L457.386 137.887L458.832 135.828H459.832L457.848 138.55L460 141.505H458.985L457.376 139.203L455.757 141.505H454.757L456.904 138.555L454.914 135.828Z" fill="#F9F9F9"/>
<path d="M454.914 152.43H455.929L457.386 154.49L458.832 152.43H459.832L457.848 155.153L460 158.108H458.985L457.376 155.805L455.757 158.108H454.757L456.904 155.158L454.914 152.43Z" fill="#F9F9F9"/>
<path d="M454.914 169.033H455.929L457.386 171.093L458.832 169.033H459.832L457.848 171.756L460 174.711H458.985L457.376 172.408L455.757 174.711H454.757L456.904 171.761L454.914 169.033Z" fill="#F9F9F9"/>
<path d="M86.1772 0.869141H87.1619L88.6998 3.57641L90.2326 0.869141H91.2172L89.1464 4.38605V6.54681H88.2582V4.38605L86.1772 0.869141Z" fill="#F9F9F9"/>
<path d="M104.586 0.869141H105.571L107.109 3.57641L108.642 0.869141H109.626L107.556 4.38605V6.54681H106.667V4.38605L104.586 0.869141Z" fill="#F9F9F9"/>
<path d="M410.037 0.869141H411.021L412.559 3.57641L414.092 0.869141H415.077L413.006 4.38605V6.54681H412.118V4.38605L410.037 0.869141Z" fill="#F9F9F9"/>
<path d="M427.588 0.869141H428.573L430.11 3.57641L431.643 0.869141H432.628L430.557 4.38605V6.54681H429.669V4.38605L427.588 0.869141Z" fill="#F9F9F9"/>
<path d="M444.104 0.869141H445.022L442.886 8.12056H441.977L444.104 0.869141Z" fill="#F9F9F9"/>
<path d="M445.687 5.88395L447.728 3.88007C448.184 3.4297 448.611 2.99957 448.611 2.39234C448.611 1.86606 448.245 1.54727 447.677 1.54727C447.037 1.54727 446.58 1.93691 446.403 2.57451L445.606 2.29113C445.834 1.41064 446.646 0.79834 447.692 0.79834C448.738 0.79834 449.514 1.46124 449.514 2.40246C449.514 3.29307 448.839 3.87501 448.342 4.37092L446.87 5.82323H449.59V6.54685H445.682V5.88395H445.687Z" fill="#F9F9F9"/>
<path d="M436.937 0.869141H437.922L439.46 3.57641L440.992 0.869141H441.977L439.906 4.38605V6.54681H439.018V4.38605L436.937 0.869141Z" fill="#F9F9F9"/>
<path d="M203.625 47.3428V212.359" stroke="#FF5733" stroke-width="0.5" stroke-miterlimit="10"/>
<path d="M116.026 47.3428V212.359" stroke="#FF5733" stroke-width="0.5" stroke-miterlimit="10"/>
<path d="M203.574 201.075H116.026" stroke="#FF5733" stroke-width="0.5" stroke-miterlimit="10"/>
<path d="M133.111 212.35H133.994V217.309H136.902V218.027H133.111V212.35Z" fill="#FF5733"/>
<path d="M140.298 218.027C140.267 217.896 140.207 217.623 140.191 217.491C139.897 217.855 139.471 218.098 138.963 218.098C138.1 218.098 137.532 217.587 137.532 216.828C137.532 216.115 138.181 215.664 139.262 215.543L140.146 215.436V215.259C140.146 214.839 139.836 214.546 139.405 214.546C138.973 214.546 138.664 214.748 138.567 215.097L137.74 214.961C137.912 214.283 138.552 213.837 139.415 213.837C140.359 213.837 141.008 214.445 141.008 215.376V216.833C141.008 217.43 141.019 217.719 141.059 218.032H140.298V218.027ZM140.151 216.352V216.029L139.288 216.125C138.735 216.19 138.395 216.423 138.395 216.798C138.395 217.172 138.689 217.405 139.125 217.405C139.76 217.405 140.151 216.985 140.151 216.352Z" fill="#FF5733"/>
<path d="M142.683 213.913C142.734 214.09 142.775 214.267 142.795 214.45C143.079 214.095 143.445 213.842 143.927 213.842L144.008 214.581C143.287 214.515 142.815 214.996 142.815 215.745V218.027H141.963V215.112C141.963 214.515 141.947 214.232 141.907 213.913H142.688H142.683Z" fill="#FF5733"/>
<path d="M147.378 217.476C147.094 217.85 146.617 218.093 146.109 218.093C145.084 218.093 144.363 217.212 144.363 215.973C144.363 214.733 145.084 213.842 146.109 213.842C146.652 213.842 147.16 214.116 147.424 214.515C147.449 214.303 147.49 214.06 147.52 213.918H148.292C148.251 214.191 148.236 214.596 148.236 215.107V217.956C148.236 219.09 147.535 219.803 146.358 219.803C145.409 219.803 144.683 219.333 144.455 218.579L145.282 218.402C145.444 218.847 145.825 219.1 146.353 219.1C147.013 219.1 147.368 218.67 147.368 217.956V217.481L147.378 217.476ZM146.343 217.379C146.992 217.379 147.373 216.823 147.373 216.109V215.851C147.373 215.107 146.977 214.53 146.343 214.53C145.652 214.53 145.221 215.087 145.221 215.973C145.221 216.858 145.652 217.385 146.343 217.385V217.379Z" fill="#FF5733"/>
<path d="M151.951 218.027C151.895 217.85 151.86 217.673 151.84 217.491C151.53 217.845 151.083 218.098 150.581 218.098C149.713 218.098 149.145 217.481 149.145 216.56V213.913H150.007V216.489C150.007 217.04 150.307 217.39 150.789 217.39C151.398 217.39 151.819 216.97 151.819 216.307V213.918H152.682V216.833C152.682 217.43 152.692 217.718 152.738 218.032H151.956L151.951 218.027Z" fill="#FF5733"/>
<path d="M154.367 213.913C154.418 214.09 154.458 214.267 154.479 214.45C154.763 214.095 155.128 213.842 155.605 213.842L155.687 214.581C154.966 214.515 154.494 214.996 154.494 215.745V218.027H153.641V215.112C153.641 214.515 153.626 214.232 153.585 213.913H154.367Z" fill="#FF5733"/>
<path d="M158.808 218.027C158.778 217.896 158.717 217.623 158.702 217.491C158.407 217.855 157.981 218.098 157.473 218.098C156.61 218.098 156.042 217.587 156.042 216.828C156.042 216.115 156.692 215.664 157.773 215.543L158.656 215.436V215.259C158.656 214.839 158.346 214.546 157.915 214.546C157.483 214.546 157.174 214.748 157.077 215.097L156.25 214.961C156.423 214.283 157.062 213.837 157.925 213.837C158.869 213.837 159.519 214.445 159.519 215.376V216.833C159.519 217.43 159.529 217.719 159.569 218.032H158.808V218.027ZM158.661 216.352V216.029L157.798 216.125C157.245 216.19 156.905 216.423 156.905 216.798C156.905 217.172 157.199 217.405 157.636 217.405C158.27 217.405 158.661 216.985 158.661 216.352Z" fill="#FF5733"/>
<path d="M164.33 212.35H165.249L163.112 219.601H162.204L164.33 212.35Z" fill="#FF5733"/>
<path d="M172.03 216.094C172.03 217.177 171.274 218.113 170.015 218.113C168.944 218.113 168.091 217.465 167.848 216.524L168.634 216.251C168.827 216.929 169.35 217.384 170 217.384C170.741 217.384 171.137 216.792 171.137 216.114C171.137 215.436 170.761 214.89 170.015 214.89C169.487 214.89 169.111 215.122 168.746 215.527L168.081 215.284L168.584 212.354H171.735V213.068H169.325L169.056 214.515C169.34 214.313 169.675 214.166 170.142 214.166C171.335 214.166 172.025 215.042 172.025 216.094H172.03Z" fill="#FF5733"/>
<path d="M174.994 214.191H178.78V214.864H174.994V214.191ZM174.994 215.598H178.78V216.271H174.994V215.598Z" fill="#FF5733"/>
<path d="M181.455 212.35H182.44L183.978 215.057L185.51 212.35H186.495L184.424 215.867V218.027H183.536V215.867L181.455 212.35Z" fill="#FF5733"/>
</g>
<defs>
<clipPath id="clip0_73_890">
<rect width="460" height="219" fill="white" transform="translate(0 0.803223)"/>
</clipPath>
</defs>
</svg>
