<svg width="189" height="56" viewBox="0 0 189 56" fill="none" xmlns="http://www.w3.org/2000/svg">
<path d="M44.2311 55.3623H33.6289C33.259 55.3623 32.9159 55.1632 32.7293 54.8426L14.3637 23.2808C13.7306 22.1908 12.0813 22.9433 12.4678 24.1447L22.0405 53.9787C22.2604 54.6637 21.7572 55.3656 21.0475 55.3656H11.6515C11.1984 55.3656 10.7986 55.0687 10.6586 54.6334L0.0497711 21.5834C-0.0901697 21.1481 0.0630988 20.6689 0.42961 20.399L9.10594 14.0144C9.60573 13.6466 10.3088 13.795 10.622 14.335L28.8642 45.9001C29.4973 46.9935 31.1466 46.2443 30.7601 45.0396L18.8118 7.78166C18.6719 7.34635 18.8252 6.86717 19.1917 6.59721L27.8813 0.202512C28.3778 -0.161935 29.0742 -0.0202061 29.3907 0.512967L46.9632 30.0163C47.6063 31.0928 49.2356 30.3403 48.8524 29.1423L43.6047 12.7827C43.2915 11.8075 44.3943 10.9976 45.214 11.5982L57.1723 20.399C57.5388 20.6689 57.692 21.1481 57.5521 21.5834L52.371 37.7406C52.0944 38.6011 50.9516 38.736 50.4851 37.9667L32.9092 8.83451C32.2628 7.76479 30.6402 8.52068 31.0233 9.71526L45.224 53.9787C45.4439 54.6637 44.9408 55.3656 44.2311 55.3656V55.3623Z" fill="#FF5733"/>
<path d="M156.77 35.1186C156.77 25.7948 151.662 21.5159 141.07 21.5159H136.322C135.776 21.5159 135.333 21.9647 135.333 22.5182V26.4528C135.333 27.0063 135.776 27.4551 136.322 27.4551H141.007C147.188 27.4551 150.403 29.8172 150.403 34.0961V34.1163C150.403 34.6698 149.96 35.1186 149.413 35.1186H144.099C134.453 35.1186 128.902 39.141 128.902 46.3591C128.902 52.4906 132.874 56.0034 140.251 56.0034C145.855 56.0034 148.697 53.9483 149.363 49.0823C149.43 48.5862 149.846 48.2117 150.343 48.2117H150.36C150.906 48.2117 151.349 48.6605 151.349 49.2139V54.36C151.349 54.9135 151.792 55.3623 152.339 55.3623H161.455C162.001 55.3623 162.445 54.9135 162.445 54.36V50.4254C162.445 49.8719 162.001 49.4231 161.455 49.4231H157.76C157.213 49.4231 156.77 48.9743 156.77 48.4209V35.1186ZM150.4 42.3333C150.4 47.2499 146.618 50.5705 141.257 50.5705C137.348 50.5705 135.266 48.8461 135.266 45.9103C135.266 42.205 138.418 40.5448 145.608 40.5448H149.41C149.956 40.5448 150.4 40.9936 150.4 41.547V42.3333Z" fill="#F9F9F9"/>
<path d="M169.428 34.0961C169.428 29.8172 172.644 27.4551 178.824 27.4551H187.63C188.177 27.4551 188.62 27.0063 188.62 26.4528V22.5182C188.62 21.9647 188.177 21.5159 187.63 21.5159H178.761C168.545 21.5159 163.061 25.5383 163.061 34.1602V42.718C163.061 51.3398 168.545 55.3623 178.761 55.3623H188.01C188.557 55.3623 189 54.9135 189 54.36V50.4254C189 49.8719 188.557 49.4231 188.01 49.4231H178.824C172.644 49.4231 169.428 47.061 169.428 42.7821V34.0961Z" fill="#F9F9F9"/>
<path d="M124.737 27.4551H130.745C131.291 27.4551 131.734 27.0063 131.734 26.4528V22.5182C131.734 21.9647 131.291 21.5159 130.745 21.5159H124.737C120.316 21.5159 117.65 24.1548 117.06 29.3212C117.004 29.824 116.581 30.2019 116.081 30.2019C115.534 30.2019 115.091 29.7531 115.091 29.1997V22.5215C115.091 21.9681 114.648 21.5193 114.102 21.5193H104.479C103.933 21.5193 103.489 21.9681 103.489 22.5215V26.4562C103.489 27.0096 103.933 27.4584 104.479 27.4584H108.677C109.224 27.4584 109.667 27.9072 109.667 28.4607V48.4243C109.667 48.9777 109.224 49.4265 108.677 49.4265H103.216C102.67 49.4265 102.227 49.8753 102.227 50.4287V54.3634C102.227 54.9168 102.67 55.3656 103.216 55.3656H123.494C124.041 55.3656 124.484 54.9168 124.484 54.3634V50.4287C124.484 49.8753 124.041 49.4265 123.494 49.4265H117.34C116.794 49.4265 116.351 48.9777 116.351 48.4243V40.8046C116.351 34.2918 116.98 27.4584 124.737 27.4584V27.4551Z" fill="#F9F9F9"/>
<path d="M99.8943 22.5182C99.8943 21.9647 99.4511 21.5159 98.9047 21.5159H85.1839C84.6374 21.5159 84.1943 21.0671 84.1943 20.5137V12.398C84.1943 11.8446 83.7511 11.3958 83.2047 11.3958H78.5C77.9536 11.3958 77.5104 11.8446 77.5104 12.398V20.5137C77.5104 21.0671 77.0673 21.5159 76.5209 21.5159H70.1136C69.5671 21.5159 69.124 21.9647 69.124 22.5182V26.4528C69.124 27.0063 69.5671 27.4551 70.1136 27.4551H76.5209C77.0673 27.4551 77.5104 27.9039 77.5104 28.4573V42.5897C77.5104 51.7853 81.672 55.3623 91.8877 55.3623H98.9047C99.4511 55.3623 99.8943 54.9135 99.8943 54.36V50.4254C99.8943 49.8719 99.4511 49.4231 98.9047 49.4231H92.5174C86.4 49.4231 84.1943 47.5064 84.1943 42.2725V28.4607C84.1943 27.9072 84.6374 27.4584 85.1839 27.4584H98.9047C99.4511 27.4584 99.8943 27.0096 99.8943 26.4562V22.5182Z" fill="#F9F9F9"/>
</svg>
