<svg width="458" height="168" viewBox="0 0 458 168" fill="none" xmlns="http://www.w3.org/2000/svg">
<g clip-path="url(#clip0_73_314)">
<path d="M334.5 89.3451C334.5 54.2951 315.05 38.2051 274.72 38.2051H256.64C254.56 38.2051 252.87 39.8951 252.87 41.9751V56.7651C252.87 58.8451 254.56 60.5351 256.64 60.5351H274.48C298.01 60.5351 310.25 69.4151 310.25 85.5051V85.5751C310.25 87.6551 308.56 89.3451 306.48 89.3451H286.24C249.51 89.3451 228.38 104.475 228.38 131.605C228.38 154.655 243.51 167.855 271.6 167.855C292.94 167.855 303.76 160.125 306.3 141.835C306.56 139.965 308.14 138.565 310.03 138.565H310.09C312.17 138.565 313.86 140.255 313.86 142.335V161.685C313.86 163.765 315.55 165.455 317.63 165.455H352.35C354.43 165.455 356.12 163.765 356.12 161.685V146.895C356.12 144.815 354.43 143.125 352.35 143.125H338.28C336.2 143.125 334.51 141.435 334.51 139.355V89.3451H334.5ZM310.25 116.475C310.25 134.965 295.84 147.445 275.44 147.445C260.55 147.445 252.63 140.965 252.63 129.915C252.63 115.985 264.63 109.745 292 109.745H306.48C308.56 109.745 310.25 111.435 310.25 113.515V116.465V116.475Z" fill="#FF5733"/>
<path d="M382.7 85.5051C382.7 69.4151 394.94 60.5351 418.47 60.5351H452.01C454.09 60.5351 455.78 58.8451 455.78 56.7651V41.9751C455.78 39.8951 454.09 38.2051 452.01 38.2051H418.23C379.34 38.2051 358.45 53.3351 358.45 85.7451V117.915C358.45 150.325 379.34 165.455 418.23 165.455H453.45C455.53 165.455 457.22 163.765 457.22 161.685V146.895C457.22 144.815 455.53 143.125 453.45 143.125H418.47C394.94 143.125 382.7 134.245 382.7 118.155V85.5051Z" fill="#FF5733"/>
<path d="M212.54 60.5351H235.42C237.5 60.5351 239.19 58.8451 239.19 56.7651V41.9751C239.19 39.8951 237.5 38.2051 235.42 38.2051H212.54C195.7 38.2051 185.55 48.1251 183.31 67.5451C183.09 69.4351 181.48 70.8551 179.58 70.8551C177.5 70.8551 175.81 69.1651 175.81 67.0851V41.9751C175.81 39.8951 174.12 38.2051 172.04 38.2051H135.4C133.32 38.2051 131.63 39.8951 131.63 41.9751V56.7651C131.63 58.8451 133.32 60.5351 135.4 60.5351H151.39C153.47 60.5351 155.16 62.2251 155.16 64.3051V139.355C155.16 141.435 153.47 143.125 151.39 143.125H130.6C128.52 143.125 126.83 144.815 126.83 146.895V161.685C126.83 163.765 128.52 165.455 130.6 165.455H207.81C209.89 165.455 211.58 163.765 211.58 161.685V146.895C211.58 144.815 209.89 143.125 207.81 143.125H184.38C182.3 143.125 180.61 141.435 180.61 139.355V110.715C180.61 86.2251 183.01 60.5351 212.54 60.5351Z" fill="#FF5733"/>
<path d="M117.94 56.765V41.975C117.94 39.895 116.25 38.205 114.17 38.205H61.9298C59.8498 38.205 58.1598 36.515 58.1598 34.435V3.91502C58.1598 1.83502 56.4698 0.14502 54.3898 0.14502H36.4798C34.3998 0.14502 32.7098 1.83502 32.7098 3.91502V34.435C32.7098 36.515 31.0198 38.205 28.9398 38.205H4.54979C2.46979 38.205 0.779785 39.895 0.779785 41.975V56.765C0.779785 58.845 2.46979 60.535 4.54979 60.535H28.9398C31.0198 60.535 32.7098 62.225 32.7098 64.305V117.435C32.7098 152.005 48.5498 165.455 87.4498 165.455H114.17C116.25 165.455 117.94 163.765 117.94 161.685V146.895C117.94 144.815 116.25 143.125 114.17 143.125H89.8498C66.5598 143.125 58.1598 135.925 58.1598 116.235V64.305C58.1598 62.225 59.8498 60.535 61.9298 60.535H114.17C116.25 60.535 117.94 58.845 117.94 56.765Z" fill="#FF5733"/>
</g>
<defs>
<clipPath id="clip0_73_314">
<rect width="456.44" height="167.71" fill="white" transform="translate(0.779785 0.14502)"/>
</clipPath>
</defs>
</svg>
