<svg width="175" height="171" viewBox="0 0 175 171" fill="none" xmlns="http://www.w3.org/2000/svg">
<rect x="0.333008" y="0.669922" width="174.667" height="170" rx="20" fill="#212121"/>
<g clip-path="url(#clip0_91_107)">
<path d="M54.4645 150.661C56.1519 150.661 57.3474 149.015 56.8279 147.405L34.0676 77.3591C33.9711 77.0694 33.9297 76.7889 33.9297 76.5222V150.661H54.4645Z" fill="#F9F9F9"/>
<path d="M140.379 68.5722L111.94 47.9087C109.99 46.4925 107.369 48.3961 108.114 50.6859L120.593 89.0978C121.508 91.9118 117.628 93.682 116.101 91.1531L74.3142 21.8747C73.5601 20.624 71.9002 20.2883 70.7231 21.1482L50.0596 36.1607C49.1859 36.7953 48.8227 37.9172 49.1538 38.9425L77.5788 126.425C78.4984 129.257 74.5762 131.018 73.0727 128.448L33.9297 61.574V76.5222C33.9297 74.214 37.2219 73.0277 38.5737 75.3267L82.2503 149.438C82.6964 150.196 83.5102 150.661 84.393 150.661H109.604C111.291 150.661 112.492 149.01 111.967 147.405L78.1995 43.4762C77.2891 40.6714 81.1468 38.8966 82.6872 41.4117L124.469 109.812C125.578 111.624 128.3 111.306 128.957 109.283L141.28 71.3494C141.615 70.3287 141.248 69.2067 140.379 68.5722Z" fill="#F9F9F9"/>
</g>
<defs>
<clipPath id="clip0_91_107">
<rect width="107.474" height="130" fill="white" transform="translate(33.9297 20.6699)"/>
</clipPath>
</defs>
</svg>
