<svg width="112" height="131" viewBox="0 0 112 131" fill="none" xmlns="http://www.w3.org/2000/svg">
<path d="M0.991741 57.3545C0.913575 57.1016 0.867594 56.8579 0.858398 56.6234V130.661H21.3886C23.0761 130.661 24.2761 129.01 23.752 127.405L0.991741 57.3545Z" fill="#FF5733"/>
<path d="M106.903 34.3321C106.158 33.0631 104.484 32.7136 103.293 33.5735L82.6573 48.5676C81.7883 49.2021 81.425 50.3241 81.7561 51.3494L97.4767 99.7253C98.4193 102.631 94.3133 104.351 92.9063 101.643L41.1693 2.11376C40.4704 0.766541 38.7323 0.357317 37.5047 1.24933L16.9837 16.1561C16.1146 16.7907 15.7514 17.9126 16.0825 18.9379L44.5075 106.425C45.4271 109.252 41.5004 111.013 39.9968 108.448L0.858398 41.5832V56.4348C0.936565 54.1818 4.15978 53.0553 5.49781 55.3221L49.1745 129.438C49.6205 130.196 50.4343 130.661 51.3171 130.661H76.5327C78.2202 130.661 79.4203 129.01 78.8961 127.405L47.7813 31.6423C46.8387 28.7409 50.9401 27.0213 52.3471 29.7203L104.342 129.323C104.769 130.146 105.62 130.661 106.549 130.661H111.142V56.6234C111.142 56.559 111.142 56.4946 111.142 56.4348V41.574L106.903 34.3321Z" fill="#FF5733"/>
</svg>
