<svg width="120" height="115" viewBox="0 0 120 115" fill="none" xmlns="http://www.w3.org/2000/svg">
<path d="M92.1424 114.269H70.0564C69.2824 114.269 68.5744 113.861 68.1784 113.195L29.9164 48.275C28.5964 46.031 25.1644 47.579 25.9684 50.051L45.9064 111.419C46.3624 112.829 45.3124 114.269 43.8364 114.269H24.2644C23.3224 114.269 22.4824 113.663 22.1944 112.763L0.108432 44.795C-0.185568 43.895 0.138432 42.917 0.900432 42.359L18.9784 29.225C20.0224 28.469 21.4864 28.775 22.1404 29.885L60.1444 94.817C61.4584 97.067 64.9024 95.525 64.0924 93.041L39.1864 16.397C38.8924 15.497 39.2164 14.519 39.9784 13.961L58.0804 0.808987C59.1124 0.0589873 60.5644 0.352987 61.2244 1.44499L97.8304 62.135C99.1684 64.355 102.564 62.801 101.766 60.335L90.8344 26.687C90.1804 24.683 92.4784 23.015 94.1884 24.251L119.1 42.353C119.862 42.905 120.18 43.889 119.892 44.789L109.092 78.023C108.516 79.793 106.134 80.075 105.162 78.485L68.5624 18.563C67.2184 16.361 63.8344 17.915 64.6324 20.369L94.2124 111.413C94.6684 112.823 93.6184 114.263 92.1424 114.263V114.269Z" fill="#191919"/>
</svg>
