<svg width="121" height="115" viewBox="0 0 121 115" fill="none" xmlns="http://www.w3.org/2000/svg">
<path d="M92.4754 114.269H70.3894C69.6154 114.269 68.9074 113.861 68.5114 113.195L30.2494 48.275C28.9294 46.031 25.4974 47.579 26.3014 50.051L46.2394 111.419C46.6954 112.829 45.6454 114.269 44.1694 114.269H24.5974C23.6554 114.269 22.8154 113.663 22.5274 112.763L0.44144 44.795C0.14744 43.895 0.47144 42.917 1.23344 42.359L19.3114 29.225C20.3554 28.469 21.8194 28.775 22.4734 29.885L60.4774 94.817C61.7914 97.067 65.2354 95.525 64.4254 93.041L39.5194 16.397C39.2254 15.497 39.5494 14.519 40.3114 13.961L58.4134 0.808987C59.4454 0.0589873 60.8974 0.352987 61.5574 1.44499L98.1634 62.135C99.5014 64.355 102.897 62.801 102.099 60.335L91.1674 26.687C90.5134 24.683 92.8114 23.015 94.5214 24.251L119.433 42.353C120.195 42.905 120.513 43.889 120.225 44.789L109.425 78.023C108.849 79.793 106.467 80.075 105.495 78.485L68.8954 18.563C67.5514 16.361 64.1674 17.915 64.9654 20.369L94.5454 111.413C95.0014 112.823 93.9514 114.263 92.4754 114.263V114.269Z" fill="#FF5733"/>
</svg>
