<svg width="167" height="176" viewBox="0 0 167 176" fill="none" xmlns="http://www.w3.org/2000/svg">
<path d="M89.1089 92.2177C88.6667 92.2177 88.2559 91.9833 88.0311 91.6015L66.0509 54.3056C65.2921 53.0176 63.3203 53.9045 63.7842 55.3278L75.2383 90.5817C75.5017 91.3912 74.8976 92.2201 74.0494 92.2201H62.8056C62.2643 92.2201 61.7834 91.8721 61.6167 91.355L48.9277 52.3072C48.761 51.7925 48.9447 51.227 49.382 50.908L59.7681 43.3614C60.3673 42.9264 61.2107 43.1028 61.5828 43.7408L83.4157 81.0415C84.172 82.3343 86.1487 81.4474 85.6847 80.0217L71.3792 35.9936C71.2125 35.4789 71.3961 34.9134 71.8335 34.5944L82.234 27.0381C82.826 26.608 83.6622 26.7771 84.0415 27.403L105.072 62.2679C105.841 63.5414 107.793 62.6497 107.334 61.236L101.054 41.9043C100.679 40.7516 101.998 39.7923 102.979 40.5051L117.292 50.9056C117.73 51.2246 117.913 51.7901 117.747 52.3048L111.543 71.3949C111.212 72.4122 109.842 72.5717 109.286 71.6607L88.2583 37.238C87.485 35.9718 85.5422 36.8659 86.0013 38.2771L102.996 90.5793C103.26 91.3888 102.656 92.2177 101.807 92.2177H89.1089Z" fill="#FF5733"/>
<path d="M108.827 117.661C108.827 109.191 104.127 105.303 94.3816 105.303H90.0126C89.51 105.303 89.1016 105.711 89.1016 106.214V109.788C89.1016 110.29 89.51 110.699 90.0126 110.699H94.3236C100.01 110.699 102.967 112.845 102.967 116.733V116.75C102.967 117.252 102.559 117.661 102.056 117.661H97.1654C88.2897 117.661 83.1837 121.317 83.1837 127.873C83.1837 133.443 86.8398 136.632 93.6277 136.632C98.7844 136.632 101.399 134.765 102.013 130.345C102.076 129.893 102.457 129.555 102.914 129.555H102.929C103.431 129.555 103.84 129.963 103.84 130.466V135.141C103.84 135.644 104.248 136.053 104.751 136.053H113.141C113.643 136.053 114.052 135.644 114.052 135.141V131.568C114.052 131.065 113.643 130.657 113.141 130.657H109.741C109.238 130.657 108.83 130.248 108.83 129.746V117.661H108.827ZM102.967 124.217C102.967 128.685 99.4852 131.7 94.5556 131.7C90.9575 131.7 89.0436 130.135 89.0436 127.464C89.0436 124.098 91.9434 122.59 98.5573 122.59H102.056C102.559 122.59 102.967 122.999 102.967 123.501V124.217Z" fill="#F9F9F9"/>
<path d="M120.475 116.73C120.475 112.842 123.432 110.696 129.118 110.696H137.223C137.726 110.696 138.134 110.288 138.134 109.785V106.211C138.134 105.709 137.726 105.3 137.223 105.3H129.06C119.663 105.3 114.615 108.957 114.615 116.788V124.562C114.615 132.394 119.663 136.05 129.06 136.05H137.571C138.074 136.05 138.482 135.642 138.482 135.139V131.565C138.482 131.062 138.074 130.654 137.571 130.654H129.118C123.432 130.654 120.475 128.508 120.475 124.62V116.73Z" fill="#F9F9F9"/>
<path d="M79.356 110.699H84.8849C85.3875 110.699 85.7959 110.29 85.7959 109.788V106.214C85.7959 105.711 85.3875 105.303 84.8849 105.303H79.356C75.2867 105.303 72.8339 107.7 72.2926 112.393C72.2395 112.85 71.8504 113.193 71.3913 113.193C70.8887 113.193 70.4803 112.784 70.4803 112.282V106.214C70.4803 105.711 70.0719 105.303 69.5693 105.303H60.7153C60.2127 105.303 59.8043 105.711 59.8043 106.214V109.788C59.8043 110.29 60.2127 110.699 60.7153 110.699H64.5793C65.0819 110.699 65.4903 111.107 65.4903 111.61V129.746C65.4903 130.248 65.0819 130.657 64.5793 130.657H59.5554C59.0528 130.657 58.6444 131.065 58.6444 131.568V135.141C58.6444 135.644 59.0528 136.053 59.5554 136.053H78.213C78.7156 136.053 79.124 135.644 79.124 135.141V131.568C79.124 131.065 78.7156 130.657 78.213 130.657H72.5512C72.0486 130.657 71.6402 130.248 71.6402 129.746V122.825C71.6402 116.907 72.2201 110.699 79.356 110.699Z" fill="#F9F9F9"/>
<path d="M56.4961 109.788V106.214C56.4961 105.711 56.0878 105.303 55.5851 105.303H42.9615C42.4588 105.303 42.0505 104.894 42.0505 104.392V97.0168C42.0505 96.5142 41.6421 96.1058 41.1395 96.1058H36.8116C36.3089 96.1058 35.9005 96.5142 35.9005 97.0168V104.392C35.9005 104.894 35.4922 105.303 34.9895 105.303H29.0957C28.5931 105.303 28.1847 105.711 28.1847 106.214V109.788C28.1847 110.29 28.5931 110.699 29.0957 110.699H34.9895C35.4922 110.699 35.9005 111.107 35.9005 111.61V124.449C35.9005 132.802 39.7282 136.053 49.1283 136.053H55.5851C56.0878 136.053 56.4961 135.644 56.4961 135.141V131.568C56.4961 131.065 56.0878 130.657 55.5851 130.657H49.7083C44.0803 130.657 42.0505 128.917 42.0505 124.159V111.61C42.0505 111.107 42.4588 110.699 42.9615 110.699H55.5851C56.0878 110.699 56.4961 110.29 56.4961 109.788Z" fill="#F9F9F9"/>
</svg>
