<svg width="176" height="175" viewBox="0 0 176 175" fill="none" xmlns="http://www.w3.org/2000/svg">
<path d="M135.791 70.7699L115.645 56.1312C114.263 55.1284 112.407 56.4768 112.934 58.0982L119.478 78.2366C119.649 78.2342 119.825 78.2294 120.004 78.2294C119.825 78.2294 119.649 78.2318 119.478 78.2366L121.773 85.3095C122.421 87.3006 119.673 88.5572 118.591 86.7618L88.9895 37.6891C88.4579 36.8023 87.2835 36.5655 86.4451 37.172L71.8064 47.8091C71.1902 48.2586 70.9292 49.0536 71.1684 49.7761L80.6505 78.9567C80.7471 78.8963 80.8462 78.8383 80.9477 78.7852C80.8462 78.8383 80.7471 78.8939 80.6505 78.9567L91.3045 111.752C91.9569 113.758 89.1732 115.007 88.11 113.185L78.5554 96.8648L57.3804 60.6838C56.8536 59.7849 55.6671 59.5384 54.8238 60.1498L40.2044 70.7723C39.5883 71.2218 39.3273 72.0168 39.5665 72.7393L57.4263 127.706C57.6607 128.433 58.3373 128.923 59.1008 128.923H74.9284C76.1269 128.923 76.9751 127.756 76.603 126.618L60.8793 78.2366L60.4782 76.9994C59.8306 74.9962 62.6022 73.7445 63.6703 75.5593L94.6101 128.058C94.9267 128.595 95.5066 128.928 96.1276 128.928H113.987C115.186 128.926 116.034 127.759 115.662 126.623L91.7394 52.9996C91.0942 51.0133 93.8296 49.7543 94.9194 51.5376L124.521 99.9917C124.869 100.562 125.446 100.835 126.016 100.835C126.222 100.835 126.43 100.799 126.623 100.729C126.625 100.729 126.63 100.726 126.635 100.721C127.111 100.555 127.517 100.178 127.696 99.6171L136.429 72.7441C136.663 72.0216 136.407 71.2266 135.786 70.7772L135.791 70.7699ZM83.4801 78.2318C83.1321 78.2318 82.8035 78.2584 82.4894 78.3043C82.8035 78.256 83.1346 78.2318 83.4801 78.2318ZM66.0142 100.828C66.3356 100.828 66.6062 100.598 66.6691 100.291C66.6062 100.598 66.338 100.828 66.0142 100.828Z" fill="#FF5733"/>
<path d="M108.306 96.8624H105.808C105.441 96.8624 105.141 96.5628 105.141 96.1907V87.3103C105.141 83.0622 103.532 80.3824 100.233 79.1114C98.6987 78.5145 96.797 78.2294 94.5231 78.2294H91.3141C90.942 78.2294 90.6424 78.529 90.6424 78.8963V81.5206C90.6424 81.8927 90.942 82.1923 91.3141 82.1923H94.4796C98.6576 82.1923 100.835 83.7678 100.835 86.6265V86.6385C100.835 87.0107 100.535 87.3103 100.163 87.3103H96.5698C90.0455 87.3103 86.2928 89.9949 86.2928 94.8109C86.2928 98.9043 88.9799 101.251 93.9674 101.251C97.7587 101.251 99.6798 99.8757 100.129 96.628C100.175 96.297 100.455 96.0481 100.791 96.0481H100.801C101.173 96.0481 101.473 96.3477 101.473 96.715V100.151C101.473 100.523 101.772 100.823 102.14 100.823H108.306C108.679 100.823 108.978 100.523 108.978 100.151V97.5269C108.978 97.1596 108.679 96.86 108.306 96.86V96.8624ZM100.835 92.1311C100.835 95.415 98.2758 97.6284 94.6536 97.6284C92.0076 97.6284 90.6013 96.4782 90.6013 94.5185C90.6013 92.0441 92.735 90.9349 97.5944 90.9349H100.165C100.538 90.9349 100.837 91.2346 100.837 91.6067V92.1311H100.835Z" fill="#191919"/>
<path d="M126.674 78.8988V81.523C126.674 81.8951 126.374 82.1947 126.007 82.1947H120.053C118.496 82.1947 117.218 82.4122 116.225 82.8375L114.033 79.2032C115.512 78.6015 117.332 78.2826 119.48 78.2391C119.651 78.2367 119.828 78.2318 120.007 78.2318H126.007C126.374 78.2318 126.674 78.5315 126.674 78.8988Z" fill="#191919"/>
<path d="M126.019 100.828H120.007C113.101 100.828 109.391 98.1407 109.391 92.3848V86.6724C109.391 83.6567 110.411 81.4843 112.376 80.0997L114.688 83.8838C114.031 84.5918 113.697 85.5125 113.697 86.6289V92.4259C113.697 95.2821 115.872 96.8624 120.053 96.8624H122.619L124.525 99.982C124.873 100.552 125.451 100.825 126.021 100.825L126.019 100.828Z" fill="#191919"/>
<path d="M78.5675 100.828H68.9284C68.5563 100.828 68.2567 100.528 68.2567 100.156V97.5318C68.2567 97.1645 68.5563 96.8648 68.9284 96.8648H72.6183C72.9904 96.8648 73.2901 96.5652 73.2901 96.1931V91.8749L78.5675 100.83V100.828Z" fill="#191919"/>
<path d="M83.311 97.5293V100.154C83.311 100.526 83.0113 100.825 82.6392 100.825H80.8776L78.5579 96.8624H82.6392C83.0113 96.8624 83.311 97.162 83.311 97.5293Z" fill="#191919"/>
<path d="M88.2114 78.8988V81.523C88.2114 81.8951 87.9118 82.1947 87.5445 82.1947H83.4801C82.8373 82.1947 82.2719 82.2624 81.7669 82.3905C78.1374 83.3063 77.8088 87.2861 77.8088 91.1065V95.5817L73.2901 87.8613V82.8617C73.2901 82.4944 72.9904 82.1947 72.6183 82.1947H69.9723L69.1096 80.7232V78.8988C69.1096 78.5315 69.4093 78.2318 69.7814 78.2318H76.2864C76.6585 78.2318 76.9582 78.5315 76.9582 78.8988V83.357C76.9582 83.5431 77.0331 83.7123 77.1539 83.8331C77.2747 83.9539 77.4439 84.0288 77.6251 84.0288C77.9634 84.0288 78.251 83.7751 78.2896 83.4392C78.5409 81.2693 79.3456 79.7711 80.6505 78.9567C81.4189 78.471 82.3661 78.2294 83.4777 78.2294H87.5421C87.9094 78.2294 88.209 78.529 88.209 78.8963L88.2114 78.8988Z" fill="#191919"/>
<path d="M56.0658 82.8641V92.0876C56.0658 95.5817 57.5568 96.8624 61.6937 96.8624H66.0118C66.3791 96.8624 66.6787 97.162 66.6787 97.5293V100.154C66.6787 100.526 66.3791 100.825 66.0118 100.825H61.266C54.3574 100.825 51.5423 98.4379 51.5423 92.2978V82.8617C51.5423 82.4944 51.2426 82.1947 50.8754 82.1947H46.5427C46.1754 82.1947 45.8758 81.8951 45.8758 81.523V78.8988C45.8758 78.5315 46.1754 78.2318 46.5427 78.2318H50.8754C51.2426 78.2318 51.5423 77.9322 51.5423 77.5601V72.14C51.5423 71.7727 51.8419 71.4731 52.2141 71.4731H55.3941C55.7662 71.4731 56.0658 71.7727 56.0658 72.14V77.5601C56.0658 77.9322 56.3655 78.2318 56.7328 78.2318H65.2482L66.6812 80.6627V81.5254C66.6812 81.8975 66.3815 82.1972 66.0142 82.1972H56.7352C56.3679 82.1972 56.0682 82.4968 56.0682 82.8641H56.0658Z" fill="#191919"/>
</svg>
