<svg width="326" height="310" viewBox="0 0 326 310" fill="none" xmlns="http://www.w3.org/2000/svg">
<path d="M250.121 309.31H190.26C188.171 309.31 186.234 308.2 185.18 306.413L81.4851 130.459C77.9107 124.383 68.5985 128.578 70.7808 135.275L124.829 301.597C126.071 305.416 123.23 309.329 119.223 309.329H66.1717C63.6132 309.329 61.3557 307.674 60.5655 305.247L0.66624 120.996C-0.123889 118.57 0.74149 115.898 2.81087 114.393L51.7989 78.7997C54.6207 76.7491 58.5902 77.5769 60.3586 80.5869L163.358 256.56C166.932 262.655 176.244 258.479 174.062 251.763L106.581 44.0528C105.791 41.626 106.656 38.9546 108.726 37.4496L157.808 1.79976C160.611 -0.231999 164.543 0.558129 166.33 3.53052L265.547 168.009C269.178 174.01 278.378 169.815 276.214 163.137L246.584 71.9331C244.816 66.4963 251.043 61.9812 255.671 65.3299L323.189 114.393C325.259 115.898 326.124 118.57 325.334 120.996L296.08 211.071C294.519 215.868 288.066 216.621 285.432 212.331L186.196 49.9224C182.546 43.9588 173.385 48.1728 175.548 54.8325L255.727 301.597C256.969 305.416 254.128 309.329 250.121 309.329V309.31Z" fill="#FF5733"/>
</svg>
