<svg width="176" height="80" viewBox="0 0 176 80" fill="none" xmlns="http://www.w3.org/2000/svg">
<path d="M49.4545 56.1549H41.7655C41.4972 56.1549 41.2483 56.0123 41.113 55.7827L27.7937 33.182C27.3346 32.4015 26.1385 32.9403 26.4188 33.8006L33.3612 55.1641C33.5206 55.6547 33.1558 56.1573 32.6411 56.1573H25.8268C25.4981 56.1573 25.2082 55.9446 25.1067 55.6329L17.4176 31.9689C17.3161 31.6572 17.4273 31.3141 17.6931 31.1208L23.9854 26.5489C24.3479 26.2855 24.8578 26.3918 25.0849 26.7785L38.3148 49.3816C38.7739 50.1646 39.9701 49.6281 39.6898 48.7655L31.0196 22.0858C30.9182 21.7741 31.0293 21.4309 31.2951 21.2376L37.5971 16.6585C37.9572 16.3975 38.4622 16.499 38.6918 16.8808L51.436 38.0076C51.9023 38.7784 53.084 38.2395 52.8061 37.3817L49.0002 25.6669C48.7731 24.9686 49.5729 24.3886 50.1674 24.8187L58.8399 31.1208C59.1057 31.3141 59.2168 31.6572 59.1154 31.9689L55.3578 43.5387C55.1573 44.1549 54.3284 44.2516 53.9901 43.7006L41.2459 22.8397C40.7771 22.0737 39.6003 22.615 39.8782 23.4704L50.177 55.1666C50.3365 55.6571 49.9716 56.1597 49.4569 56.1597L49.4545 56.1549Z" fill="#FF5733"/>
<path d="M131.072 41.6588C131.072 34.9822 127.367 31.9182 119.685 31.9182H116.242C115.846 31.9182 115.524 32.2396 115.524 32.6359V35.4534C115.524 35.8497 115.846 36.1711 116.242 36.1711H119.639C124.122 36.1711 126.454 37.8626 126.454 40.9266V40.9411C126.454 41.3374 126.132 41.6588 125.736 41.6588H121.882C114.886 41.6588 110.861 44.5391 110.861 49.7079C110.861 54.0985 113.741 56.614 119.091 56.614C123.155 56.614 125.217 55.1424 125.7 51.6579C125.748 51.3027 126.05 51.0345 126.41 51.0345H126.422C126.819 51.0345 127.14 51.3559 127.14 51.7522V55.4372C127.14 55.8335 127.461 56.1549 127.858 56.1549H134.469C134.865 56.1549 135.187 55.8335 135.187 55.4372V52.6197C135.187 52.2234 134.865 51.902 134.469 51.902H131.789C131.393 51.902 131.072 51.5806 131.072 51.1843V41.6588ZM126.454 46.8251C126.454 50.3458 123.711 52.7236 119.823 52.7236C116.989 52.7236 115.478 51.4888 115.478 49.3865C115.478 46.7332 117.764 45.5444 122.979 45.5444H125.736C126.132 45.5444 126.454 45.8658 126.454 46.2621V46.8251Z" fill="#191919"/>
<path d="M140.251 40.9266C140.251 37.8626 142.583 36.1711 147.066 36.1711H153.452C153.849 36.1711 154.17 35.8497 154.17 35.4534V32.6359C154.17 32.2396 153.849 31.9182 153.452 31.9182H147.02C139.611 31.9182 135.634 34.7986 135.634 40.9725V47.1005C135.634 53.2745 139.611 56.1549 147.02 56.1549H153.728C154.124 56.1549 154.446 55.8335 154.446 55.4372V52.6197C154.446 52.2234 154.124 51.902 153.728 51.902H147.066C142.583 51.902 140.251 50.2105 140.251 47.1465V40.9266Z" fill="#191919"/>
<path d="M107.84 36.1711H112.197C112.593 36.1711 112.915 35.8497 112.915 35.4534V32.6359C112.915 32.2396 112.593 31.9182 112.197 31.9182H107.84C104.633 31.9182 102.7 33.8078 102.273 37.5074C102.232 37.8674 101.925 38.138 101.562 38.138C101.166 38.138 100.845 37.8167 100.845 37.4204V32.6383C100.845 32.242 100.523 31.9206 100.127 31.9206H93.1482C92.7519 31.9206 92.4305 32.242 92.4305 32.6383V35.4558C92.4305 35.8521 92.7519 36.1735 93.1482 36.1735H96.1929C96.5892 36.1735 96.9106 36.4949 96.9106 36.8912V51.1867C96.9106 51.583 96.5892 51.9044 96.1929 51.9044H92.2324C91.8361 51.9044 91.5147 52.2258 91.5147 52.6221V55.4396C91.5147 55.8359 91.8361 56.1573 92.2324 56.1573H106.939C107.335 56.1573 107.656 55.8359 107.656 55.4396V52.6221C107.656 52.2258 107.335 51.9044 106.939 51.9044H102.476C102.079 51.9044 101.758 51.583 101.758 51.1867V45.7304C101.758 41.0667 102.215 36.1735 107.84 36.1735V36.1711Z" fill="#191919"/>
<path d="M89.8232 32.6359C89.8232 32.2396 89.5018 31.9182 89.1055 31.9182H79.1547C78.7584 31.9182 78.437 31.5968 78.437 31.2005V25.389C78.437 24.9927 78.1157 24.6713 77.7194 24.6713H74.3074C73.9111 24.6713 73.5897 24.9927 73.5897 25.389V31.2005C73.5897 31.5968 73.2683 31.9182 72.872 31.9182H68.2253C67.829 31.9182 67.5076 32.2396 67.5076 32.6359V35.4534C67.5076 35.8497 67.829 36.1711 68.2253 36.1711H72.872C73.2683 36.1711 73.5897 36.4925 73.5897 36.8888V47.0087C73.5897 53.5935 76.6078 56.1549 84.0166 56.1549H89.1055C89.5018 56.1549 89.8232 55.8335 89.8232 55.4372V52.6197C89.8232 52.2234 89.5018 51.902 89.1055 51.902H84.4733C80.0367 51.902 78.437 50.5294 78.437 46.7816V36.8912C78.437 36.4949 78.7584 36.1735 79.1547 36.1735H89.1055C89.5018 36.1735 89.8232 35.8521 89.8232 35.4558V32.6359Z" fill="#191919"/>
</svg>
