<svg width="175" height="175" viewBox="0 0 175 175" fill="none" xmlns="http://www.w3.org/2000/svg">
<path d="M135.458 70.7697L115.312 56.131C113.93 55.1282 112.074 56.4766 112.601 58.098L119.144 78.2364C119.316 78.234 119.492 78.2292 119.671 78.2292C119.492 78.2292 119.316 78.2316 119.144 78.2364L121.44 85.3093C122.088 87.3004 119.34 88.557 118.258 86.7616L88.6565 37.6889C88.1249 36.8021 86.9505 36.5653 86.112 37.1718L71.4734 47.8089C70.8572 48.2583 70.5962 49.0533 70.8354 49.7758L80.3175 78.9565C80.4141 78.8961 80.5132 78.8381 80.6147 78.785C80.5132 78.8381 80.4141 78.8937 80.3175 78.9565L90.9714 111.752C91.6239 113.758 88.8402 115.007 87.7769 113.185L78.2224 96.8646L57.0473 60.6836C56.5206 59.7846 55.3341 59.5382 54.4908 60.1495L39.8714 70.7721C39.2552 71.2216 38.9943 72.0166 39.2335 72.7391L57.0933 127.705C57.3276 128.433 58.0042 128.923 58.7678 128.923H74.5954C75.7939 128.923 76.6421 127.756 76.27 126.618L60.5463 78.2364L60.1452 76.9992C59.4976 74.996 62.2692 73.7443 63.3373 75.559L94.2771 128.058C94.5937 128.595 95.1736 128.928 95.7946 128.928H113.654C114.853 128.926 115.701 127.759 115.329 126.623L91.4064 52.9993C90.7612 51.013 93.4966 49.7541 94.5864 51.5374L124.188 99.9915C124.535 100.562 125.113 100.835 125.683 100.835C125.889 100.835 126.097 100.799 126.29 100.728C126.292 100.728 126.297 100.726 126.302 100.721C126.778 100.554 127.184 100.178 127.363 99.6169L136.096 72.7439C136.33 72.0214 136.074 71.2264 135.453 70.7769L135.458 70.7697ZM83.1471 78.2316C82.7991 78.2316 82.4705 78.2582 82.1563 78.3041C82.4705 78.2558 82.8015 78.2316 83.1471 78.2316ZM65.6812 100.828C66.0026 100.828 66.2732 100.598 66.3361 100.291C66.2732 100.598 66.005 100.828 65.6812 100.828Z" fill="#191919"/>
<path d="M107.973 96.8622H105.475C105.107 96.8622 104.808 96.5626 104.808 96.1904V87.3101C104.808 83.062 103.199 80.3822 99.9001 79.1112C98.3657 78.5143 96.464 78.2292 94.1901 78.2292H90.9811C90.609 78.2292 90.3093 78.5288 90.3093 78.8961V81.5203C90.3093 81.8925 90.609 82.1921 90.9811 82.1921H94.1466C98.3246 82.1921 100.502 83.7676 100.502 86.6262V86.6383C100.502 87.0105 100.202 87.3101 99.83 87.3101H96.2368C89.7125 87.3101 85.9598 89.9947 85.9598 94.8107C85.9598 98.9041 88.6468 101.25 93.6343 101.25C97.4257 101.25 99.3467 99.8755 99.7962 96.6278C99.8421 96.2968 100.122 96.0479 100.458 96.0479H100.468C100.84 96.0479 101.14 96.3475 101.14 96.7148V100.151C101.14 100.523 101.439 100.823 101.807 100.823H107.973C108.345 100.823 108.645 100.523 108.645 100.151V97.5267C108.645 97.1594 108.345 96.8598 107.973 96.8598V96.8622ZM100.502 92.1308C100.502 95.4148 97.9428 97.6282 94.3206 97.6282C91.6746 97.6282 90.2683 96.478 90.2683 94.5183C90.2683 92.0439 92.402 90.9347 97.2614 90.9347H99.8325C100.205 90.9347 100.504 91.2344 100.504 91.6065V92.1308H100.502Z" fill="#F9F9F9"/>
<path d="M126.341 78.8985V81.5228C126.341 81.8949 126.041 82.1945 125.674 82.1945H119.72C118.163 82.1945 116.885 82.412 115.892 82.8373L113.7 79.203C115.179 78.6013 116.999 78.2823 119.147 78.2388C119.318 78.2364 119.495 78.2316 119.674 78.2316H125.674C126.041 78.2316 126.341 78.5312 126.341 78.8985Z" fill="#F9F9F9"/>
<path d="M125.686 100.828H119.674C112.768 100.828 109.058 98.1405 109.058 92.3846V86.6721C109.058 83.6565 110.078 81.4841 112.043 80.0995L114.355 83.8836C113.698 84.5916 113.364 85.5123 113.364 86.6287V92.4256C113.364 95.2819 115.539 96.8622 119.72 96.8622H122.286L124.192 99.9818C124.54 100.552 125.118 100.825 125.688 100.825L125.686 100.828Z" fill="#F9F9F9"/>
<path d="M78.2345 100.828H68.5954C68.2233 100.828 67.9236 100.528 67.9236 100.156V97.5315C67.9236 97.1642 68.2233 96.8646 68.5954 96.8646H72.2853C72.6574 96.8646 72.957 96.565 72.957 96.1928V91.8747L78.2345 100.83V100.828Z" fill="#F9F9F9"/>
<path d="M82.9779 97.5291V100.153C82.9779 100.525 82.6783 100.825 82.3062 100.825H80.5446L78.2248 96.8622H82.3062C82.6783 96.8622 82.9779 97.1618 82.9779 97.5291Z" fill="#F9F9F9"/>
<path d="M87.8784 78.8985V81.5228C87.8784 81.8949 87.5788 82.1945 87.2115 82.1945H83.1471C82.5043 82.1945 81.9389 82.2622 81.4338 82.3903C77.8044 83.3061 77.4757 87.2859 77.4757 91.1063V95.5815L72.957 87.861V82.8615C72.957 82.4942 72.6574 82.1945 72.2853 82.1945H69.6393L68.7766 80.7229V78.8985C68.7766 78.5312 69.0763 78.2316 69.4484 78.2316H75.9534C76.3255 78.2316 76.6252 78.5312 76.6252 78.8985V83.3568C76.6252 83.5429 76.7001 83.712 76.8209 83.8329C76.9417 83.9537 77.1109 84.0286 77.2921 84.0286C77.6304 84.0286 77.918 83.7749 77.9566 83.439C78.2079 81.269 79.0126 79.7709 80.3175 78.9565C81.0859 78.4708 82.0331 78.2292 83.1447 78.2292H87.2091C87.5764 78.2292 87.876 78.5288 87.876 78.8961L87.8784 78.8985Z" fill="#F9F9F9"/>
<path d="M55.7328 82.8639V92.0873C55.7328 95.5815 57.2237 96.8622 61.3606 96.8622H65.6788C66.0461 96.8622 66.3457 97.1618 66.3457 97.5291V100.153C66.3457 100.525 66.0461 100.825 65.6788 100.825H60.9329C54.0244 100.825 51.2093 98.4377 51.2093 92.2976V82.8615C51.2093 82.4942 50.9096 82.1945 50.5423 82.1945H46.2097C45.8424 82.1945 45.5428 81.8949 45.5428 81.5228V78.8985C45.5428 78.5312 45.8424 78.2316 46.2097 78.2316H50.5423C50.9096 78.2316 51.2093 77.932 51.2093 77.5598V72.1398C51.2093 71.7725 51.5089 71.4729 51.881 71.4729H55.061C55.4332 71.4729 55.7328 71.7725 55.7328 72.1398V77.5598C55.7328 77.932 56.0324 78.2316 56.3997 78.2316H64.9152L66.3481 80.6625V81.5252C66.3481 81.8973 66.0485 82.1969 65.6812 82.1969H56.4022C56.0349 82.1969 55.7352 82.4966 55.7352 82.8639H55.7328Z" fill="#F9F9F9"/>
</svg>
